<?xml version='1.0' encoding='UTF-8'?>
<svg xmlns="http://www.w3.org/2000/svg" font-family="ConsolasFallback,Consolas,monospace" width="985px" height="530px" font-size="16px">
<defs>
<font-face>
<font-face-src>
<font-face-uri src="local('Consolas')"/>
</font-face-src>
</font-face>
<radialGradient id="darkBg" cx="50%" cy="30%" r="90%">
<stop offset="0%" stop-color="#0a0a2f"/>
<stop offset="100%" stop-color="#050510"/>
</radialGradient>
<filter id="darkGlow" x="-20%" y="-20%" width="140%" height="140%">
<feGaussianBlur stdDeviation="1.5" result="blur"/>
<feMerge>
<feMergeNode in="blur"/>
<feMergeNode in="SourceGraphic"/>
</feMerge>
</filter>
</defs>
<rect width="985px" height="530px" fill="url(#darkBg)" rx="15"/>
<text x="15" y="30" font-family="ConsolasFallback,Consolas,monospace" font-size="16px" filter="url(#darkGlow)">
<tspan x="15" y="30" fill="#0198a4">█</tspan><tspan x="24" y="30" fill="#0199a5">█</tspan><tspan x="34" y="30" fill="#0199a5">█</tspan><tspan x="43" y="30" fill="#019ba6">█</tspan><tspan x="53" y="30" fill="#01a3af">█</tspan><tspan x="63" y="30" fill="#01b2be">█</tspan><tspan x="72" y="30" fill="#01a6b2">█</tspan><tspan x="82" y="30" fill="#02919d">█</tspan><tspan x="91" y="30" fill="#02929e">█</tspan><tspan x="101" y="30" fill="#02939f">█</tspan><tspan x="111" y="30" fill="#0195a1">█</tspan><tspan x="120" y="30" fill="#0198a4">█</tspan><tspan x="130" y="30" fill="#01a0ac">█</tspan><tspan x="139" y="30" fill="#01aeba">█</tspan><tspan x="149" y="30" fill="#01bac5">█</tspan><tspan x="159" y="30" fill="#01bac5">█</tspan><tspan x="168" y="30" fill="#01b2be">█</tspan><tspan x="178" y="30" fill="#01b0bc">█</tspan><tspan x="187" y="30" fill="#01aeba">█</tspan><tspan x="197" y="30" fill="#01acb7">█</tspan><tspan x="207" y="30" fill="#01aab5">█</tspan><tspan x="216" y="30" fill="#01b1bd">█</tspan><tspan x="226" y="30" fill="#01b6c2">█</tspan><tspan x="235" y="30" fill="#01b6c2">█</tspan><tspan x="245" y="30" fill="#01adb9">█</tspan><tspan x="255" y="30" fill="#01a1ad">█</tspan><tspan x="264" y="30" fill="#019faa">█</tspan><tspan x="274" y="30" fill="#01a1ad">█</tspan><tspan x="283" y="30" fill="#01a3af">█</tspan><tspan x="293" y="30" fill="#01a5b1">█</tspan><tspan x="303" y="30" fill="#01a5b1">█</tspan><tspan x="312" y="30" fill="#01acb7">█</tspan><tspan x="322" y="30" fill="#01aeba">█</tspan><tspan x="331" y="30" fill="#01afbb">█</tspan><tspan x="341" y="30" fill="#01a8b4">█</tspan><tspan x="351" y="30" fill="#01a2ae">█</tspan>
<tspan x="15" y="50" fill="#01b3bf">█</tspan><tspan x="24" y="50" fill="#01b8c3">█</tspan><tspan x="34" y="50" fill="#01bfcb">█</tspan><tspan x="43" y="50" fill="#00c7d2">█</tspan><tspan x="53" y="50" fill="#00ceda">█</tspan><tspan x="63" y="50" fill="#00e1ed">█</tspan><tspan x="72" y="50" fill="#01c1cd">█</tspan><tspan x="82" y="50" fill="#01b9c4">█</tspan><tspan x="91" y="50" fill="#01b6c2">█</tspan><tspan x="101" y="50" fill="#01afbb">█</tspan><tspan x="111" y="50" fill="#019fab">█</tspan><tspan x="120" y="50" fill="#0199a5">█</tspan><tspan x="130" y="50" fill="#0199a5">█</tspan><tspan x="139" y="50" fill="#019da8">█</tspan><tspan x="149" y="50" fill="#019ea9">█</tspan><tspan x="159" y="50" fill="#019da8">█</tspan><tspan x="168" y="50" fill="#019da8">█</tspan><tspan x="178" y="50" fill="#02919d">█</tspan><tspan x="187" y="50" fill="#028e99">█</tspan><tspan x="197" y="50" fill="#02919c">█</tspan><tspan x="207" y="50" fill="#0195a1">█</tspan><tspan x="216" y="50" fill="#019fab">█</tspan><tspan x="226" y="50" fill="#019fab">█</tspan><tspan x="235" y="50" fill="#0198a4">█</tspan><tspan x="245" y="50" fill="#02919d">█</tspan><tspan x="255" y="50" fill="#02929e">█</tspan><tspan x="264" y="50" fill="#02919d">█</tspan><tspan x="274" y="50" fill="#019ca7">█</tspan><tspan x="283" y="50" fill="#019ea9">█</tspan><tspan x="293" y="50" fill="#0198a4">█</tspan><tspan x="303" y="50" fill="#0197a3">█</tspan><tspan x="312" y="50" fill="#019da8">█</tspan><tspan x="322" y="50" fill="#01a5b1">█</tspan><tspan x="331" y="50" fill="#01a8b4">█</tspan><tspan x="341" y="50" fill="#019faa">█</tspan><tspan x="351" y="50" fill="#0195a1">█</tspan>
<tspan x="15" y="70" fill="#01adb9">█</tspan><tspan x="24" y="70" fill="#01bbc6">█</tspan><tspan x="34" y="70" fill="#00d1dd">█</tspan><tspan x="43" y="70" fill="#00e0ec">█</tspan><tspan x="53" y="70" fill="#00e5f1">█</tspan><tspan x="63" y="70" fill="#00e7f3">█</tspan><tspan x="72" y="70" fill="#00dde9">█</tspan><tspan x="82" y="70" fill="#00e0ec">█</tspan><tspan x="91" y="70" fill="#00e5f0">█</tspan><tspan x="101" y="70" fill="#00dae6">█</tspan><tspan x="111" y="70" fill="#00c5d1">█</tspan><tspan x="120" y="70" fill="#00d5e1">█</tspan><tspan x="130" y="70" fill="#01c1cd">█</tspan><tspan x="139" y="70" fill="#028b96">█</tspan><tspan x="149" y="70" fill="#035661">█</tspan><tspan x="159" y="70" fill="#033d48">█</tspan><tspan x="168" y="70" fill="#042d38">█</tspan><tspan x="178" y="70" fill="#04212d">█</tspan><tspan x="187" y="70" fill="#04222d">█</tspan><tspan x="197" y="70" fill="#04222d">█</tspan><tspan x="207" y="70" fill="#04222d">█</tspan><tspan x="216" y="70" fill="#033641">█</tspan><tspan x="226" y="70" fill="#03545f">█</tspan><tspan x="235" y="70" fill="#02808b">█</tspan><tspan x="245" y="70" fill="#01a0ac">█</tspan><tspan x="255" y="70" fill="#0194a0">█</tspan><tspan x="264" y="70" fill="#02929e">█</tspan><tspan x="274" y="70" fill="#019aa5">█</tspan><tspan x="283" y="70" fill="#019ea9">█</tspan><tspan x="293" y="70" fill="#01a0ac">█</tspan><tspan x="303" y="70" fill="#019faa">█</tspan><tspan x="312" y="70" fill="#019ca7">█</tspan><tspan x="322" y="70" fill="#01a3af">█</tspan><tspan x="331" y="70" fill="#01a1ad">█</tspan><tspan x="341" y="70" fill="#019ba6">█</tspan><tspan x="351" y="70" fill="#019aa5">█</tspan>
<tspan x="15" y="90" fill="#01afbb">█</tspan><tspan x="24" y="90" fill="#01b1bd">█</tspan><tspan x="34" y="90" fill="#01afbb">█</tspan><tspan x="43" y="90" fill="#01aeba">█</tspan><tspan x="53" y="90" fill="#01afbb">█</tspan><tspan x="63" y="90" fill="#01b1bd">█</tspan><tspan x="72" y="90" fill="#01b4c0">█</tspan><tspan x="82" y="90" fill="#01b6c2">█</tspan><tspan x="91" y="90" fill="#01bbc7">█</tspan><tspan x="101" y="90" fill="#01bac5">█</tspan><tspan x="111" y="90" fill="#01bac5">█</tspan><tspan x="120" y="90" fill="#028995">█</tspan><tspan x="130" y="90" fill="#02909b">█</tspan><tspan x="139" y="90" fill="#0195a1">█</tspan><tspan x="149" y="90" fill="#02939f">█</tspan><tspan x="159" y="90" fill="#0197a3">█</tspan><tspan x="168" y="90" fill="#0194a0">█</tspan><tspan x="178" y="90" fill="#02909b">█</tspan><tspan x="187" y="90" fill="#027682">█</tspan><tspan x="197" y="90" fill="#02727d">█</tspan><tspan x="207" y="90" fill="#027f8a">█</tspan><tspan x="216" y="90" fill="#027884">█</tspan><tspan x="226" y="90" fill="#026c78">█</tspan><tspan x="235" y="90" fill="#035f6a">█</tspan><tspan x="245" y="90" fill="#02838e">█</tspan><tspan x="255" y="90" fill="#01bac5">█</tspan><tspan x="264" y="90" fill="#01b5c1">█</tspan><tspan x="274" y="90" fill="#01b5c1">█</tspan><tspan x="283" y="90" fill="#01b1bd">█</tspan><tspan x="293" y="90" fill="#01a9b4">█</tspan><tspan x="303" y="90" fill="#01a4b0">█</tspan><tspan x="312" y="90" fill="#01a4b0">█</tspan><tspan x="322" y="90" fill="#01a5b1">█</tspan><tspan x="331" y="90" fill="#01abb6">█</tspan><tspan x="341" y="90" fill="#01afbb">█</tspan><tspan x="351" y="90" fill="#01b2be">█</tspan>
<tspan x="15" y="110" fill="#01adb9">█</tspan><tspan x="24" y="110" fill="#01afbb">█</tspan><tspan x="34" y="110" fill="#01b3bf">█</tspan><tspan x="43" y="110" fill="#01b4c0">█</tspan><tspan x="53" y="110" fill="#01b3bf">█</tspan><tspan x="63" y="110" fill="#01b1bd">█</tspan><tspan x="72" y="110" fill="#01aeba">█</tspan><tspan x="82" y="110" fill="#01adb9">█</tspan><tspan x="91" y="110" fill="#01adb8">█</tspan><tspan x="101" y="110" fill="#01bbc6">█</tspan><tspan x="111" y="110" fill="#03616c">█</tspan><tspan x="120" y="110" fill="#03545f">█</tspan><tspan x="130" y="110" fill="#01a9b4">█</tspan><tspan x="139" y="110" fill="#01adb9">█</tspan><tspan x="149" y="110" fill="#01a4b0">█</tspan><tspan x="159" y="110" fill="#01a5b1">█</tspan><tspan x="168" y="110" fill="#01a5b1">█</tspan><tspan x="178" y="110" fill="#01a8b4">█</tspan><tspan x="187" y="110" fill="#01b0bc">█</tspan><tspan x="197" y="110" fill="#01b6c2">█</tspan><tspan x="207" y="110" fill="#01bcc8">█</tspan><tspan x="216" y="110" fill="#00c4d0">█</tspan><tspan x="226" y="110" fill="#00ccd8">█</tspan><tspan x="235" y="110" fill="#00cad6">█</tspan><tspan x="245" y="110" fill="#01b9c4">█</tspan><tspan x="255" y="110" fill="#02919c">█</tspan><tspan x="264" y="110" fill="#01a9b4">█</tspan><tspan x="274" y="110" fill="#01b4c0">█</tspan><tspan x="283" y="110" fill="#01a7b3">█</tspan><tspan x="293" y="110" fill="#01a0ac">█</tspan><tspan x="303" y="110" fill="#01a2ae">█</tspan><tspan x="312" y="110" fill="#01a3af">█</tspan><tspan x="322" y="110" fill="#01a1ad">█</tspan><tspan x="331" y="110" fill="#019ca7">█</tspan><tspan x="341" y="110" fill="#019aa5">█</tspan><tspan x="351" y="110" fill="#01a3af">█</tspan>
<tspan x="15" y="130" fill="#01acb7">█</tspan><tspan x="24" y="130" fill="#01aeba">█</tspan><tspan x="34" y="130" fill="#01afbb">█</tspan><tspan x="43" y="130" fill="#01afbb">█</tspan><tspan x="53" y="130" fill="#01afbb">█</tspan><tspan x="63" y="130" fill="#01afbb">█</tspan><tspan x="72" y="130" fill="#01afbb">█</tspan><tspan x="82" y="130" fill="#01b0bc">█</tspan><tspan x="91" y="130" fill="#01bcc8">█</tspan><tspan x="101" y="130" fill="#01a5b1">█</tspan><tspan x="111" y="130" fill="#04313c">█</tspan><tspan x="120" y="130" fill="#02737e">█</tspan><tspan x="130" y="130" fill="#0194a0">█</tspan><tspan x="139" y="130" fill="#02909b">█</tspan><tspan x="149" y="130" fill="#028b96">█</tspan><tspan x="159" y="130" fill="#02929e">█</tspan><tspan x="168" y="130" fill="#019faa">█</tspan><tspan x="178" y="130" fill="#02939f">█</tspan><tspan x="187" y="130" fill="#028e99">█</tspan><tspan x="197" y="130" fill="#019ba6">█</tspan><tspan x="207" y="130" fill="#01a4b0">█</tspan><tspan x="216" y="130" fill="#01aab5">█</tspan><tspan x="226" y="130" fill="#01aeba">█</tspan><tspan x="235" y="130" fill="#01b0bc">█</tspan><tspan x="245" y="130" fill="#01bfcb">█</tspan><tspan x="255" y="130" fill="#0198a4">█</tspan><tspan x="264" y="130" fill="#027d88">█</tspan><tspan x="274" y="130" fill="#01b2be">█</tspan><tspan x="283" y="130" fill="#01a4b0">█</tspan><tspan x="293" y="130" fill="#01a5b1">█</tspan><tspan x="303" y="130" fill="#01a4b0">█</tspan><tspan x="312" y="130" fill="#01a4b0">█</tspan><tspan x="322" y="130" fill="#01a2ae">█</tspan><tspan x="331" y="130" fill="#019fab">█</tspan><tspan x="341" y="130" fill="#019fab">█</tspan><tspan x="351" y="130" fill="#019ea9">█</tspan>
<tspan x="15" y="150" fill="#01a1ad">█</tspan><tspan x="24" y="150" fill="#01a3af">█</tspan><tspan x="34" y="150" fill="#01a3af">█</tspan><tspan x="43" y="150" fill="#01a4b0">█</tspan><tspan x="53" y="150" fill="#01a4b0">█</tspan><tspan x="63" y="150" fill="#01a5b1">█</tspan><tspan x="72" y="150" fill="#01a8b4">█</tspan><tspan x="82" y="150" fill="#01a9b4">█</tspan><tspan x="91" y="150" fill="#01bfcb">█</tspan><tspan x="101" y="150" fill="#027581">█</tspan><tspan x="111" y="150" fill="#034a55">█</tspan><tspan x="120" y="150" fill="#027d88">█</tspan><tspan x="130" y="150" fill="#034e5a">█</tspan><tspan x="139" y="150" fill="#03414c">█</tspan><tspan x="149" y="150" fill="#033843">█</tspan><tspan x="159" y="150" fill="#04303c">█</tspan><tspan x="168" y="150" fill="#03434e">█</tspan><tspan x="178" y="150" fill="#026874">█</tspan><tspan x="187" y="150" fill="#027985">█</tspan><tspan x="197" y="150" fill="#026671">█</tspan><tspan x="207" y="150" fill="#035d69">█</tspan><tspan x="216" y="150" fill="#026a76">█</tspan><tspan x="226" y="150" fill="#028995">█</tspan><tspan x="235" y="150" fill="#01a1ad">█</tspan><tspan x="245" y="150" fill="#01b4c0">█</tspan><tspan x="255" y="150" fill="#027580">█</tspan><tspan x="264" y="150" fill="#02808b">█</tspan><tspan x="274" y="150" fill="#01b1bd">█</tspan><tspan x="283" y="150" fill="#019da8">█</tspan><tspan x="293" y="150" fill="#019ea9">█</tspan><tspan x="303" y="150" fill="#019ea9">█</tspan><tspan x="312" y="150" fill="#019ca7">█</tspan><tspan x="322" y="150" fill="#019ba6">█</tspan><tspan x="331" y="150" fill="#019ba6">█</tspan><tspan x="341" y="150" fill="#019aa5">█</tspan><tspan x="351" y="150" fill="#019aa5">█</tspan>
<tspan x="15" y="170" fill="#028c97">█</tspan><tspan x="24" y="170" fill="#028c97">█</tspan><tspan x="34" y="170" fill="#028f9a">█</tspan><tspan x="43" y="170" fill="#028d98">█</tspan><tspan x="53" y="170" fill="#028f9a">█</tspan><tspan x="63" y="170" fill="#019ba6">█</tspan><tspan x="72" y="170" fill="#01a0ac">█</tspan><tspan x="82" y="170" fill="#01adb9">█</tspan><tspan x="91" y="170" fill="#02818c">█</tspan><tspan x="101" y="170" fill="#034d59">█</tspan><tspan x="111" y="170" fill="#028692">█</tspan><tspan x="120" y="170" fill="#027a86">█</tspan><tspan x="130" y="170" fill="#033a45">█</tspan><tspan x="139" y="170" fill="#041e29">█</tspan><tspan x="149" y="170" fill="#041a25">█</tspan><tspan x="159" y="170" fill="#041823">█</tspan><tspan x="168" y="170" fill="#04101b">█</tspan><tspan x="178" y="170" fill="#034b57">█</tspan><tspan x="187" y="170" fill="#01a0ac">█</tspan><tspan x="197" y="170" fill="#042a35">█</tspan><tspan x="207" y="170" fill="#050510">█</tspan><tspan x="216" y="170" fill="#050510">█</tspan><tspan x="226" y="170" fill="#040d18">█</tspan><tspan x="235" y="170" fill="#041f2a">█</tspan><tspan x="245" y="170" fill="#027884">█</tspan><tspan x="255" y="170" fill="#02909b">█</tspan><tspan x="264" y="170" fill="#019fab">█</tspan><tspan x="274" y="170" fill="#01a7b3">█</tspan><tspan x="283" y="170" fill="#0197a3">█</tspan><tspan x="293" y="170" fill="#0197a3">█</tspan><tspan x="303" y="170" fill="#0195a1">█</tspan><tspan x="312" y="170" fill="#02939f">█</tspan><tspan x="322" y="170" fill="#02919d">█</tspan><tspan x="331" y="170" fill="#02919c">█</tspan><tspan x="341" y="170" fill="#02919c">█</tspan><tspan x="351" y="170" fill="#02919c">█</tspan>
<tspan x="15" y="190" fill="#02919d">█</tspan><tspan x="24" y="190" fill="#02919c">█</tspan><tspan x="34" y="190" fill="#028d98">█</tspan><tspan x="43" y="190" fill="#01a3af">█</tspan><tspan x="53" y="190" fill="#01beca">█</tspan><tspan x="63" y="190" fill="#01b9c4">█</tspan><tspan x="72" y="190" fill="#01b1bd">█</tspan><tspan x="82" y="190" fill="#01adb8">█</tspan><tspan x="91" y="190" fill="#02919c">█</tspan><tspan x="101" y="190" fill="#035a66">█</tspan><tspan x="111" y="190" fill="#02929e">█</tspan><tspan x="120" y="190" fill="#028793">█</tspan><tspan x="130" y="190" fill="#019ea9">█</tspan><tspan x="139" y="190" fill="#01a2ae">█</tspan><tspan x="149" y="190" fill="#0196a2">█</tspan><tspan x="159" y="190" fill="#028793">█</tspan><tspan x="168" y="190" fill="#027d88">█</tspan><tspan x="178" y="190" fill="#01a8b4">█</tspan><tspan x="187" y="190" fill="#00e1ed">█</tspan><tspan x="197" y="190" fill="#01a8b4">█</tspan><tspan x="207" y="190" fill="#028793">█</tspan><tspan x="216" y="190" fill="#02828d">█</tspan><tspan x="226" y="190" fill="#028b96">█</tspan><tspan x="235" y="190" fill="#019aa5">█</tspan><tspan x="245" y="190" fill="#01aab5">█</tspan><tspan x="255" y="190" fill="#01a5b1">█</tspan><tspan x="264" y="190" fill="#02747f">█</tspan><tspan x="274" y="190" fill="#0197a3">█</tspan><tspan x="283" y="190" fill="#02929e">█</tspan><tspan x="293" y="190" fill="#02919c">█</tspan><tspan x="303" y="190" fill="#028f9a">█</tspan><tspan x="312" y="190" fill="#028d98">█</tspan><tspan x="322" y="190" fill="#028c97">█</tspan><tspan x="331" y="190" fill="#028c97">█</tspan><tspan x="341" y="190" fill="#028d98">█</tspan><tspan x="351" y="190" fill="#028e99">█</tspan>
<tspan x="15" y="210" fill="#01abb6">█</tspan><tspan x="24" y="210" fill="#01a6b2">█</tspan><tspan x="34" y="210" fill="#00cad6">█</tspan><tspan x="43" y="210" fill="#00eefa">█</tspan><tspan x="53" y="210" fill="#01bbc6">█</tspan><tspan x="63" y="210" fill="#01a9b4">█</tspan><tspan x="72" y="210" fill="#01a1ad">█</tspan><tspan x="82" y="210" fill="#019fab">█</tspan><tspan x="91" y="210" fill="#0197a3">█</tspan><tspan x="101" y="210" fill="#028591">█</tspan><tspan x="111" y="210" fill="#027581">█</tspan><tspan x="120" y="210" fill="#035560">█</tspan><tspan x="130" y="210" fill="#03616c">█</tspan><tspan x="139" y="210" fill="#027e89">█</tspan><tspan x="149" y="210" fill="#028591">█</tspan><tspan x="159" y="210" fill="#026874">█</tspan><tspan x="168" y="210" fill="#033d49">█</tspan><tspan x="178" y="210" fill="#033742">█</tspan><tspan x="187" y="210" fill="#03525d">█</tspan><tspan x="197" y="210" fill="#027c87">█</tspan><tspan x="207" y="210" fill="#027e89">█</tspan><tspan x="216" y="210" fill="#028b96">█</tspan><tspan x="226" y="210" fill="#01aeba">█</tspan><tspan x="235" y="210" fill="#01a3af">█</tspan><tspan x="245" y="210" fill="#01a9b4">█</tspan><tspan x="255" y="210" fill="#019faa">█</tspan><tspan x="264" y="210" fill="#01aab5">█</tspan><tspan x="274" y="210" fill="#01adb8">█</tspan><tspan x="283" y="210" fill="#028d98">█</tspan><tspan x="293" y="210" fill="#028d98">█</tspan><tspan x="303" y="210" fill="#028a96">█</tspan><tspan x="312" y="210" fill="#028e99">█</tspan><tspan x="322" y="210" fill="#02909b">█</tspan><tspan x="331" y="210" fill="#028f9a">█</tspan><tspan x="341" y="210" fill="#028b96">█</tspan><tspan x="351" y="210" fill="#028995">█</tspan>
<tspan x="15" y="230" fill="#01b7c3">█</tspan><tspan x="24" y="230" fill="#01b1bd">█</tspan><tspan x="34" y="230" fill="#00d3df">█</tspan><tspan x="43" y="230" fill="#00ecf8">█</tspan><tspan x="53" y="230" fill="#01bdc9">█</tspan><tspan x="63" y="230" fill="#01b2be">█</tspan><tspan x="72" y="230" fill="#019faa">█</tspan><tspan x="82" y="230" fill="#019ea9">█</tspan><tspan x="91" y="230" fill="#01a9b4">█</tspan><tspan x="101" y="230" fill="#01b8c3">█</tspan><tspan x="111" y="230" fill="#02707b">█</tspan><tspan x="120" y="230" fill="#034d59">█</tspan><tspan x="130" y="230" fill="#035863">█</tspan><tspan x="139" y="230" fill="#033f4b">█</tspan><tspan x="149" y="230" fill="#033944">█</tspan><tspan x="159" y="230" fill="#034e5a">█</tspan><tspan x="168" y="230" fill="#033d49">█</tspan><tspan x="178" y="230" fill="#04323d">█</tspan><tspan x="187" y="230" fill="#033944">█</tspan><tspan x="197" y="230" fill="#03626d">█</tspan><tspan x="207" y="230" fill="#026c78">█</tspan><tspan x="216" y="230" fill="#03515c">█</tspan><tspan x="226" y="230" fill="#026975">█</tspan><tspan x="235" y="230" fill="#027682">█</tspan><tspan x="245" y="230" fill="#028692">█</tspan><tspan x="255" y="230" fill="#028c97">█</tspan><tspan x="264" y="230" fill="#019ea9">█</tspan><tspan x="274" y="230" fill="#00d3df">█</tspan><tspan x="283" y="230" fill="#00c9d5">█</tspan><tspan x="293" y="230" fill="#01a1ad">█</tspan><tspan x="303" y="230" fill="#01a5b1">█</tspan><tspan x="312" y="230" fill="#02939f">█</tspan><tspan x="322" y="230" fill="#027580">█</tspan><tspan x="331" y="230" fill="#026e79">█</tspan><tspan x="341" y="230" fill="#028a96">█</tspan><tspan x="351" y="230" fill="#0195a1">█</tspan>
<tspan x="15" y="250" fill="#035d69">█</tspan><tspan x="24" y="250" fill="#026772">█</tspan><tspan x="34" y="250" fill="#00c5d1">█</tspan><tspan x="43" y="250" fill="#00f3ff">█</tspan><tspan x="53" y="250" fill="#00d9e5">█</tspan><tspan x="63" y="250" fill="#01bdc9">█</tspan><tspan x="72" y="250" fill="#00cfdb">█</tspan><tspan x="82" y="250" fill="#00dce8">█</tspan><tspan x="91" y="250" fill="#00dde9">█</tspan><tspan x="101" y="250" fill="#00d8e4">█</tspan><tspan x="111" y="250" fill="#028c97">█</tspan><tspan x="120" y="250" fill="#03535e">█</tspan><tspan x="130" y="250" fill="#034954">█</tspan><tspan x="139" y="250" fill="#034b56">█</tspan><tspan x="149" y="250" fill="#034e5a">█</tspan><tspan x="159" y="250" fill="#033944">█</tspan><tspan x="168" y="250" fill="#04303c">█</tspan><tspan x="178" y="250" fill="#033944">█</tspan><tspan x="187" y="250" fill="#034853">█</tspan><tspan x="197" y="250" fill="#035e69">█</tspan><tspan x="207" y="250" fill="#03505b">█</tspan><tspan x="216" y="250" fill="#034b57">█</tspan><tspan x="226" y="250" fill="#026b77">█</tspan><tspan x="235" y="250" fill="#019ca7">█</tspan><tspan x="245" y="250" fill="#00cdd9">█</tspan><tspan x="255" y="250" fill="#02919c">█</tspan><tspan x="264" y="250" fill="#02828d">█</tspan><tspan x="274" y="250" fill="#0199a5">█</tspan><tspan x="283" y="250" fill="#00deea">█</tspan><tspan x="293" y="250" fill="#00d4e0">█</tspan><tspan x="303" y="250" fill="#026975">█</tspan><tspan x="312" y="250" fill="#034954">█</tspan><tspan x="322" y="250" fill="#033f4b">█</tspan><tspan x="331" y="250" fill="#03444f">█</tspan><tspan x="341" y="250" fill="#034954">█</tspan><tspan x="351" y="250" fill="#03525d">█</tspan>
<tspan x="15" y="270" fill="#03404b">█</tspan><tspan x="24" y="270" fill="#01aeba">█</tspan><tspan x="34" y="270" fill="#00f3ff">█</tspan><tspan x="43" y="270" fill="#00e3ef">█</tspan><tspan x="53" y="270" fill="#00f1fd">█</tspan><tspan x="63" y="270" fill="#00e9f5">█</tspan><tspan x="72" y="270" fill="#01beca">█</tspan><tspan x="82" y="270" fill="#01b2be">█</tspan><tspan x="91" y="270" fill="#01a9b4">█</tspan><tspan x="101" y="270" fill="#035b67">█</tspan><tspan x="111" y="270" fill="#02838e">█</tspan><tspan x="120" y="270" fill="#027783">█</tspan><tspan x="130" y="270" fill="#035560">█</tspan><tspan x="139" y="270" fill="#035964">█</tspan><tspan x="149" y="270" fill="#035f6a">█</tspan><tspan x="159" y="270" fill="#03646f">█</tspan><tspan x="168" y="270" fill="#026671">█</tspan><tspan x="178" y="270" fill="#026b77">█</tspan><tspan x="187" y="270" fill="#027884">█</tspan><tspan x="197" y="270" fill="#02818c">█</tspan><tspan x="207" y="270" fill="#028995">█</tspan><tspan x="216" y="270" fill="#027783">█</tspan><tspan x="226" y="270" fill="#027783">█</tspan><tspan x="235" y="270" fill="#02747f">█</tspan><tspan x="245" y="270" fill="#00d5e1">█</tspan><tspan x="255" y="270" fill="#00edf9">█</tspan><tspan x="264" y="270" fill="#01b6c2">█</tspan><tspan x="274" y="270" fill="#02909b">█</tspan><tspan x="283" y="270" fill="#01a8b4">█</tspan><tspan x="293" y="270" fill="#00f1fd">█</tspan><tspan x="303" y="270" fill="#02727d">█</tspan><tspan x="312" y="270" fill="#033742">█</tspan><tspan x="322" y="270" fill="#034954">█</tspan><tspan x="331" y="270" fill="#034550">█</tspan><tspan x="341" y="270" fill="#033c47">█</tspan><tspan x="351" y="270" fill="#033944">█</tspan>
<tspan x="15" y="290" fill="#02929e">█</tspan><tspan x="24" y="290" fill="#00e0ec">█</tspan><tspan x="34" y="290" fill="#00f3ff">█</tspan><tspan x="43" y="290" fill="#00f3ff">█</tspan><tspan x="53" y="290" fill="#00e1ed">█</tspan><tspan x="63" y="290" fill="#00e5f0">█</tspan><tspan x="72" y="290" fill="#00deea">█</tspan><tspan x="82" y="290" fill="#00eefa">█</tspan><tspan x="91" y="290" fill="#00e3ef">█</tspan><tspan x="101" y="290" fill="#034853">█</tspan><tspan x="111" y="290" fill="#028f9a">█</tspan><tspan x="120" y="290" fill="#027e89">█</tspan><tspan x="130" y="290" fill="#03646f">█</tspan><tspan x="139" y="290" fill="#034c58">█</tspan><tspan x="149" y="290" fill="#04313c">█</tspan><tspan x="159" y="290" fill="#04242f">█</tspan><tspan x="168" y="290" fill="#042a35">█</tspan><tspan x="178" y="290" fill="#033540">█</tspan><tspan x="187" y="290" fill="#034651">█</tspan><tspan x="197" y="290" fill="#035d69">█</tspan><tspan x="207" y="290" fill="#027884">█</tspan><tspan x="216" y="290" fill="#01acb7">█</tspan><tspan x="226" y="290" fill="#027d88">█</tspan><tspan x="235" y="290" fill="#028995">█</tspan><tspan x="245" y="290" fill="#01b5c1">█</tspan><tspan x="255" y="290" fill="#00ccd8">█</tspan><tspan x="264" y="290" fill="#00f3ff">█</tspan><tspan x="274" y="290" fill="#00d1dd">█</tspan><tspan x="283" y="290" fill="#00c9d5">█</tspan><tspan x="293" y="290" fill="#00f1fd">█</tspan><tspan x="303" y="290" fill="#00dfeb">█</tspan><tspan x="312" y="290" fill="#034f5a">█</tspan><tspan x="322" y="290" fill="#033d48">█</tspan><tspan x="331" y="290" fill="#033d49">█</tspan><tspan x="341" y="290" fill="#033b46">█</tspan><tspan x="351" y="290" fill="#033a45">█</tspan>
<tspan x="15" y="310" fill="#026f7a">█</tspan><tspan x="24" y="310" fill="#01a1ad">█</tspan><tspan x="34" y="310" fill="#02919c">█</tspan><tspan x="43" y="310" fill="#01adb9">█</tspan><tspan x="53" y="310" fill="#00e0ec">█</tspan><tspan x="63" y="310" fill="#00e3ef">█</tspan><tspan x="72" y="310" fill="#00e7f3">█</tspan><tspan x="82" y="310" fill="#00f2fe">█</tspan><tspan x="91" y="310" fill="#00f3ff">█</tspan><tspan x="101" y="310" fill="#02929e">█</tspan><tspan x="111" y="310" fill="#02808b">█</tspan><tspan x="120" y="310" fill="#027985">█</tspan><tspan x="130" y="310" fill="#026d78">█</tspan><tspan x="139" y="310" fill="#03646f">█</tspan><tspan x="149" y="310" fill="#03515c">█</tspan><tspan x="159" y="310" fill="#033540">█</tspan><tspan x="168" y="310" fill="#042a35">█</tspan><tspan x="178" y="310" fill="#033b46">█</tspan><tspan x="187" y="310" fill="#026a76">█</tspan><tspan x="197" y="310" fill="#0195a1">█</tspan><tspan x="207" y="310" fill="#01a5b1">█</tspan><tspan x="216" y="310" fill="#028995">█</tspan><tspan x="226" y="310" fill="#033c47">█</tspan><tspan x="235" y="310" fill="#00dce8">█</tspan><tspan x="245" y="310" fill="#00f3ff">█</tspan><tspan x="255" y="310" fill="#00e5f0">█</tspan><tspan x="264" y="310" fill="#00f2fe">█</tspan><tspan x="274" y="310" fill="#00f3ff">█</tspan><tspan x="283" y="310" fill="#00f3ff">█</tspan><tspan x="293" y="310" fill="#00f3ff">█</tspan><tspan x="303" y="310" fill="#00effb">█</tspan><tspan x="312" y="310" fill="#03646f">█</tspan><tspan x="322" y="310" fill="#033c47">█</tspan><tspan x="331" y="310" fill="#03424d">█</tspan><tspan x="341" y="310" fill="#033f4b">█</tspan><tspan x="351" y="310" fill="#033e4a">█</tspan>
<tspan x="15" y="330" fill="#027e89">█</tspan><tspan x="24" y="330" fill="#03626d">█</tspan><tspan x="34" y="330" fill="#04323d">█</tspan><tspan x="43" y="330" fill="#040510">█</tspan><tspan x="53" y="330" fill="#041f2a">█</tspan><tspan x="63" y="330" fill="#034c58">█</tspan><tspan x="72" y="330" fill="#03646f">█</tspan><tspan x="82" y="330" fill="#028b96">█</tspan><tspan x="91" y="330" fill="#01bbc6">█</tspan><tspan x="101" y="330" fill="#00d9e5">█</tspan><tspan x="111" y="330" fill="#00ccd8">█</tspan><tspan x="120" y="330" fill="#019da8">█</tspan><tspan x="130" y="330" fill="#026b77">█</tspan><tspan x="139" y="330" fill="#035e69">█</tspan><tspan x="149" y="330" fill="#026773">█</tspan><tspan x="159" y="330" fill="#026671">█</tspan><tspan x="168" y="330" fill="#03626d">█</tspan><tspan x="178" y="330" fill="#027884">█</tspan><tspan x="187" y="330" fill="#028c97">█</tspan><tspan x="197" y="330" fill="#028894">█</tspan><tspan x="207" y="330" fill="#02919c">█</tspan><tspan x="216" y="330" fill="#01b0bc">█</tspan><tspan x="226" y="330" fill="#00dae6">█</tspan><tspan x="235" y="330" fill="#00f3ff">█</tspan><tspan x="245" y="330" fill="#00f3ff">█</tspan><tspan x="255" y="330" fill="#00f3ff">█</tspan><tspan x="264" y="330" fill="#00edf9">█</tspan><tspan x="274" y="330" fill="#00e2ee">█</tspan><tspan x="283" y="330" fill="#00c9d4">█</tspan><tspan x="293" y="330" fill="#019ea9">█</tspan><tspan x="303" y="330" fill="#027f8a">█</tspan><tspan x="312" y="330" fill="#026a76">█</tspan><tspan x="322" y="330" fill="#03434e">█</tspan><tspan x="331" y="330" fill="#033742">█</tspan><tspan x="341" y="330" fill="#033b46">█</tspan><tspan x="351" y="330" fill="#03414c">█</tspan>
<tspan x="15" y="350" fill="#034550">█</tspan><tspan x="24" y="350" fill="#041d28">█</tspan><tspan x="34" y="350" fill="#03404b">█</tspan><tspan x="43" y="350" fill="#033944">█</tspan><tspan x="53" y="350" fill="#050510">█</tspan><tspan x="63" y="350" fill="#050510">█</tspan><tspan x="72" y="350" fill="#040b16">█</tspan><tspan x="82" y="350" fill="#042f3b">█</tspan><tspan x="91" y="350" fill="#027a86">█</tspan><tspan x="101" y="350" fill="#01abb6">█</tspan><tspan x="111" y="350" fill="#00c7d2">█</tspan><tspan x="120" y="350" fill="#00dce8">█</tspan><tspan x="130" y="350" fill="#00ccd8">█</tspan><tspan x="139" y="350" fill="#0195a1">█</tspan><tspan x="149" y="350" fill="#026671">█</tspan><tspan x="159" y="350" fill="#03646f">█</tspan><tspan x="168" y="350" fill="#02808b">█</tspan><tspan x="178" y="350" fill="#0199a5">█</tspan><tspan x="187" y="350" fill="#01a4b0">█</tspan><tspan x="197" y="350" fill="#01adb9">█</tspan><tspan x="207" y="350" fill="#00cfdb">█</tspan><tspan x="216" y="350" fill="#00d2de">█</tspan><tspan x="226" y="350" fill="#01b4c0">█</tspan><tspan x="235" y="350" fill="#02909b">█</tspan><tspan x="245" y="350" fill="#027985">█</tspan><tspan x="255" y="350" fill="#026c78">█</tspan><tspan x="264" y="350" fill="#035964">█</tspan><tspan x="274" y="350" fill="#034b56">█</tspan><tspan x="283" y="350" fill="#034c58">█</tspan><tspan x="293" y="350" fill="#035c68">█</tspan><tspan x="303" y="350" fill="#03424d">█</tspan><tspan x="312" y="350" fill="#03646f">█</tspan><tspan x="322" y="350" fill="#028a96">█</tspan><tspan x="331" y="350" fill="#027682">█</tspan><tspan x="341" y="350" fill="#035762">█</tspan><tspan x="351" y="350" fill="#033d49">█</tspan>
<tspan x="15" y="370" fill="#033742">█</tspan><tspan x="24" y="370" fill="#042a35">█</tspan><tspan x="34" y="370" fill="#034c58">█</tspan><tspan x="43" y="370" fill="#035f6a">█</tspan><tspan x="53" y="370" fill="#042732">█</tspan><tspan x="63" y="370" fill="#041520">█</tspan><tspan x="72" y="370" fill="#04212d">█</tspan><tspan x="82" y="370" fill="#041a25">█</tspan><tspan x="91" y="370" fill="#041722">█</tspan><tspan x="101" y="370" fill="#034b57">█</tspan><tspan x="111" y="370" fill="#0196a2">█</tspan><tspan x="120" y="370" fill="#00c4d0">█</tspan><tspan x="130" y="370" fill="#00eaf6">█</tspan><tspan x="139" y="370" fill="#00f3ff">█</tspan><tspan x="149" y="370" fill="#00cad6">█</tspan><tspan x="159" y="370" fill="#0194a0">█</tspan><tspan x="168" y="370" fill="#019ca7">█</tspan><tspan x="178" y="370" fill="#0194a0">█</tspan><tspan x="187" y="370" fill="#028b96">█</tspan><tspan x="197" y="370" fill="#035d69">█</tspan><tspan x="207" y="370" fill="#042d38">█</tspan><tspan x="216" y="370" fill="#041621">█</tspan><tspan x="226" y="370" fill="#040914">█</tspan><tspan x="235" y="370" fill="#040a15">█</tspan><tspan x="245" y="370" fill="#041c27">█</tspan><tspan x="255" y="370" fill="#042e39">█</tspan><tspan x="264" y="370" fill="#033d49">█</tspan><tspan x="274" y="370" fill="#033d49">█</tspan><tspan x="283" y="370" fill="#042c37">█</tspan><tspan x="293" y="370" fill="#03626d">█</tspan><tspan x="303" y="370" fill="#034752">█</tspan><tspan x="312" y="370" fill="#04343f">█</tspan><tspan x="322" y="370" fill="#026874">█</tspan><tspan x="331" y="370" fill="#027e89">█</tspan><tspan x="341" y="370" fill="#0197a3">█</tspan><tspan x="351" y="370" fill="#028e99">█</tspan>
<tspan x="15" y="390" fill="#034b57">█</tspan><tspan x="24" y="390" fill="#03404b">█</tspan><tspan x="34" y="390" fill="#035b67">█</tspan><tspan x="43" y="390" fill="#026570">█</tspan><tspan x="53" y="390" fill="#034853">█</tspan><tspan x="63" y="390" fill="#033742">█</tspan><tspan x="72" y="390" fill="#033540">█</tspan><tspan x="82" y="390" fill="#042c37">█</tspan><tspan x="91" y="390" fill="#041520">█</tspan><tspan x="101" y="390" fill="#040510">█</tspan><tspan x="111" y="390" fill="#040611">█</tspan><tspan x="120" y="390" fill="#04323d">█</tspan><tspan x="130" y="390" fill="#02818c">█</tspan><tspan x="139" y="390" fill="#00c9d4">█</tspan><tspan x="149" y="390" fill="#00e3ef">█</tspan><tspan x="159" y="390" fill="#01a6b2">█</tspan><tspan x="168" y="390" fill="#019aa5">█</tspan><tspan x="178" y="390" fill="#02929e">█</tspan><tspan x="187" y="390" fill="#03545f">█</tspan><tspan x="197" y="390" fill="#040e19">█</tspan><tspan x="207" y="390" fill="#041924">█</tspan><tspan x="216" y="390" fill="#042732">█</tspan><tspan x="226" y="390" fill="#042f3a">█</tspan><tspan x="235" y="390" fill="#042f3b">█</tspan><tspan x="245" y="390" fill="#042934">█</tspan><tspan x="255" y="390" fill="#026a76">█</tspan><tspan x="264" y="390" fill="#02717c">█</tspan><tspan x="274" y="390" fill="#026570">█</tspan><tspan x="283" y="390" fill="#041e29">█</tspan><tspan x="293" y="390" fill="#033d48">█</tspan><tspan x="303" y="390" fill="#03434e">█</tspan><tspan x="312" y="390" fill="#041924">█</tspan><tspan x="322" y="390" fill="#042e39">█</tspan><tspan x="331" y="390" fill="#034c58">█</tspan><tspan x="341" y="390" fill="#03646f">█</tspan><tspan x="351" y="390" fill="#019ca7">█</tspan>
<tspan x="15" y="410" fill="#03444f">█</tspan><tspan x="24" y="410" fill="#034651">█</tspan><tspan x="34" y="410" fill="#026b77">█</tspan><tspan x="43" y="410" fill="#03626d">█</tspan><tspan x="53" y="410" fill="#035964">█</tspan><tspan x="63" y="410" fill="#034c58">█</tspan><tspan x="72" y="410" fill="#033b46">█</tspan><tspan x="82" y="410" fill="#033843">█</tspan><tspan x="91" y="410" fill="#033f4b">█</tspan><tspan x="101" y="410" fill="#03404b">█</tspan><tspan x="111" y="410" fill="#042f3b">█</tspan><tspan x="120" y="410" fill="#041722">█</tspan><tspan x="130" y="410" fill="#040611">█</tspan><tspan x="139" y="410" fill="#04242f">█</tspan><tspan x="149" y="410" fill="#02929e">█</tspan><tspan x="159" y="410" fill="#00e8f4">█</tspan><tspan x="168" y="410" fill="#00c5d1">█</tspan><tspan x="178" y="410" fill="#03646f">█</tspan><tspan x="187" y="410" fill="#042a35">█</tspan><tspan x="197" y="410" fill="#04323d">█</tspan><tspan x="207" y="410" fill="#033e4a">█</tspan><tspan x="216" y="410" fill="#034853">█</tspan><tspan x="226" y="410" fill="#03525d">█</tspan><tspan x="235" y="410" fill="#035965">█</tspan><tspan x="245" y="410" fill="#04303c">█</tspan><tspan x="255" y="410" fill="#035d69">█</tspan><tspan x="264" y="410" fill="#027581">█</tspan><tspan x="274" y="410" fill="#028793">█</tspan><tspan x="283" y="410" fill="#042b36">█</tspan><tspan x="293" y="410" fill="#042732">█</tspan><tspan x="303" y="410" fill="#042f3b">█</tspan><tspan x="312" y="410" fill="#041520">█</tspan><tspan x="322" y="410" fill="#04121d">█</tspan><tspan x="331" y="410" fill="#042b36">█</tspan><tspan x="341" y="410" fill="#033641">█</tspan><tspan x="351" y="410" fill="#035e69">█</tspan>
<tspan x="15" y="430" fill="#03404b">█</tspan><tspan x="24" y="430" fill="#035560">█</tspan><tspan x="34" y="430" fill="#026b77">█</tspan><tspan x="43" y="430" fill="#03626d">█</tspan><tspan x="53" y="430" fill="#03626d">█</tspan><tspan x="63" y="430" fill="#035964">█</tspan><tspan x="72" y="430" fill="#033d49">█</tspan><tspan x="82" y="430" fill="#033e4a">█</tspan><tspan x="91" y="430" fill="#03444f">█</tspan><tspan x="101" y="430" fill="#034d59">█</tspan><tspan x="111" y="430" fill="#034d59">█</tspan><tspan x="120" y="430" fill="#034b56">█</tspan><tspan x="130" y="430" fill="#03444f">█</tspan><tspan x="139" y="430" fill="#042732">█</tspan><tspan x="149" y="430" fill="#033843">█</tspan><tspan x="159" y="430" fill="#028692">█</tspan><tspan x="168" y="430" fill="#034b56">█</tspan><tspan x="178" y="430" fill="#033843">█</tspan><tspan x="187" y="430" fill="#034c58">█</tspan><tspan x="197" y="430" fill="#035560">█</tspan><tspan x="207" y="430" fill="#035661">█</tspan><tspan x="216" y="430" fill="#035661">█</tspan><tspan x="226" y="430" fill="#035965">█</tspan><tspan x="235" y="430" fill="#035f6a">█</tspan><tspan x="245" y="430" fill="#033e4a">█</tspan><tspan x="255" y="430" fill="#034954">█</tspan><tspan x="264" y="430" fill="#026975">█</tspan><tspan x="274" y="430" fill="#027f8a">█</tspan><tspan x="283" y="430" fill="#035f6a">█</tspan><tspan x="293" y="430" fill="#041a25">█</tspan><tspan x="303" y="430" fill="#042a35">█</tspan><tspan x="312" y="430" fill="#042732">█</tspan><tspan x="322" y="430" fill="#041722">█</tspan><tspan x="331" y="430" fill="#041924">█</tspan><tspan x="341" y="430" fill="#042934">█</tspan><tspan x="351" y="430" fill="#04323d">█</tspan>
<tspan x="15" y="450" fill="#04202b">█</tspan><tspan x="24" y="450" fill="#035762">█</tspan><tspan x="34" y="450" fill="#035964">█</tspan><tspan x="43" y="450" fill="#03626d">█</tspan><tspan x="53" y="450" fill="#026772">█</tspan><tspan x="63" y="450" fill="#03636e">█</tspan><tspan x="72" y="450" fill="#033e4a">█</tspan><tspan x="82" y="450" fill="#03414c">█</tspan><tspan x="91" y="450" fill="#034b56">█</tspan><tspan x="101" y="450" fill="#034d59">█</tspan><tspan x="111" y="450" fill="#034d59">█</tspan><tspan x="120" y="450" fill="#034b57">█</tspan><tspan x="130" y="450" fill="#034b57">█</tspan><tspan x="139" y="450" fill="#03444f">█</tspan><tspan x="149" y="450" fill="#034550">█</tspan><tspan x="159" y="450" fill="#027581">█</tspan><tspan x="168" y="450" fill="#03505b">█</tspan><tspan x="178" y="450" fill="#03505b">█</tspan><tspan x="187" y="450" fill="#03545f">█</tspan><tspan x="197" y="450" fill="#035964">█</tspan><tspan x="207" y="450" fill="#035b67">█</tspan><tspan x="216" y="450" fill="#035d69">█</tspan><tspan x="226" y="450" fill="#03626d">█</tspan><tspan x="235" y="450" fill="#026570">█</tspan><tspan x="245" y="450" fill="#03545f">█</tspan><tspan x="255" y="450" fill="#03414c">█</tspan><tspan x="264" y="450" fill="#026975">█</tspan><tspan x="274" y="450" fill="#026772">█</tspan><tspan x="283" y="450" fill="#028b96">█</tspan><tspan x="293" y="450" fill="#034d59">█</tspan><tspan x="303" y="450" fill="#040f1a">█</tspan><tspan x="312" y="450" fill="#041823">█</tspan><tspan x="322" y="450" fill="#040914">█</tspan><tspan x="331" y="450" fill="#040b16">█</tspan><tspan x="341" y="450" fill="#04242f">█</tspan><tspan x="351" y="450" fill="#034c58">█</tspan>
<tspan x="15" y="470" fill="#035c68">█</tspan><tspan x="24" y="470" fill="#034f5a">█</tspan><tspan x="34" y="470" fill="#034b57">█</tspan><tspan x="43" y="470" fill="#035d69">█</tspan><tspan x="53" y="470" fill="#026671">█</tspan><tspan x="63" y="470" fill="#026772">█</tspan><tspan x="72" y="470" fill="#03424d">█</tspan><tspan x="82" y="470" fill="#034651">█</tspan><tspan x="91" y="470" fill="#034c58">█</tspan><tspan x="101" y="470" fill="#034c58">█</tspan><tspan x="111" y="470" fill="#034c58">█</tspan><tspan x="120" y="470" fill="#034b56">█</tspan><tspan x="130" y="470" fill="#034752">█</tspan><tspan x="139" y="470" fill="#034651">█</tspan><tspan x="149" y="470" fill="#03404b">█</tspan><tspan x="159" y="470" fill="#026773">█</tspan><tspan x="168" y="470" fill="#03515c">█</tspan><tspan x="178" y="470" fill="#034b56">█</tspan><tspan x="187" y="470" fill="#034e5a">█</tspan><tspan x="197" y="470" fill="#035661">█</tspan><tspan x="207" y="470" fill="#035e69">█</tspan><tspan x="216" y="470" fill="#03626d">█</tspan><tspan x="226" y="470" fill="#026772">█</tspan><tspan x="235" y="470" fill="#026874">█</tspan><tspan x="245" y="470" fill="#026d78">█</tspan><tspan x="255" y="470" fill="#034954">█</tspan><tspan x="264" y="470" fill="#026772">█</tspan><tspan x="274" y="470" fill="#027f8a">█</tspan><tspan x="283" y="470" fill="#027580">█</tspan><tspan x="293" y="470" fill="#027a86">█</tspan><tspan x="303" y="470" fill="#041f2a">█</tspan><tspan x="312" y="470" fill="#041924">█</tspan><tspan x="322" y="470" fill="#04111c">█</tspan><tspan x="331" y="470" fill="#040b16">█</tspan><tspan x="341" y="470" fill="#041924">█</tspan><tspan x="351" y="470" fill="#034550">█</tspan>
<tspan x="15" y="490" fill="#03515c">█</tspan><tspan x="24" y="490" fill="#033d48">█</tspan><tspan x="34" y="490" fill="#034651">█</tspan><tspan x="43" y="490" fill="#035661">█</tspan><tspan x="53" y="490" fill="#03636e">█</tspan><tspan x="63" y="490" fill="#026671">█</tspan><tspan x="72" y="490" fill="#034752">█</tspan><tspan x="82" y="490" fill="#03505b">█</tspan><tspan x="91" y="490" fill="#034c58">█</tspan><tspan x="101" y="490" fill="#034e5a">█</tspan><tspan x="111" y="490" fill="#034b57">█</tspan><tspan x="120" y="490" fill="#034752">█</tspan><tspan x="130" y="490" fill="#03444f">█</tspan><tspan x="139" y="490" fill="#034550">█</tspan><tspan x="149" y="490" fill="#03404b">█</tspan><tspan x="159" y="490" fill="#035d69">█</tspan><tspan x="168" y="490" fill="#03525d">█</tspan><tspan x="178" y="490" fill="#034853">█</tspan><tspan x="187" y="490" fill="#033f4b">█</tspan><tspan x="197" y="490" fill="#03434e">█</tspan><tspan x="207" y="490" fill="#034d59">█</tspan><tspan x="216" y="490" fill="#035762">█</tspan><tspan x="226" y="490" fill="#035d69">█</tspan><tspan x="235" y="490" fill="#03616c">█</tspan><tspan x="245" y="490" fill="#03626d">█</tspan><tspan x="255" y="490" fill="#035762">█</tspan><tspan x="264" y="490" fill="#03535e">█</tspan><tspan x="274" y="490" fill="#027a86">█</tspan><tspan x="283" y="490" fill="#035964">█</tspan><tspan x="293" y="490" fill="#034c58">█</tspan><tspan x="303" y="490" fill="#042e39">█</tspan><tspan x="312" y="490" fill="#040a15">█</tspan><tspan x="322" y="490" fill="#040813">█</tspan><tspan x="331" y="490" fill="#050510">█</tspan><tspan x="341" y="490" fill="#041b26">█</tspan><tspan x="351" y="490" fill="#03414c">█</tspan>
<tspan x="15" y="510" fill="#034651">█</tspan><tspan x="24" y="510" fill="#033944">█</tspan><tspan x="34" y="510" fill="#033d49">█</tspan><tspan x="43" y="510" fill="#03525d">█</tspan><tspan x="53" y="510" fill="#035e69">█</tspan><tspan x="63" y="510" fill="#026772">█</tspan><tspan x="72" y="510" fill="#034752">█</tspan><tspan x="82" y="510" fill="#03505b">█</tspan><tspan x="91" y="510" fill="#034d59">█</tspan><tspan x="101" y="510" fill="#034b56">█</tspan><tspan x="111" y="510" fill="#034752">█</tspan><tspan x="120" y="510" fill="#034853">█</tspan><tspan x="130" y="510" fill="#034a55">█</tspan><tspan x="139" y="510" fill="#034853">█</tspan><tspan x="149" y="510" fill="#033e4a">█</tspan><tspan x="159" y="510" fill="#03545f">█</tspan><tspan x="168" y="510" fill="#03505b">█</tspan><tspan x="178" y="510" fill="#034954">█</tspan><tspan x="187" y="510" fill="#033d49">█</tspan><tspan x="197" y="510" fill="#033944">█</tspan><tspan x="207" y="510" fill="#033e4a">█</tspan><tspan x="216" y="510" fill="#034651">█</tspan><tspan x="226" y="510" fill="#034b56">█</tspan><tspan x="235" y="510" fill="#03505b">█</tspan><tspan x="245" y="510" fill="#03515c">█</tspan><tspan x="255" y="510" fill="#034954">█</tspan><tspan x="264" y="510" fill="#033a45">█</tspan><tspan x="274" y="510" fill="#027a86">█</tspan><tspan x="283" y="510" fill="#028995">█</tspan><tspan x="293" y="510" fill="#028a96">█</tspan><tspan x="303" y="510" fill="#04303c">█</tspan><tspan x="312" y="510" fill="#040a15">█</tspan><tspan x="322" y="510" fill="#040813">█</tspan><tspan x="331" y="510" fill="#041722">█</tspan><tspan x="341" y="510" fill="#042e39">█</tspan><tspan x="351" y="510" fill="#04333e">█</tspan>
</text>
<text x="390" y="30" fill="#e0f7ff" filter="url(#darkGlow)">
<tspan x="390" y="30" fill="#4a5568">nikita@dronov -————————————————————————————————————————————————————————-</tspan><tspan x="390" y="50"><tspan fill="#4a5568">. </tspan><tspan fill="#00f3ff">OS</tspan><tspan fill="#4a5568">: </tspan><tspan fill="#4a5568">..............................</tspan><tspan fill="#ff2a6d"> Linux, macOS, Windows</tspan></tspan><tspan x="390" y="70"><tspan fill="#4a5568">. </tspan><tspan fill="#00f3ff">Uptime</tspan><tspan fill="#4a5568">: </tspan><tspan fill="#4a5568">..................................</tspan><tspan fill="#ff2a6d"> 3 years in IT</tspan></tspan><tspan x="390" y="90"><tspan fill="#4a5568">. </tspan><tspan fill="#00f3ff">Host</tspan><tspan fill="#4a5568">: </tspan><tspan fill="#4a5568">.................................</tspan><tspan fill="#ff2a6d"> Ingosstrakh Bank</tspan></tspan><tspan x="390" y="110"><tspan fill="#4a5568">. </tspan><tspan fill="#00f3ff">Kernel</tspan><tspan fill="#4a5568">: </tspan><tspan fill="#4a5568">.............</tspan><tspan fill="#ff2a6d"> Lead Expert, Test Automation Group</tspan></tspan><tspan x="390" y="130"><tspan fill="#4a5568">. </tspan><tspan fill="#00f3ff">IDE</tspan><tspan fill="#4a5568">: </tspan><tspan fill="#4a5568">...................................</tspan><tspan fill="#ff2a6d"> PyCharm, VSCode</tspan></tspan><tspan x="390" y="150" fill="#4a5568">. </tspan><tspan x="390" y="170"><tspan fill="#4a5568">. </tspan><tspan fill="#00f3ff">Languages.Programming</tspan><tspan fill="#4a5568">: </tspan><tspan fill="#4a5568">..........</tspan><tspan fill="#ff2a6d"> Python, SQL, HTML, CSS</tspan></tspan><tspan x="390" y="190"><tspan fill="#4a5568">. </tspan><tspan fill="#00f3ff">Languages.Computer</tspan><tspan fill="#4a5568">: </tspan><tspan fill="#4a5568">........</tspan><tspan fill="#ff2a6d"> JSON, YAML, Shell, Markdown</tspan></tspan><tspan x="390" y="210"><tspan fill="#4a5568">. </tspan><tspan fill="#00f3ff">Languages.Real</tspan><tspan fill="#4a5568">: </tspan><tspan fill="#4a5568">...........</tspan><tspan fill="#ff2a6d"> RU native / EN B1 / ES A1-A2</tspan></tspan><tspan x="390" y="230" fill="#4a5568">. </tspan><tspan x="390" y="250"><tspan fill="#4a5568">. </tspan><tspan fill="#00f3ff">Hobbies.Software</tspan><tspan fill="#4a5568">: </tspan><tspan fill="#4a5568">...</tspan><tspan fill="#ff2a6d"> Test Automation, Microservices, Open Source</tspan></tspan><tspan x="390" y="270"><tspan fill="#4a5568">. </tspan><tspan fill="#00f3ff">Hobbies.Hardware</tspan><tspan fill="#4a5568">: </tspan><tspan fill="#4a5568">....................................</tspan><tspan fill="#ff2a6d"> —</tspan></tspan><tspan x="390" y="310" fill="#4a5568">- Contact &amp; Links ——————————————————————————————————————————-</tspan><tspan x="390" y="330"><tspan fill="#4a5568">. </tspan><tspan fill="#00f3ff">Email.Personal</tspan><tspan fill="#4a5568">: </tspan><tspan fill="#4a5568">..............</tspan><tspan fill="#ff2a6d"> nikita.dronov.a@gmail.com</tspan></tspan><tspan x="390" y="350"><tspan fill="#4a5568">. </tspan><tspan fill="#00f3ff">Telegram</tspan><tspan fill="#4a5568">: </tspan><tspan fill="#4a5568">.....................................</tspan><tspan fill="#ff2a6d"> @drnvvna</tspan></tspan><tspan x="390" y="370"><tspan fill="#4a5568">. </tspan><tspan fill="#00f3ff">GitHub</tspan><tspan fill="#4a5568">: </tspan><tspan fill="#4a5568">.......................................</tspan><tspan fill="#ff2a6d"> DronovNA</tspan></tspan><tspan x="390" y="390"><tspan fill="#4a5568">. </tspan><tspan fill="#00f3ff">LinkedIn</tspan><tspan fill="#4a5568">: </tspan><tspan fill="#4a5568">.....</tspan><tspan fill="#ff2a6d"> linkedin.com/in/nikita-dronov-automation</tspan></tspan><tspan x="390" y="410"><tspan fill="#4a5568">. </tspan><tspan fill="#00f3ff">Product</tspan><tspan fill="#4a5568">: </tspan><tspan fill="#4a5568">.........................</tspan><tspan fill="#ff2a6d"> app.pairlingua.online</tspan></tspan><tspan x="390" y="450" fill="#4a5568">- GitHub Stats ————————————————————————————————————————————————-</tspan><tspan x="390" y="470"><tspan fill="#4a5568">. Repos: </tspan><tspan fill="#ff2a6d">8</tspan><tspan fill="#4a5568"> {</tspan><tspan fill="#00f3ff">Contributed</tspan><tspan fill="#4a5568">: </tspan><tspan fill="#ff2a6d">8</tspan><tspan fill="#4a5568">} | Stars: </tspan><tspan fill="#ff2a6d">0</tspan></tspan><tspan x="390" y="490"><tspan fill="#4a5568">. Commits: </tspan><tspan fill="#ff2a6d">86</tspan><tspan fill="#4a5568"> | Followers: </tspan><tspan fill="#ff2a6d">3</tspan></tspan><tspan x="390" y="510"><tspan fill="#4a5568">. Lines of Code on GitHub: </tspan><tspan fill="#ff2a6d">5,912</tspan><tspan fill="#4a5568"> ( </tspan><tspan fill="#00ff9d">6,660++</tspan><tspan fill="#4a5568">, </tspan><tspan fill="#ff003c">748--</tspan><tspan fill="#4a5568"> )</tspan></tspan>
</text>
</svg>