<?xml version='1.0' encoding='UTF-8'?>
<svg xmlns="http://www.w3.org/2000/svg" font-family="ConsolasFallback,Consolas,monospace" width="985px" height="530px" font-size="16px">
<defs>
<font-face>
<font-face-src>
<font-face-uri src="local('Consolas')"/>
</font-face-src>
</font-face>
<radialGradient id="lightBg" cx="50%" cy="30%" r="90%">
<stop offset="0%" stop-color="#e0f7ff"/>
<stop offset="100%" stop-color="#f0faff"/>
</radialGradient>
<filter id="lightGlow" x="-20%" y="-20%" width="140%" height="140%">
<feGaussianBlur stdDeviation="1.5" result="blur"/>
<feMerge>
<feMergeNode in="blur"/>
<feMergeNode in="SourceGraphic"/>
</feMerge>
</filter>
</defs>
<rect width="985px" height="530px" fill="url(#lightBg)" rx="15"/>
<text x="15" y="30" font-family="ConsolasFallback,Consolas,monospace" font-size="16px" filter="url(#lightGlow)">

<tspan x="139" y="50" fill="#1f4046">█</tspan><tspan x="149" y="50" fill="#25667a">█</tspan><tspan x="159" y="50" fill="#24799e">█</tspan><tspan x="168" y="50" fill="#1e7ba4">█</tspan><tspan x="178" y="50" fill="#2276a2">█</tspan><tspan x="187" y="50" fill="#6b2f80">█</tspan><tspan x="197" y="50" fill="#742575">█</tspan><tspan x="207" y="50" fill="#732973">█</tspan><tspan x="216" y="50" fill="#732869">█</tspan><tspan x="226" y="50" fill="#4b2240">█</tspan>
<tspan x="120" y="70" fill="#2a5157">█</tspan><tspan x="130" y="70" fill="#348aab">█</tspan><tspan x="139" y="70" fill="#1d85b7">█</tspan><tspan x="149" y="70" fill="#0b629b">█</tspan><tspan x="159" y="70" fill="#014680">█</tspan><tspan x="168" y="70" fill="#003768">█</tspan><tspan x="178" y="70" fill="#072e66">█</tspan><tspan x="187" y="70" fill="#0a0e40">█</tspan><tspan x="197" y="70" fill="#00072e">█</tspan><tspan x="207" y="70" fill="#0b0b3a">█</tspan><tspan x="216" y="70" fill="#3b115e">█</tspan><tspan x="226" y="70" fill="#6e1d74">█</tspan><tspan x="235" y="70" fill="#893680">█</tspan><tspan x="245" y="70" fill="#603254">█</tspan>
<tspan x="111" y="90" fill="#36707a">█</tspan><tspan x="120" y="90" fill="#2c93b7">█</tspan><tspan x="130" y="90" fill="#002951">█</tspan><tspan x="139" y="90" fill="#000822">█</tspan><tspan x="178" y="90" fill="#060822">█</tspan><tspan x="235" y="90" fill="#190021">█</tspan><tspan x="245" y="90" fill="#842780">█</tspan><tspan x="255" y="90" fill="#7c3d6d">█</tspan>
<tspan x="101" y="110" fill="#17353c">█</tspan><tspan x="111" y="110" fill="#41afcb">█</tspan><tspan x="120" y="110" fill="#002342">█</tspan><tspan x="130" y="110" fill="#131920">█</tspan><tspan x="139" y="110" fill="#757877">█</tspan><tspan x="149" y="110" fill="#929897">█</tspan><tspan x="159" y="110" fill="#494f53">█</tspan><tspan x="207" y="110" fill="#493f45">█</tspan><tspan x="216" y="110" fill="#979394">█</tspan><tspan x="226" y="110" fill="#838080">█</tspan><tspan x="235" y="110" fill="#231920">█</tspan><tspan x="245" y="110" fill="#1e001f">█</tspan><tspan x="255" y="110" fill="#b64aa9">█</tspan><tspan x="264" y="110" fill="#3f2134">█</tspan>
<tspan x="101" y="130" fill="#306c78">█</tspan><tspan x="111" y="130" fill="#27839f">█</tspan><tspan x="130" y="130" fill="#a79f9d">█</tspan><tspan x="139" y="130" fill="#fffcff">█</tspan><tspan x="149" y="130" fill="#7d7c86">█</tspan><tspan x="159" y="130" fill="#888c9c">█</tspan><tspan x="168" y="130" fill="#26233a">█</tspan><tspan x="197" y="130" fill="#201431">█</tspan><tspan x="207" y="130" fill="#87899b">█</tspan><tspan x="216" y="130" fill="#7c8186">█</tspan><tspan x="226" y="130" fill="#eef3f4">█</tspan><tspan x="235" y="130" fill="#b8beb8">█</tspan><tspan x="255" y="130" fill="#9e2692">█</tspan><tspan x="264" y="130" fill="#783b68">█</tspan>
<tspan x="101" y="150" fill="#265660">█</tspan><tspan x="111" y="150" fill="#2f8da2">█</tspan><tspan x="130" y="150" fill="#687374">█</tspan><tspan x="139" y="150" fill="#cce7db">█</tspan><tspan x="149" y="150" fill="#2f4f30">█</tspan><tspan x="159" y="150" fill="#69913c">█</tspan><tspan x="168" y="150" fill="#d6ce48">█</tspan><tspan x="178" y="150" fill="#e7d32c">█</tspan><tspan x="187" y="150" fill="#e8d02d">█</tspan><tspan x="197" y="150" fill="#e0c047">█</tspan><tspan x="207" y="150" fill="#9e7744">█</tspan><tspan x="216" y="150" fill="#4f2e2e">█</tspan><tspan x="226" y="150" fill="#dec7d2">█</tspan><tspan x="235" y="150" fill="#877e89">█</tspan><tspan x="255" y="150" fill="#8b2b7b">█</tspan><tspan x="264" y="150" fill="#633255">█</tspan>
<tspan x="91" y="170" fill="#011a1b">█</tspan><tspan x="101" y="170" fill="#0f252c">█</tspan><tspan x="111" y="170" fill="#45b9cc">█</tspan><tspan x="120" y="170" fill="#001e2d">█</tspan><tspan x="130" y="170" fill="#75b757">█</tspan><tspan x="139" y="170" fill="#c5d723">█</tspan><tspan x="149" y="170" fill="#f6ff23">█</tspan><tspan x="159" y="170" fill="#ffff04">█</tspan><tspan x="168" y="170" fill="#ffff00">█</tspan><tspan x="178" y="170" fill="#ffff00">█</tspan><tspan x="187" y="170" fill="#ffff00">█</tspan><tspan x="197" y="170" fill="#ffff00">█</tspan><tspan x="207" y="170" fill="#ffff00">█</tspan><tspan x="216" y="170" fill="#fff520">█</tspan><tspan x="226" y="170" fill="#ddbc20">█</tspan><tspan x="235" y="170" fill="#c18358">█</tspan><tspan x="245" y="170" fill="#230326">█</tspan><tspan x="255" y="170" fill="#b3439f">█</tspan><tspan x="264" y="170" fill="#261a1e">█</tspan><tspan x="274" y="170" fill="#2c012a">█</tspan><tspan x="283" y="170" fill="#370230">█</tspan>
<tspan x="101" y="190" fill="#388591">█</tspan><tspan x="111" y="190" fill="#2b859e">█</tspan><tspan x="130" y="190" fill="#1a3b26">█</tspan><tspan x="139" y="190" fill="#3a6b34">█</tspan><tspan x="149" y="190" fill="#648c30">█</tspan><tspan x="159" y="190" fill="#95b439">█</tspan><tspan x="168" y="190" fill="#b7be2d">█</tspan><tspan x="178" y="190" fill="#c8c623">█</tspan><tspan x="187" y="190" fill="#dd9821">█</tspan><tspan x="197" y="190" fill="#dd832a">█</tspan><tspan x="207" y="190" fill="#ca6836">█</tspan><tspan x="216" y="190" fill="#974b2f">█</tspan><tspan x="226" y="190" fill="#70312a">█</tspan><tspan x="235" y="190" fill="#411c27">█</tspan><tspan x="255" y="190" fill="#922886">█</tspan><tspan x="264" y="190" fill="#874171">█</tspan><tspan x="283" y="190" fill="#1e001a">█</tspan>
<tspan x="63" y="210" fill="#002020">█</tspan><tspan x="82" y="210" fill="#144446">█</tspan><tspan x="91" y="210" fill="#39949f">█</tspan><tspan x="101" y="210" fill="#338baa">█</tspan><tspan x="111" y="210" fill="#0e213f">█</tspan><tspan x="130" y="210" fill="#02333d">█</tspan><tspan x="139" y="210" fill="#40819e">█</tspan><tspan x="149" y="210" fill="#0a2a45">█</tspan><tspan x="159" y="210" fill="#01171f">█</tspan><tspan x="168" y="210" fill="#1a392d">█</tspan><tspan x="178" y="210" fill="#313827">█</tspan><tspan x="187" y="210" fill="#520620">█</tspan><tspan x="197" y="210" fill="#4b0023">█</tspan><tspan x="207" y="210" fill="#1d0012">█</tspan><tspan x="216" y="210" fill="#11001f">█</tspan><tspan x="226" y="210" fill="#602483">█</tspan><tspan x="235" y="210" fill="#3e0443">█</tspan><tspan x="255" y="210" fill="#1f0b2f">█</tspan><tspan x="264" y="210" fill="#883995">█</tspan><tspan x="274" y="210" fill="#a64396">█</tspan><tspan x="283" y="210" fill="#49183a">█</tspan><tspan x="312" y="210" fill="#1a0117">█</tspan>
<tspan x="63" y="230" fill="#122120">█</tspan><tspan x="72" y="230" fill="#347e8a">█</tspan><tspan x="82" y="230" fill="#2da4bf">█</tspan><tspan x="91" y="230" fill="#106789">█</tspan><tspan x="101" y="230" fill="#002544">█</tspan><tspan x="130" y="230" fill="#23aaba">█</tspan><tspan x="139" y="230" fill="#8ffeff">█</tspan><tspan x="149" y="230" fill="#84c7ef">█</tspan><tspan x="159" y="230" fill="#5175a5">█</tspan><tspan x="168" y="230" fill="#234370">█</tspan><tspan x="178" y="230" fill="#0a1b3d">█</tspan><tspan x="187" y="230" fill="#061221">█</tspan><tspan x="197" y="230" fill="#201d41">█</tspan><tspan x="207" y="230" fill="#443b71">█</tspan><tspan x="216" y="230" fill="#5c62a0">█</tspan><tspan x="226" y="230" fill="#8079c9">█</tspan><tspan x="235" y="230" fill="#9736a9">█</tspan><tspan x="245" y="230" fill="#1e0017">█</tspan><tspan x="264" y="230" fill="#230745">█</tspan><tspan x="274" y="230" fill="#611f7c">█</tspan><tspan x="283" y="230" fill="#9f39aa">█</tspan><tspan x="293" y="230" fill="#913b87">█</tspan><tspan x="303" y="230" fill="#33162a">█</tspan>
<tspan x="53" y="250" fill="#264f54">█</tspan><tspan x="63" y="250" fill="#39849a">█</tspan><tspan x="72" y="250" fill="#0d4765">█</tspan><tspan x="82" y="250" fill="#001932">█</tspan><tspan x="111" y="250" fill="#002421">█</tspan><tspan x="120" y="250" fill="#238aaa">█</tspan><tspan x="130" y="250" fill="#58c5f9">█</tspan><tspan x="139" y="250" fill="#49b5eb">█</tspan><tspan x="149" y="250" fill="#54a5e3">█</tspan><tspan x="159" y="250" fill="#65abed">█</tspan><tspan x="168" y="250" fill="#6798d8">█</tspan><tspan x="178" y="250" fill="#6888cd">█</tspan><tspan x="187" y="250" fill="#5369a9">█</tspan><tspan x="197" y="250" fill="#4d609f">█</tspan><tspan x="207" y="250" fill="#5060a1">█</tspan><tspan x="216" y="250" fill="#57559c">█</tspan><tspan x="226" y="250" fill="#634ea2">█</tspan><tspan x="235" y="250" fill="#6256a5">█</tspan><tspan x="245" y="250" fill="#6f2e87">█</tspan><tspan x="255" y="250" fill="#320229">█</tspan><tspan x="274" y="250" fill="#17011d">█</tspan><tspan x="283" y="250" fill="#120431">█</tspan><tspan x="293" y="250" fill="#441261">█</tspan><tspan x="303" y="250" fill="#8c3e8f">█</tspan><tspan x="312" y="250" fill="#6c2c5c">█</tspan>
<tspan x="43" y="270" fill="#266970">█</tspan><tspan x="53" y="270" fill="#3a91a6">█</tspan><tspan x="63" y="270" fill="#000e1c">█</tspan><tspan x="72" y="270" fill="#021923">█</tspan><tspan x="101" y="270" fill="#002224">█</tspan><tspan x="111" y="270" fill="#068eac">█</tspan><tspan x="120" y="270" fill="#2da0d5">█</tspan><tspan x="130" y="270" fill="#3488c1">█</tspan><tspan x="139" y="270" fill="#3780b6">█</tspan><tspan x="149" y="270" fill="#3b75ac">█</tspan><tspan x="159" y="270" fill="#367cb2">█</tspan><tspan x="168" y="270" fill="#317aab">█</tspan><tspan x="178" y="270" fill="#485e9b">█</tspan><tspan x="187" y="270" fill="#35497f">█</tspan><tspan x="197" y="270" fill="#354078">█</tspan><tspan x="207" y="270" fill="#46397f">█</tspan><tspan x="216" y="270" fill="#3d3979">█</tspan><tspan x="226" y="270" fill="#493a82">█</tspan><tspan x="235" y="270" fill="#463683">█</tspan><tspan x="245" y="270" fill="#623a99">█</tspan><tspan x="255" y="270" fill="#742b8a">█</tspan><tspan x="264" y="270" fill="#2d0628">█</tspan><tspan x="293" y="270" fill="#23002a">█</tspan><tspan x="303" y="270" fill="#0c001f">█</tspan><tspan x="312" y="270" fill="#8d3b90">█</tspan><tspan x="322" y="270" fill="#702e61">█</tspan>
<tspan x="34" y="290" fill="#17424a">█</tspan><tspan x="43" y="290" fill="#469fb1">█</tspan><tspan x="53" y="290" fill="#00131e">█</tspan><tspan x="63" y="290" fill="#0b2431">█</tspan><tspan x="72" y="290" fill="#0b1920">█</tspan><tspan x="82" y="290" fill="#11131f">█</tspan><tspan x="91" y="290" fill="#011e1d">█</tspan><tspan x="101" y="290" fill="#017a98">█</tspan><tspan x="111" y="290" fill="#0f5e93">█</tspan><tspan x="120" y="290" fill="#0e81a9">█</tspan><tspan x="130" y="290" fill="#1576a1">█</tspan><tspan x="139" y="290" fill="#1f5b89">█</tspan><tspan x="149" y="290" fill="#1f5984">█</tspan><tspan x="159" y="290" fill="#25406b">█</tspan><tspan x="168" y="290" fill="#1f3f67">█</tspan><tspan x="178" y="290" fill="#2c3c6e">█</tspan><tspan x="187" y="290" fill="#252d5e">█</tspan><tspan x="197" y="290" fill="#332867">█</tspan><tspan x="207" y="290" fill="#10254a">█</tspan><tspan x="216" y="290" fill="#15234c">█</tspan><tspan x="226" y="290" fill="#2d215c">█</tspan><tspan x="235" y="290" fill="#482073">█</tspan><tspan x="245" y="290" fill="#491e76">█</tspan><tspan x="255" y="290" fill="#182957">█</tspan><tspan x="264" y="290" fill="#651d75">█</tspan><tspan x="274" y="290" fill="#280223">█</tspan><tspan x="283" y="290" fill="#11161d">█</tspan><tspan x="293" y="290" fill="#240c23">█</tspan><tspan x="303" y="290" fill="#320532">█</tspan><tspan x="312" y="290" fill="#11001a">█</tspan><tspan x="322" y="290" fill="#a148a0">█</tspan><tspan x="331" y="290" fill="#5a1d41">█</tspan>
<tspan x="24" y="310" fill="#06171b">█</tspan><tspan x="34" y="310" fill="#4aa9b9">█</tspan><tspan x="43" y="310" fill="#092532">█</tspan><tspan x="53" y="310" fill="#131c2a">█</tspan><tspan x="72" y="310" fill="#131720">█</tspan><tspan x="82" y="310" fill="#1c2027">█</tspan><tspan x="91" y="310" fill="#00575e">█</tspan><tspan x="101" y="310" fill="#015982">█</tspan><tspan x="111" y="310" fill="#026083">█</tspan><tspan x="120" y="310" fill="#04456b">█</tspan><tspan x="130" y="310" fill="#035b7d">█</tspan><tspan x="139" y="310" fill="#074c6f">█</tspan><tspan x="149" y="310" fill="#065a7a">█</tspan><tspan x="159" y="310" fill="#0c3456">█</tspan><tspan x="168" y="310" fill="#081d3d">█</tspan><tspan x="178" y="310" fill="#19204c">█</tspan><tspan x="187" y="310" fill="#171845">█</tspan><tspan x="197" y="310" fill="#1d154a">█</tspan><tspan x="207" y="310" fill="#091236">█</tspan><tspan x="216" y="310" fill="#051033">█</tspan><tspan x="226" y="310" fill="#310f56">█</tspan><tspan x="235" y="310" fill="#300d50">█</tspan><tspan x="245" y="310" fill="#210d45">█</tspan><tspan x="255" y="310" fill="#41105e">█</tspan><tspan x="264" y="310" fill="#35165b">█</tspan><tspan x="274" y="310" fill="#5b0759">█</tspan><tspan x="283" y="310" fill="#1e1f28">█</tspan><tspan x="293" y="310" fill="#132124">█</tspan><tspan x="312" y="310" fill="#230c26">█</tspan><tspan x="322" y="310" fill="#220731">█</tspan><tspan x="331" y="310" fill="#a3519b">█</tspan><tspan x="341" y="310" fill="#1a0810">█</tspan>
<tspan x="24" y="330" fill="#326f7b">█</tspan><tspan x="34" y="330" fill="#2a7c8f">█</tspan><tspan x="53" y="330" fill="#082c3b">█</tspan><tspan x="63" y="330" fill="#1a5662">█</tspan><tspan x="72" y="330" fill="#1d4047">█</tspan><tspan x="82" y="330" fill="#021d21">█</tspan><tspan x="91" y="330" fill="#003d48">█</tspan><tspan x="101" y="330" fill="#00142d">█</tspan><tspan x="111" y="330" fill="#00324c">█</tspan><tspan x="120" y="330" fill="#002b49">█</tspan><tspan x="130" y="330" fill="#001a39">█</tspan><tspan x="139" y="330" fill="#004966">█</tspan><tspan x="149" y="330" fill="#004a68">█</tspan><tspan x="159" y="330" fill="#01415d">█</tspan><tspan x="168" y="330" fill="#00142d">█</tspan><tspan x="178" y="330" fill="#0f1136">█</tspan><tspan x="187" y="330" fill="#110b32">█</tspan><tspan x="197" y="330" fill="#280a46">█</tspan><tspan x="207" y="330" fill="#22093d">█</tspan><tspan x="216" y="330" fill="#2c083e">█</tspan><tspan x="226" y="330" fill="#380547">█</tspan><tspan x="235" y="330" fill="#150028">█</tspan><tspan x="245" y="330" fill="#1c002e">█</tspan><tspan x="255" y="330" fill="#2f0038">█</tspan><tspan x="274" y="330" fill="#40013d">█</tspan><tspan x="283" y="330" fill="#220822">█</tspan><tspan x="293" y="330" fill="#442241">█</tspan><tspan x="303" y="330" fill="#632257">█</tspan><tspan x="312" y="330" fill="#410934">█</tspan><tspan x="331" y="330" fill="#752878">█</tspan><tspan x="341" y="330" fill="#743b65">█</tspan>
<tspan x="24" y="350" fill="#1c434a">█</tspan><tspan x="34" y="350" fill="#378897">█</tspan><tspan x="43" y="350" fill="#1b4950">█</tspan><tspan x="53" y="350" fill="#52abbd">█</tspan><tspan x="63" y="350" fill="#91d3ef">█</tspan><tspan x="72" y="350" fill="#b4e3f2">█</tspan><tspan x="82" y="350" fill="#7fb7b9">█</tspan><tspan x="91" y="350" fill="#2b5b5b">█</tspan><tspan x="101" y="350" fill="#2c4649">█</tspan><tspan x="111" y="350" fill="#406773">█</tspan><tspan x="120" y="350" fill="#256a74">█</tspan><tspan x="130" y="350" fill="#091f30">█</tspan><tspan x="139" y="350" fill="#001227">█</tspan><tspan x="149" y="350" fill="#012a42">█</tspan><tspan x="159" y="350" fill="#013350">█</tspan><tspan x="168" y="350" fill="#002843">█</tspan><tspan x="178" y="350" fill="#0e0525">█</tspan><tspan x="187" y="350" fill="#0c0320">█</tspan><tspan x="197" y="350" fill="#1e022e">█</tspan><tspan x="207" y="350" fill="#2d0235">█</tspan><tspan x="216" y="350" fill="#24012d">█</tspan><tspan x="226" y="350" fill="#1a0127">█</tspan><tspan x="235" y="350" fill="#2c1033">█</tspan><tspan x="245" y="350" fill="#653264">█</tspan><tspan x="255" y="350" fill="#674a71">█</tspan><tspan x="264" y="350" fill="#4d324a">█</tspan><tspan x="274" y="350" fill="#623357">█</tspan><tspan x="283" y="350" fill="#ae90b5">█</tspan><tspan x="293" y="350" fill="#d0caee">█</tspan><tspan x="303" y="350" fill="#c0adea">█</tspan><tspan x="312" y="350" fill="#b064ab">█</tspan><tspan x="322" y="350" fill="#531b3e">█</tspan><tspan x="331" y="350" fill="#8e367f">█</tspan><tspan x="341" y="350" fill="#47233a">█</tspan>
<tspan x="15" y="370" fill="#2e636d">█</tspan><tspan x="24" y="370" fill="#497d8b">█</tspan><tspan x="34" y="370" fill="#60b9cd">█</tspan><tspan x="43" y="370" fill="#41aed0">█</tspan><tspan x="53" y="370" fill="#6d9fd1">█</tspan><tspan x="63" y="370" fill="#819edf">█</tspan><tspan x="72" y="370" fill="#789cdd">█</tspan><tspan x="82" y="370" fill="#90b6e9">█</tspan><tspan x="91" y="370" fill="#789ec9">█</tspan><tspan x="101" y="370" fill="#6995c5">█</tspan><tspan x="111" y="370" fill="#6a91c9">█</tspan><tspan x="120" y="370" fill="#4a7693">█</tspan><tspan x="130" y="370" fill="#167475">█</tspan><tspan x="149" y="370" fill="#001928">█</tspan><tspan x="159" y="370" fill="#002032">█</tspan><tspan x="168" y="370" fill="#001227">█</tspan><tspan x="178" y="370" fill="#09061e">█</tspan><tspan x="197" y="370" fill="#250023">█</tspan><tspan x="207" y="370" fill="#230226">█</tspan><tspan x="216" y="370" fill="#28022d">█</tspan><tspan x="226" y="370" fill="#16061d">█</tspan><tspan x="235" y="370" fill="#74336d">█</tspan><tspan x="245" y="370" fill="#735f96">█</tspan><tspan x="255" y="370" fill="#7092cb">█</tspan><tspan x="264" y="370" fill="#7789c5">█</tspan><tspan x="274" y="370" fill="#7f95c7">█</tspan><tspan x="283" y="370" fill="#8fb6e9">█</tspan><tspan x="293" y="370" fill="#799edb">█</tspan><tspan x="303" y="370" fill="#799ada">█</tspan><tspan x="312" y="370" fill="#8679c3">█</tspan><tspan x="322" y="370" fill="#a750bb">█</tspan><tspan x="331" y="370" fill="#b768bc">█</tspan><tspan x="341" y="370" fill="#834f82">█</tspan><tspan x="351" y="370" fill="#713260">█</tspan>
<tspan x="15" y="390" fill="#5dbbcd">█</tspan><tspan x="24" y="390" fill="#3b6598">█</tspan><tspan x="34" y="390" fill="#446093">█</tspan><tspan x="43" y="390" fill="#4f6596">█</tspan><tspan x="53" y="390" fill="#335f8d">█</tspan><tspan x="63" y="390" fill="#55759f">█</tspan><tspan x="72" y="390" fill="#3d5889">█</tspan><tspan x="82" y="390" fill="#2e4b7f">█</tspan><tspan x="91" y="390" fill="#314f81">█</tspan><tspan x="101" y="390" fill="#2f4977">█</tspan><tspan x="111" y="390" fill="#2e3368">█</tspan><tspan x="120" y="390" fill="#152e47">█</tspan><tspan x="130" y="390" fill="#0f6c6e">█</tspan><tspan x="159" y="390" fill="#00242a">█</tspan><tspan x="168" y="390" fill="#001f29">█</tspan><tspan x="197" y="390" fill="#2c0024">█</tspan><tspan x="207" y="390" fill="#28001f">█</tspan><tspan x="235" y="390" fill="#752b6e">█</tspan><tspan x="245" y="390" fill="#252e4d">█</tspan><tspan x="255" y="390" fill="#30396d">█</tspan><tspan x="264" y="390" fill="#334a7a">█</tspan><tspan x="274" y="390" fill="#345082">█</tspan><tspan x="283" y="390" fill="#324d7f">█</tspan><tspan x="293" y="390" fill="#3c5286">█</tspan><tspan x="303" y="390" fill="#614c99">█</tspan><tspan x="312" y="390" fill="#434181">█</tspan><tspan x="322" y="390" fill="#4c518e">█</tspan><tspan x="331" y="390" fill="#465b91">█</tspan><tspan x="341" y="390" fill="#604f91">█</tspan><tspan x="351" y="390" fill="#c769bd">█</tspan>
<tspan x="15" y="410" fill="#39a5b7">█</tspan><tspan x="24" y="410" fill="#02365d">█</tspan><tspan x="34" y="410" fill="#132f57">█</tspan><tspan x="43" y="410" fill="#2a4167">█</tspan><tspan x="53" y="410" fill="#224769">█</tspan><tspan x="63" y="410" fill="#0f2c4f">█</tspan><tspan x="72" y="410" fill="#263e61">█</tspan><tspan x="82" y="410" fill="#1f3a5c">█</tspan><tspan x="91" y="410" fill="#10284a">█</tspan><tspan x="101" y="410" fill="#0b2140">█</tspan><tspan x="111" y="410" fill="#291a54">█</tspan><tspan x="120" y="410" fill="#2b265b">█</tspan><tspan x="130" y="410" fill="#21787d">█</tspan><tspan x="159" y="410" fill="#001a1e">█</tspan><tspan x="168" y="410" fill="#042c38">█</tspan><tspan x="197" y="410" fill="#2a001f">█</tspan><tspan x="207" y="410" fill="#27011f">█</tspan><tspan x="226" y="410" fill="#1a0b15">█</tspan><tspan x="235" y="410" fill="#763d7c">█</tspan><tspan x="245" y="410" fill="#2f285d">█</tspan><tspan x="255" y="410" fill="#2e1955">█</tspan><tspan x="264" y="410" fill="#0e2040">█</tspan><tspan x="274" y="410" fill="#102345">█</tspan><tspan x="283" y="410" fill="#232457">█</tspan><tspan x="293" y="410" fill="#29205a">█</tspan><tspan x="303" y="410" fill="#111c44">█</tspan><tspan x="312" y="410" fill="#291e59">█</tspan><tspan x="322" y="410" fill="#341f5d">█</tspan><tspan x="331" y="410" fill="#1c1b43">█</tspan><tspan x="341" y="410" fill="#2f0347">█</tspan><tspan x="351" y="410" fill="#b03fa5">█</tspan>
<tspan x="15" y="430" fill="#075170">█</tspan><tspan x="24" y="430" fill="#000f2d">█</tspan><tspan x="34" y="430" fill="#00132e">█</tspan><tspan x="43" y="430" fill="#001f39">█</tspan><tspan x="53" y="430" fill="#0d1b31">█</tspan><tspan x="63" y="430" fill="#101e35">█</tspan><tspan x="72" y="430" fill="#070f2a">█</tspan><tspan x="82" y="430" fill="#0f1731">█</tspan><tspan x="91" y="430" fill="#121f3c">█</tspan><tspan x="101" y="430" fill="#071836">█</tspan><tspan x="111" y="430" fill="#010f2a">█</tspan><tspan x="120" y="430" fill="#0f2144">█</tspan><tspan x="130" y="430" fill="#284e68">█</tspan><tspan x="139" y="430" fill="#206e73">█</tspan><tspan x="168" y="430" fill="#01121f">█</tspan><tspan x="226" y="430" fill="#703a73">█</tspan><tspan x="235" y="430" fill="#3a3d67">█</tspan><tspan x="245" y="430" fill="#1d1645">█</tspan><tspan x="255" y="430" fill="#030f2d">█</tspan><tspan x="264" y="430" fill="#0c0f32">█</tspan><tspan x="274" y="430" fill="#1c0b37">█</tspan><tspan x="283" y="430" fill="#14052c">█</tspan><tspan x="293" y="430" fill="#0a0422">█</tspan><tspan x="303" y="430" fill="#1b022e">█</tspan><tspan x="312" y="430" fill="#1d002b">█</tspan><tspan x="322" y="430" fill="#24002c">█</tspan><tspan x="331" y="430" fill="#180024">█</tspan><tspan x="341" y="430" fill="#0b0020">█</tspan><tspan x="351" y="430" fill="#5d0a61">█</tspan>
<tspan x="15" y="450" fill="#295a64">█</tspan><tspan x="24" y="450" fill="#285160">█</tspan><tspan x="34" y="450" fill="#204454">█</tspan><tspan x="43" y="450" fill="#16475b">█</tspan><tspan x="53" y="450" fill="#0b3849">█</tspan><tspan x="63" y="450" fill="#072f3e">█</tspan><tspan x="72" y="450" fill="#082531">█</tspan><tspan x="82" y="450" fill="#021921">█</tspan><tspan x="91" y="450" fill="#011726">█</tspan><tspan x="101" y="450" fill="#04101e">█</tspan><tspan x="139" y="450" fill="#175f71">█</tspan><tspan x="149" y="450" fill="#08322f">█</tspan><tspan x="159" y="450" fill="#003641">█</tspan><tspan x="168" y="450" fill="#003741">█</tspan><tspan x="178" y="450" fill="#031f27">█</tspan><tspan x="187" y="450" fill="#1f0520">█</tspan><tspan x="197" y="450" fill="#3c0133">█</tspan><tspan x="207" y="450" fill="#430038">█</tspan><tspan x="216" y="450" fill="#31152c">█</tspan><tspan x="226" y="450" fill="#682b76">█</tspan><tspan x="274" y="450" fill="#1e001f">█</tspan><tspan x="283" y="450" fill="#1d001d">█</tspan><tspan x="293" y="450" fill="#2b002a">█</tspan><tspan x="303" y="450" fill="#360534">█</tspan><tspan x="312" y="450" fill="#40103e">█</tspan><tspan x="322" y="450" fill="#4f1c4f">█</tspan><tspan x="331" y="450" fill="#48274a">█</tspan><tspan x="341" y="450" fill="#582d55">█</tspan><tspan x="351" y="450" fill="#63315a">█</tspan>
<tspan x="34" y="470" fill="#0d191a">█</tspan><tspan x="43" y="470" fill="#172b2e">█</tspan><tspan x="53" y="470" fill="#1f3d42">█</tspan><tspan x="63" y="470" fill="#234a53">█</tspan><tspan x="72" y="470" fill="#205159">█</tspan><tspan x="82" y="470" fill="#1b474e">█</tspan><tspan x="91" y="470" fill="#124a59">█</tspan><tspan x="101" y="470" fill="#0b3d45">█</tspan><tspan x="111" y="470" fill="#092a36">█</tspan><tspan x="120" y="470" fill="#0c2130">█</tspan><tspan x="130" y="470" fill="#103945">█</tspan><tspan x="139" y="470" fill="#0e4a4e">█</tspan><tspan x="226" y="470" fill="#4d1c48">█</tspan><tspan x="235" y="470" fill="#3f1742">█</tspan><tspan x="245" y="470" fill="#2c0e2f">█</tspan><tspan x="255" y="470" fill="#340a2a">█</tspan><tspan x="264" y="470" fill="#420d37">█</tspan><tspan x="274" y="470" fill="#4c1848">█</tspan><tspan x="283" y="470" fill="#492143">█</tspan><tspan x="293" y="470" fill="#54294f">█</tspan><tspan x="303" y="470" fill="#4e2a48">█</tspan><tspan x="312" y="470" fill="#3e2539">█</tspan><tspan x="322" y="470" fill="#2c1b28">█</tspan><tspan x="331" y="470" fill="#1b1017">█</tspan>
<tspan x="91" y="490" fill="#132629">█</tspan><tspan x="101" y="490" fill="#17373d">█</tspan><tspan x="111" y="490" fill="#17363c">█</tspan><tspan x="120" y="490" fill="#133034">█</tspan><tspan x="130" y="490" fill="#0c2022">█</tspan><tspan x="235" y="490" fill="#22101d">█</tspan><tspan x="245" y="490" fill="#32182c">█</tspan><tspan x="255" y="490" fill="#381b32">█</tspan><tspan x="264" y="490" fill="#3a1b34">█</tspan><tspan x="274" y="490" fill="#291724">█</tspan>

</text>
<text x="390" y="30" fill="#0a0a1a" filter="url(#lightGlow)">
<tspan x="390" y="30" fill="#94a3b8">nikita@dronov -————————————————————————————————————————————————————————-</tspan><tspan x="390" y="50"><tspan fill="#94a3b8">. </tspan><tspan fill="#008c9e">OS</tspan><tspan fill="#94a3b8">: </tspan><tspan fill="#94a3b8">..............................</tspan><tspan fill="#d6006e"> Linux, macOS, Windows</tspan></tspan><tspan x="390" y="70"><tspan fill="#94a3b8">. </tspan><tspan fill="#008c9e">Uptime</tspan><tspan fill="#94a3b8">: </tspan><tspan fill="#94a3b8">..................................</tspan><tspan fill="#d6006e"> 3 years in IT</tspan></tspan><tspan x="390" y="90"><tspan fill="#94a3b8">. </tspan><tspan fill="#008c9e">Host</tspan><tspan fill="#94a3b8">: </tspan><tspan fill="#94a3b8">.................................</tspan><tspan fill="#d6006e"> Ingosstrakh Bank</tspan></tspan><tspan x="390" y="110"><tspan fill="#94a3b8">. </tspan><tspan fill="#008c9e">Kernel</tspan><tspan fill="#94a3b8">: </tspan><tspan fill="#94a3b8">.............</tspan><tspan fill="#d6006e"> Lead Expert, Test Automation Group</tspan></tspan><tspan x="390" y="130"><tspan fill="#94a3b8">. </tspan><tspan fill="#008c9e">IDE</tspan><tspan fill="#94a3b8">: </tspan><tspan fill="#94a3b8">...................................</tspan><tspan fill="#d6006e"> PyCharm, VSCode</tspan></tspan><tspan x="390" y="150" fill="#94a3b8">. </tspan><tspan x="390" y="170"><tspan fill="#94a3b8">. </tspan><tspan fill="#008c9e">Languages.Programming</tspan><tspan fill="#94a3b8">: </tspan><tspan fill="#94a3b8">..........</tspan><tspan fill="#d6006e"> Python, SQL, HTML, CSS</tspan></tspan><tspan x="390" y="190"><tspan fill="#94a3b8">. </tspan><tspan fill="#008c9e">Languages.Computer</tspan><tspan fill="#94a3b8">: </tspan><tspan fill="#94a3b8">........</tspan><tspan fill="#d6006e"> JSON, YAML, Shell, Markdown</tspan></tspan><tspan x="390" y="210"><tspan fill="#94a3b8">. </tspan><tspan fill="#008c9e">Languages.Real</tspan><tspan fill="#94a3b8">: </tspan><tspan fill="#94a3b8">...........</tspan><tspan fill="#d6006e"> RU native / EN B1 / ES A1-A2</tspan></tspan><tspan x="390" y="230" fill="#94a3b8">. </tspan><tspan x="390" y="250"><tspan fill="#94a3b8">. </tspan><tspan fill="#008c9e">Hobbies.Software</tspan><tspan fill="#94a3b8">: </tspan><tspan fill="#94a3b8">...</tspan><tspan fill="#d6006e"> Test Automation, Microservices, Open Source</tspan></tspan><tspan x="390" y="270"><tspan fill="#94a3b8">. </tspan><tspan fill="#008c9e">Hobbies.Hardware</tspan><tspan fill="#94a3b8">: </tspan><tspan fill="#94a3b8">....................................</tspan><tspan fill="#d6006e"> —</tspan></tspan><tspan x="390" y="310" fill="#94a3b8">- Contact &amp; Links ——————————————————————————————————————————-</tspan><tspan x="390" y="330"><tspan fill="#94a3b8">. </tspan><tspan fill="#008c9e">Email.Personal</tspan><tspan fill="#94a3b8">: </tspan><tspan fill="#94a3b8">..............</tspan><tspan fill="#d6006e"> nikita.dronov.a@gmail.com</tspan></tspan><tspan x="390" y="350"><tspan fill="#94a3b8">. </tspan><tspan fill="#008c9e">Telegram</tspan><tspan fill="#94a3b8">: </tspan><tspan fill="#94a3b8">.....................................</tspan><tspan fill="#d6006e"> @drnvvna</tspan></tspan><tspan x="390" y="370"><tspan fill="#94a3b8">. </tspan><tspan fill="#008c9e">GitHub</tspan><tspan fill="#94a3b8">: </tspan><tspan fill="#94a3b8">.......................................</tspan><tspan fill="#d6006e"> DronovNA</tspan></tspan><tspan x="390" y="390"><tspan fill="#94a3b8">. </tspan><tspan fill="#008c9e">LinkedIn</tspan><tspan fill="#94a3b8">: </tspan><tspan fill="#94a3b8">.....</tspan><tspan fill="#d6006e"> linkedin.com/in/nikita-dronov-automation</tspan></tspan><tspan x="390" y="410"><tspan fill="#94a3b8">. </tspan><tspan fill="#008c9e">Product</tspan><tspan fill="#94a3b8">: </tspan><tspan fill="#94a3b8">.........................</tspan><tspan fill="#d6006e"> app.pairlingua.online</tspan></tspan><tspan x="390" y="450" fill="#94a3b8">- GitHub Stats ————————————————————————————————————————————————-</tspan><tspan x="390" y="470"><tspan fill="#94a3b8">. Repos: </tspan><tspan fill="#d6006e">8</tspan><tspan fill="#94a3b8"> {</tspan><tspan fill="#008c9e">Contributed</tspan><tspan fill="#94a3b8">: </tspan><tspan fill="#d6006e">8</tspan><tspan fill="#94a3b8">} | Stars: </tspan><tspan fill="#d6006e">0</tspan></tspan><tspan x="390" y="490"><tspan fill="#94a3b8">. Commits: </tspan><tspan fill="#d6006e">86</tspan><tspan fill="#94a3b8"> | Followers: </tspan><tspan fill="#d6006e">3</tspan></tspan><tspan x="390" y="510"><tspan fill="#94a3b8">. Lines of Code on GitHub: </tspan><tspan fill="#d6006e">5,912</tspan><tspan fill="#94a3b8"> ( </tspan><tspan fill="#047857">6,660++</tspan><tspan fill="#94a3b8">, </tspan><tspan fill="#be123c">748--</tspan><tspan fill="#94a3b8"> )</tspan></tspan>
</text>
</svg>