<?xml version='1.0' encoding='UTF-8'?>
<svg xmlns="http://www.w3.org/2000/svg" font-family="ConsolasFallback,Consolas,monospace" width="985px" height="530px" font-size="16px">
<defs>
<font-face>
<font-face-src>
<font-face-uri src="local('Consolas')"/>
</font-face-src>
</font-face>
<radialGradient id="lightBg" cx="50%" cy="30%" r="90%">
<stop offset="0%" stop-color="#e0f7ff"/>
<stop offset="100%" stop-color="#f0faff"/>
</radialGradient>
<filter id="lightGlow" x="-20%" y="-20%" width="140%" height="140%">
<feGaussianBlur stdDeviation="1.5" result="blur"/>
<feMerge>
<feMergeNode in="blur"/>
<feMergeNode in="SourceGraphic"/>
</feMerge>
</filter>
</defs>
<rect width="985px" height="530px" fill="url(#lightBg)" rx="15"/>
<text x="15" y="30" font-family="ConsolasFallback,Consolas,monospace" font-size="16px" filter="url(#lightGlow)">

<tspan x="149" y="50" fill="#6b7576">█</tspan><tspan x="159" y="50" fill="#c8d4d5">█</tspan><tspan x="168" y="50" fill="#bdcecf">█</tspan><tspan x="178" y="50" fill="#c8d8d9">█</tspan><tspan x="187" y="50" fill="#c8d8da">█</tspan><tspan x="197" y="50" fill="#becfd1">█</tspan><tspan x="207" y="50" fill="#c7d5d6">█</tspan><tspan x="216" y="50" fill="#6d797b">█</tspan>
<tspan x="111" y="70" fill="#242728">█</tspan><tspan x="120" y="70" fill="#4c5759">█</tspan><tspan x="130" y="70" fill="#647376">█</tspan><tspan x="139" y="70" fill="#3b494c">█</tspan><tspan x="149" y="70" fill="#75868a">█</tspan><tspan x="159" y="70" fill="#c2e3ea">█</tspan><tspan x="168" y="70" fill="#aecfd6">█</tspan><tspan x="178" y="70" fill="#bcdce2">█</tspan><tspan x="187" y="70" fill="#badae1">█</tspan><tspan x="197" y="70" fill="#b3d4dc">█</tspan><tspan x="207" y="70" fill="#c9eaf1">█</tspan><tspan x="216" y="70" fill="#7d9094">█</tspan><tspan x="226" y="70" fill="#3b494c">█</tspan><tspan x="235" y="70" fill="#667577">█</tspan><tspan x="245" y="70" fill="#4d595c">█</tspan><tspan x="255" y="70" fill="#26292a">█</tspan>
<tspan x="82" y="90" fill="#1d2121">█</tspan><tspan x="91" y="90" fill="#697476">█</tspan><tspan x="101" y="90" fill="#adc1c5">█</tspan><tspan x="111" y="90" fill="#c2e2e8">█</tspan><tspan x="120" y="90" fill="#b9dbe2">█</tspan><tspan x="130" y="90" fill="#a2c5cc">█</tspan><tspan x="139" y="90" fill="#4d6468">█</tspan><tspan x="149" y="90" fill="#65777c">█</tspan><tspan x="159" y="90" fill="#b0ced5">█</tspan><tspan x="168" y="90" fill="#9ebac0">█</tspan><tspan x="178" y="90" fill="#a9c8cf">█</tspan><tspan x="187" y="90" fill="#aac9d1">█</tspan><tspan x="197" y="90" fill="#9ebbc2">█</tspan><tspan x="207" y="90" fill="#b1d1d8">█</tspan><tspan x="216" y="90" fill="#6c7f84">█</tspan><tspan x="226" y="90" fill="#4c6267">█</tspan><tspan x="235" y="90" fill="#a6c7ce">█</tspan><tspan x="245" y="90" fill="#badbe2">█</tspan><tspan x="255" y="90" fill="#c6e4e9">█</tspan><tspan x="264" y="90" fill="#acc0c4">█</tspan><tspan x="274" y="90" fill="#6b777a">█</tspan><tspan x="283" y="90" fill="#1f2324">█</tspan>
<tspan x="72" y="110" fill="#5e6769">█</tspan><tspan x="82" y="110" fill="#abc4c9">█</tspan><tspan x="91" y="110" fill="#cdeff6">█</tspan><tspan x="101" y="110" fill="#d4f8fe">█</tspan><tspan x="111" y="110" fill="#d9fcfe">█</tspan><tspan x="120" y="110" fill="#bfe2e8">█</tspan><tspan x="130" y="110" fill="#aaccd4">█</tspan><tspan x="139" y="110" fill="#4e6469">█</tspan><tspan x="149" y="110" fill="#627377">█</tspan><tspan x="159" y="110" fill="#9dbac0">█</tspan><tspan x="168" y="110" fill="#91afb4">█</tspan><tspan x="178" y="110" fill="#b2d2d9">█</tspan><tspan x="187" y="110" fill="#b3d4dc">█</tspan><tspan x="197" y="110" fill="#93b2b8">█</tspan><tspan x="207" y="110" fill="#99b7be">█</tspan><tspan x="216" y="110" fill="#65767b">█</tspan><tspan x="226" y="110" fill="#4e6369">█</tspan><tspan x="235" y="110" fill="#aeced7">█</tspan><tspan x="245" y="110" fill="#c2e4ea">█</tspan><tspan x="255" y="110" fill="#d8fbfd">█</tspan><tspan x="264" y="110" fill="#d5faff">█</tspan><tspan x="274" y="110" fill="#cceef7">█</tspan><tspan x="283" y="110" fill="#aec9d1">█</tspan><tspan x="293" y="110" fill="#616c6f">█</tspan>
<tspan x="53" y="130" fill="#1d2124">█</tspan><tspan x="63" y="130" fill="#79888d">█</tspan><tspan x="72" y="130" fill="#7e98a0">█</tspan><tspan x="82" y="130" fill="#819ea3">█</tspan><tspan x="91" y="130" fill="#99b6bc">█</tspan><tspan x="101" y="130" fill="#c4e4ea">█</tspan><tspan x="111" y="130" fill="#d9f9fc">█</tspan><tspan x="120" y="130" fill="#d0f3f9">█</tspan><tspan x="130" y="130" fill="#bbdee7">█</tspan><tspan x="139" y="130" fill="#495d64">█</tspan><tspan x="149" y="130" fill="#5b6c70">█</tspan><tspan x="159" y="130" fill="#7c9398">█</tspan><tspan x="168" y="130" fill="#7f969b">█</tspan><tspan x="178" y="130" fill="#a1bbbf">█</tspan><tspan x="187" y="130" fill="#a1babf">█</tspan><tspan x="197" y="130" fill="#7e969a">█</tspan><tspan x="207" y="130" fill="#758c91">█</tspan><tspan x="216" y="130" fill="#5a6b6f">█</tspan><tspan x="226" y="130" fill="#485d64">█</tspan><tspan x="235" y="130" fill="#bcdee7">█</tspan><tspan x="245" y="130" fill="#d1f4fa">█</tspan><tspan x="255" y="130" fill="#dbfafd">█</tspan><tspan x="264" y="130" fill="#c5e5ea">█</tspan><tspan x="274" y="130" fill="#9bb8be">█</tspan><tspan x="283" y="130" fill="#87a4a9">█</tspan><tspan x="293" y="130" fill="#7f9ba2">█</tspan><tspan x="303" y="130" fill="#7b898d">█</tspan><tspan x="312" y="130" fill="#202427">█</tspan>
<tspan x="53" y="150" fill="#6d797d">█</tspan><tspan x="63" y="150" fill="#556d73">█</tspan><tspan x="72" y="150" fill="#50666b">█</tspan><tspan x="82" y="150" fill="#62797e">█</tspan><tspan x="91" y="150" fill="#819da2">█</tspan><tspan x="101" y="150" fill="#9ab9be">█</tspan><tspan x="111" y="150" fill="#b7d8df">█</tspan><tspan x="120" y="150" fill="#c5e8f0">█</tspan><tspan x="130" y="150" fill="#bfe4ed">█</tspan><tspan x="139" y="150" fill="#4e656c">█</tspan><tspan x="159" y="150" fill="#21292c">█</tspan><tspan x="168" y="150" fill="#212a2e">█</tspan><tspan x="178" y="150" fill="#1d282c">█</tspan><tspan x="187" y="150" fill="#1d292e">█</tspan><tspan x="197" y="150" fill="#212b2f">█</tspan><tspan x="207" y="150" fill="#20292c">█</tspan><tspan x="226" y="150" fill="#4f656b">█</tspan><tspan x="235" y="150" fill="#c2e6ed">█</tspan><tspan x="245" y="150" fill="#c6e9f1">█</tspan><tspan x="255" y="150" fill="#bbdde4">█</tspan><tspan x="264" y="150" fill="#99b9bf">█</tspan><tspan x="274" y="150" fill="#809ca2">█</tspan><tspan x="283" y="150" fill="#677f85">█</tspan><tspan x="293" y="150" fill="#546a70">█</tspan><tspan x="303" y="150" fill="#566f74">█</tspan><tspan x="312" y="150" fill="#717e81">█</tspan>
<tspan x="43" y="170" fill="#262e31">█</tspan><tspan x="53" y="170" fill="#556b70">█</tspan><tspan x="63" y="170" fill="#364b50">█</tspan><tspan x="72" y="170" fill="#465c60">█</tspan><tspan x="82" y="170" fill="#50676c">█</tspan><tspan x="91" y="170" fill="#5a7379">█</tspan><tspan x="101" y="170" fill="#698388">█</tspan><tspan x="111" y="170" fill="#829fa5">█</tspan><tspan x="120" y="170" fill="#8eacb5">█</tspan><tspan x="130" y="170" fill="#87a6af">█</tspan><tspan x="139" y="170" fill="#6f8e96">█</tspan><tspan x="149" y="170" fill="#182124">█</tspan><tspan x="159" y="170" fill="#849ba1">█</tspan><tspan x="168" y="170" fill="#a6c4c9">█</tspan><tspan x="178" y="170" fill="#b4c8cc">█</tspan><tspan x="187" y="170" fill="#b6cacf">█</tspan><tspan x="197" y="170" fill="#a6c5cb">█</tspan><tspan x="207" y="170" fill="#88a1a6">█</tspan><tspan x="216" y="170" fill="#1d2527">█</tspan><tspan x="226" y="170" fill="#728e95">█</tspan><tspan x="235" y="170" fill="#8baab2">█</tspan><tspan x="245" y="170" fill="#91b0b9">█</tspan><tspan x="255" y="170" fill="#819ea5">█</tspan><tspan x="264" y="170" fill="#6a858b">█</tspan><tspan x="274" y="170" fill="#5b737a">█</tspan><tspan x="283" y="170" fill="#51686d">█</tspan><tspan x="293" y="170" fill="#465b60">█</tspan><tspan x="303" y="170" fill="#384c51">█</tspan><tspan x="312" y="170" fill="#556c71">█</tspan><tspan x="322" y="170" fill="#283134">█</tspan>
<tspan x="34" y="190" fill="#2a3135">█</tspan><tspan x="43" y="190" fill="#404e51">█</tspan><tspan x="53" y="190" fill="#1b2e33">█</tspan><tspan x="63" y="190" fill="#283b3f">█</tspan><tspan x="72" y="190" fill="#2f4248">█</tspan><tspan x="82" y="190" fill="#3f555a">█</tspan><tspan x="91" y="190" fill="#496168">█</tspan><tspan x="101" y="190" fill="#526b72">█</tspan><tspan x="111" y="190" fill="#647e84">█</tspan><tspan x="120" y="190" fill="#688389">█</tspan><tspan x="130" y="190" fill="#678289">█</tspan><tspan x="139" y="190" fill="#69858c">█</tspan><tspan x="149" y="190" fill="#39474b">█</tspan><tspan x="159" y="190" fill="#71888e">█</tspan><tspan x="168" y="190" fill="#92a7aa">█</tspan><tspan x="178" y="190" fill="#e0eaec">█</tspan><tspan x="187" y="190" fill="#e2ecee">█</tspan><tspan x="197" y="190" fill="#96a9ad">█</tspan><tspan x="207" y="190" fill="#6e858c">█</tspan><tspan x="216" y="190" fill="#3a474b">█</tspan><tspan x="226" y="190" fill="#6b868b">█</tspan><tspan x="235" y="190" fill="#6c868d">█</tspan><tspan x="245" y="190" fill="#6a858c">█</tspan><tspan x="255" y="190" fill="#678086">█</tspan><tspan x="264" y="190" fill="#566e75">█</tspan><tspan x="274" y="190" fill="#496269">█</tspan><tspan x="283" y="190" fill="#3e545a">█</tspan><tspan x="293" y="190" fill="#2f4247">█</tspan><tspan x="303" y="190" fill="#2a3d42">█</tspan><tspan x="312" y="190" fill="#1d2f35">█</tspan><tspan x="322" y="190" fill="#3e4d50">█</tspan><tspan x="331" y="190" fill="#2d3338">█</tspan>
<tspan x="34" y="210" fill="#616c6f">█</tspan><tspan x="43" y="210" fill="#a2bcc1">█</tspan><tspan x="53" y="210" fill="#132227">█</tspan><tspan x="63" y="210" fill="#14262a">█</tspan><tspan x="72" y="210" fill="#25393e">█</tspan><tspan x="82" y="210" fill="#2c4146">█</tspan><tspan x="91" y="210" fill="#334c53">█</tspan><tspan x="101" y="210" fill="#495f65">█</tspan><tspan x="111" y="210" fill="#53676c">█</tspan><tspan x="120" y="210" fill="#576c72">█</tspan><tspan x="130" y="210" fill="#5d7379">█</tspan><tspan x="139" y="210" fill="#536a6f">█</tspan><tspan x="149" y="210" fill="#46565b">█</tspan><tspan x="159" y="210" fill="#657d83">█</tspan><tspan x="168" y="210" fill="#31393a">█</tspan><tspan x="178" y="210" fill="#566568">█</tspan><tspan x="187" y="210" fill="#586668">█</tspan><tspan x="197" y="210" fill="#323a3c">█</tspan><tspan x="207" y="210" fill="#667c81">█</tspan><tspan x="216" y="210" fill="#49595d">█</tspan><tspan x="226" y="210" fill="#576e73">█</tspan><tspan x="235" y="210" fill="#61777d">█</tspan><tspan x="245" y="210" fill="#586e72">█</tspan><tspan x="255" y="210" fill="#556a6f">█</tspan><tspan x="264" y="210" fill="#50656b">█</tspan><tspan x="274" y="210" fill="#334b51">█</tspan><tspan x="283" y="210" fill="#2c4147">█</tspan><tspan x="293" y="210" fill="#273b40">█</tspan><tspan x="303" y="210" fill="#17292d">█</tspan><tspan x="312" y="210" fill="#122125">█</tspan><tspan x="322" y="210" fill="#9db6bc">█</tspan><tspan x="331" y="210" fill="#646f71">█</tspan>
<tspan x="15" y="230" fill="#7f8b8d">█</tspan><tspan x="24" y="230" fill="#b1ccd0">█</tspan><tspan x="34" y="230" fill="#384c52">█</tspan><tspan x="43" y="230" fill="#49585d">█</tspan><tspan x="53" y="230" fill="#5b7178">█</tspan><tspan x="72" y="230" fill="#1c2729">█</tspan><tspan x="82" y="230" fill="#28373b">█</tspan><tspan x="91" y="230" fill="#3e4c52">█</tspan><tspan x="101" y="230" fill="#3b5a61">█</tspan><tspan x="111" y="230" fill="#375d63">█</tspan><tspan x="120" y="230" fill="#3d6268">█</tspan><tspan x="130" y="230" fill="#496a70">█</tspan><tspan x="139" y="230" fill="#4f696f">█</tspan><tspan x="149" y="230" fill="#344347">█</tspan><tspan x="159" y="230" fill="#5c6f75">█</tspan><tspan x="168" y="230" fill="#42555a">█</tspan><tspan x="178" y="230" fill="#4a595d">█</tspan><tspan x="187" y="230" fill="#4c5a5d">█</tspan><tspan x="197" y="230" fill="#42565a">█</tspan><tspan x="207" y="230" fill="#617579">█</tspan><tspan x="216" y="230" fill="#354447">█</tspan><tspan x="226" y="230" fill="#4c656a">█</tspan><tspan x="235" y="230" fill="#4f6f74">█</tspan><tspan x="245" y="230" fill="#40646a">█</tspan><tspan x="255" y="230" fill="#375d64">█</tspan><tspan x="264" y="230" fill="#3b5b62">█</tspan><tspan x="274" y="230" fill="#3c4a50">█</tspan><tspan x="283" y="230" fill="#273538">█</tspan><tspan x="293" y="230" fill="#1b2628">█</tspan><tspan x="312" y="230" fill="#5b7278">█</tspan><tspan x="322" y="230" fill="#506065">█</tspan><tspan x="331" y="230" fill="#3b4f54">█</tspan><tspan x="341" y="230" fill="#b6d0d4">█</tspan><tspan x="351" y="230" fill="#849092">█</tspan>
<tspan x="15" y="250" fill="#bfcacc">█</tspan><tspan x="24" y="250" fill="#f4ffff">█</tspan><tspan x="34" y="250" fill="#bfe0e7">█</tspan><tspan x="43" y="250" fill="#304147">█</tspan><tspan x="53" y="250" fill="#2e383d">█</tspan><tspan x="72" y="250" fill="#16191b">█</tspan><tspan x="82" y="250" fill="#290505">█</tspan><tspan x="91" y="250" fill="#950303">█</tspan><tspan x="101" y="250" fill="#cd191b">█</tspan><tspan x="111" y="250" fill="#ac3134">█</tspan><tspan x="120" y="250" fill="#8e4549">█</tspan><tspan x="130" y="250" fill="#765c62">█</tspan><tspan x="139" y="250" fill="#6e787d">█</tspan><tspan x="149" y="250" fill="#4b6066">█</tspan><tspan x="159" y="250" fill="#243337">█</tspan><tspan x="168" y="250" fill="#263134">█</tspan><tspan x="178" y="250" fill="#47585d">█</tspan><tspan x="187" y="250" fill="#475a5f">█</tspan><tspan x="197" y="250" fill="#263235">█</tspan><tspan x="207" y="250" fill="#243236">█</tspan><tspan x="216" y="250" fill="#495d63">█</tspan><tspan x="226" y="250" fill="#6c757b">█</tspan><tspan x="235" y="250" fill="#786064">█</tspan><tspan x="245" y="250" fill="#8e494d">█</tspan><tspan x="255" y="250" fill="#ab3336">█</tspan><tspan x="264" y="250" fill="#cc1a1c">█</tspan><tspan x="274" y="250" fill="#980202">█</tspan><tspan x="283" y="250" fill="#2c0404">█</tspan><tspan x="293" y="250" fill="#16181b">█</tspan><tspan x="312" y="250" fill="#2e383c">█</tspan><tspan x="322" y="250" fill="#304046">█</tspan><tspan x="331" y="250" fill="#c4e3ea">█</tspan><tspan x="341" y="250" fill="#f9ffff">█</tspan><tspan x="351" y="250" fill="#c2cccd">█</tspan>
<tspan x="15" y="270" fill="#7a8d92">█</tspan><tspan x="24" y="270" fill="#89a4ac">█</tspan><tspan x="34" y="270" fill="#65848e">█</tspan><tspan x="43" y="270" fill="#203239">█</tspan><tspan x="72" y="270" fill="#203137">█</tspan><tspan x="82" y="270" fill="#727074">█</tspan><tspan x="91" y="270" fill="#8b4042">█</tspan><tspan x="101" y="270" fill="#b91616">█</tspan><tspan x="111" y="270" fill="#d10303">█</tspan><tspan x="120" y="270" fill="#cc0000">█</tspan><tspan x="130" y="270" fill="#bb0000">█</tspan><tspan x="139" y="270" fill="#870101">█</tspan><tspan x="149" y="270" fill="#392022">█</tspan><tspan x="159" y="270" fill="#364448">█</tspan><tspan x="168" y="270" fill="#2b383b">█</tspan><tspan x="178" y="270" fill="#5c6466">█</tspan><tspan x="187" y="270" fill="#5c6566">█</tspan><tspan x="197" y="270" fill="#2a373a">█</tspan><tspan x="207" y="270" fill="#384649">█</tspan><tspan x="216" y="270" fill="#3e2324">█</tspan><tspan x="226" y="270" fill="#870101">█</tspan><tspan x="235" y="270" fill="#bb0000">█</tspan><tspan x="245" y="270" fill="#cb0000">█</tspan><tspan x="255" y="270" fill="#d20303">█</tspan><tspan x="264" y="270" fill="#b71616">█</tspan><tspan x="274" y="270" fill="#8d4245">█</tspan><tspan x="283" y="270" fill="#747277">█</tspan><tspan x="293" y="270" fill="#1d2f34">█</tspan><tspan x="322" y="270" fill="#203138">█</tspan><tspan x="331" y="270" fill="#6b8993">█</tspan><tspan x="341" y="270" fill="#8ba9b0">█</tspan><tspan x="351" y="270" fill="#798d92">█</tspan>
<tspan x="15" y="290" fill="#223136">█</tspan><tspan x="24" y="290" fill="#17292f">█</tspan><tspan x="82" y="290" fill="#1c3034">█</tspan><tspan x="91" y="290" fill="#4b656a">█</tspan><tspan x="101" y="290" fill="#728e94">█</tspan><tspan x="111" y="290" fill="#a7b7bc">█</tspan><tspan x="120" y="290" fill="#b8bcbf">█</tspan><tspan x="130" y="290" fill="#9da1a4">█</tspan><tspan x="139" y="290" fill="#7d8487">█</tspan><tspan x="149" y="290" fill="#677c80">█</tspan><tspan x="159" y="290" fill="#819da3">█</tspan><tspan x="168" y="290" fill="#badde3">█</tspan><tspan x="178" y="290" fill="#ffffff">█</tspan><tspan x="187" y="290" fill="#ffffff">█</tspan><tspan x="197" y="290" fill="#b9dbe2">█</tspan><tspan x="207" y="290" fill="#7f9ba1">█</tspan><tspan x="216" y="290" fill="#6a7f83">█</tspan><tspan x="226" y="290" fill="#7e8789">█</tspan><tspan x="235" y="290" fill="#9ea2a6">█</tspan><tspan x="245" y="290" fill="#babec1">█</tspan><tspan x="255" y="290" fill="#a7b7bc">█</tspan><tspan x="264" y="290" fill="#739197">█</tspan><tspan x="274" y="290" fill="#4b676c">█</tspan><tspan x="283" y="290" fill="#1c2f34">█</tspan><tspan x="331" y="290" fill="#05151b">█</tspan><tspan x="341" y="290" fill="#172a31">█</tspan><tspan x="351" y="290" fill="#1b2c32">█</tspan>
<tspan x="15" y="310" fill="#0f171a">█</tspan><tspan x="24" y="310" fill="#677c83">█</tspan><tspan x="34" y="310" fill="#4e666e">█</tspan><tspan x="43" y="310" fill="#2e4249">█</tspan><tspan x="53" y="310" fill="#304148">█</tspan><tspan x="63" y="310" fill="#41545c">█</tspan><tspan x="72" y="310" fill="#18272a">█</tspan><tspan x="91" y="310" fill="#0e171a">█</tspan><tspan x="101" y="310" fill="#152025">█</tspan><tspan x="111" y="310" fill="#2e4147">█</tspan><tspan x="120" y="310" fill="#617d84">█</tspan><tspan x="130" y="310" fill="#8caab1">█</tspan><tspan x="139" y="310" fill="#9dc0c7">█</tspan><tspan x="149" y="310" fill="#9abbc1">█</tspan><tspan x="159" y="310" fill="#8aa6ac">█</tspan><tspan x="168" y="310" fill="#62777c">█</tspan><tspan x="178" y="310" fill="#465559">█</tspan><tspan x="187" y="310" fill="#465458">█</tspan><tspan x="197" y="310" fill="#5e7378">█</tspan><tspan x="207" y="310" fill="#87a3ab">█</tspan><tspan x="216" y="310" fill="#98b9c1">█</tspan><tspan x="226" y="310" fill="#a0c2c9">█</tspan><tspan x="235" y="310" fill="#8caab0">█</tspan><tspan x="245" y="310" fill="#617c82">█</tspan><tspan x="255" y="310" fill="#2e4145">█</tspan><tspan x="264" y="310" fill="#152023">█</tspan><tspan x="293" y="310" fill="#17252a">█</tspan><tspan x="303" y="310" fill="#42555c">█</tspan><tspan x="312" y="310" fill="#314147">█</tspan><tspan x="322" y="310" fill="#2e4147">█</tspan><tspan x="331" y="310" fill="#4c646b">█</tspan><tspan x="341" y="310" fill="#63787f">█</tspan><tspan x="351" y="310" fill="#0e171a">█</tspan>
<tspan x="15" y="330" fill="#142226">█</tspan><tspan x="24" y="330" fill="#627a80">█</tspan><tspan x="34" y="330" fill="#c1dbe1">█</tspan><tspan x="43" y="330" fill="#98b5bd">█</tspan><tspan x="53" y="330" fill="#637b82">█</tspan><tspan x="63" y="330" fill="#5e7076">█</tspan><tspan x="72" y="330" fill="#afccd3">█</tspan><tspan x="82" y="330" fill="#7a949b">█</tspan><tspan x="91" y="330" fill="#2f444a">█</tspan><tspan x="101" y="330" fill="#26353a">█</tspan><tspan x="111" y="330" fill="#242f33">█</tspan><tspan x="120" y="330" fill="#161e21">█</tspan><tspan x="130" y="330" fill="#2e4348">█</tspan><tspan x="139" y="330" fill="#43595e">█</tspan><tspan x="149" y="330" fill="#587076">█</tspan><tspan x="159" y="330" fill="#2e4249">█</tspan><tspan x="178" y="330" fill="#20353c">█</tspan><tspan x="187" y="330" fill="#21363d">█</tspan><tspan x="207" y="330" fill="#2d4146">█</tspan><tspan x="216" y="330" fill="#556c73">█</tspan><tspan x="226" y="330" fill="#435960">█</tspan><tspan x="235" y="330" fill="#30454a">█</tspan><tspan x="245" y="330" fill="#151e21">█</tspan><tspan x="255" y="330" fill="#222d31">█</tspan><tspan x="264" y="330" fill="#28373c">█</tspan><tspan x="274" y="330" fill="#304449">█</tspan><tspan x="283" y="330" fill="#7a949a">█</tspan><tspan x="293" y="330" fill="#b0ced5">█</tspan><tspan x="303" y="330" fill="#61747b">█</tspan><tspan x="312" y="330" fill="#657d83">█</tspan><tspan x="322" y="330" fill="#99b6be">█</tspan><tspan x="331" y="330" fill="#c3dbe0">█</tspan><tspan x="341" y="330" fill="#5f777e">█</tspan><tspan x="351" y="330" fill="#111f23">█</tspan>
<tspan x="15" y="350" fill="#0e1a1e">█</tspan><tspan x="24" y="350" fill="#233a41">█</tspan><tspan x="34" y="350" fill="#19272c">█</tspan><tspan x="43" y="350" fill="#475457">█</tspan><tspan x="53" y="350" fill="#667376">█</tspan><tspan x="72" y="350" fill="#232f33">█</tspan><tspan x="82" y="350" fill="#b2cacf">█</tspan><tspan x="91" y="350" fill="#bcd8e0">█</tspan><tspan x="101" y="350" fill="#5b7076">█</tspan><tspan x="111" y="350" fill="#19272e">█</tspan><tspan x="120" y="350" fill="#30434b">█</tspan><tspan x="130" y="350" fill="#334a52">█</tspan><tspan x="139" y="350" fill="#344b52">█</tspan><tspan x="149" y="350" fill="#486067">█</tspan><tspan x="159" y="350" fill="#445f68">█</tspan><tspan x="168" y="350" fill="#1e2628">█</tspan><tspan x="178" y="350" fill="#3e535a">█</tspan><tspan x="187" y="350" fill="#3f545c">█</tspan><tspan x="197" y="350" fill="#1d2426">█</tspan><tspan x="207" y="350" fill="#456066">█</tspan><tspan x="216" y="350" fill="#475f66">█</tspan><tspan x="226" y="350" fill="#364c55">█</tspan><tspan x="235" y="350" fill="#344b55">█</tspan><tspan x="245" y="350" fill="#2f434b">█</tspan><tspan x="255" y="350" fill="#19282d">█</tspan><tspan x="264" y="350" fill="#5b6f77">█</tspan><tspan x="274" y="350" fill="#bcd9e0">█</tspan><tspan x="283" y="350" fill="#b7ced2">█</tspan><tspan x="293" y="350" fill="#273539">█</tspan><tspan x="312" y="350" fill="#647073">█</tspan><tspan x="322" y="350" fill="#4a575a">█</tspan><tspan x="331" y="350" fill="#19262b">█</tspan><tspan x="341" y="350" fill="#23393f">█</tspan><tspan x="351" y="350" fill="#0b181b">█</tspan>
<tspan x="24" y="370" fill="#182a30">█</tspan><tspan x="43" y="370" fill="#11181a">█</tspan><tspan x="53" y="370" fill="#748488">█</tspan><tspan x="63" y="370" fill="#7a8789">█</tspan><tspan x="72" y="370" fill="#3e4446">█</tspan><tspan x="82" y="370" fill="#3f545b">█</tspan><tspan x="91" y="370" fill="#313c40">█</tspan><tspan x="101" y="370" fill="#212c2f">█</tspan><tspan x="111" y="370" fill="#172224">█</tspan><tspan x="120" y="370" fill="#0b1a1f">█</tspan><tspan x="130" y="370" fill="#1a2e36">█</tspan><tspan x="139" y="370" fill="#2e444a">█</tspan><tspan x="149" y="370" fill="#51696f">█</tspan><tspan x="159" y="370" fill="#4a656c">█</tspan><tspan x="168" y="370" fill="#1c2527">█</tspan><tspan x="178" y="370" fill="#3f555d">█</tspan><tspan x="187" y="370" fill="#41575f">█</tspan><tspan x="197" y="370" fill="#1b2426">█</tspan><tspan x="207" y="370" fill="#49656c">█</tspan><tspan x="216" y="370" fill="#4e686e">█</tspan><tspan x="226" y="370" fill="#31464d">█</tspan><tspan x="235" y="370" fill="#1b3038">█</tspan><tspan x="245" y="370" fill="#0c1c21">█</tspan><tspan x="255" y="370" fill="#182427">█</tspan><tspan x="264" y="370" fill="#222d30">█</tspan><tspan x="274" y="370" fill="#2f3a3e">█</tspan><tspan x="283" y="370" fill="#3e535a">█</tspan><tspan x="293" y="370" fill="#3d4346">█</tspan><tspan x="303" y="370" fill="#7a8688">█</tspan><tspan x="312" y="370" fill="#748388">█</tspan><tspan x="322" y="370" fill="#131a1e">█</tspan><tspan x="341" y="370" fill="#192b31">█</tspan>
<tspan x="34" y="390" fill="#142226">█</tspan><tspan x="63" y="390" fill="#637c83">█</tspan><tspan x="72" y="390" fill="#a5b1b4">█</tspan><tspan x="82" y="390" fill="#515d62">█</tspan><tspan x="91" y="390" fill="#1f2e32">█</tspan><tspan x="101" y="390" fill="#323f43">█</tspan><tspan x="111" y="390" fill="#a5bec4">█</tspan><tspan x="120" y="390" fill="#586e74">█</tspan><tspan x="139" y="390" fill="#2d4246">█</tspan><tspan x="149" y="390" fill="#50686e">█</tspan><tspan x="159" y="390" fill="#506c74">█</tspan><tspan x="168" y="390" fill="#1d2527">█</tspan><tspan x="178" y="390" fill="#3d525a">█</tspan><tspan x="187" y="390" fill="#41565e">█</tspan><tspan x="197" y="390" fill="#1b2326">█</tspan><tspan x="207" y="390" fill="#4e6a74">█</tspan><tspan x="216" y="390" fill="#4a656b">█</tspan><tspan x="226" y="390" fill="#2c4247">█</tspan><tspan x="245" y="390" fill="#586e74">█</tspan><tspan x="255" y="390" fill="#aac3c9">█</tspan><tspan x="264" y="390" fill="#344246">█</tspan><tspan x="274" y="390" fill="#1d2c31">█</tspan><tspan x="283" y="390" fill="#515e62">█</tspan><tspan x="293" y="390" fill="#a3afb2">█</tspan><tspan x="303" y="390" fill="#617a82">█</tspan><tspan x="331" y="390" fill="#122024">█</tspan>
<tspan x="63" y="410" fill="#172a2f">█</tspan><tspan x="82" y="410" fill="#232b2d">█</tspan><tspan x="91" y="410" fill="#1f282a">█</tspan><tspan x="111" y="410" fill="#445961">█</tspan><tspan x="120" y="410" fill="#304850">█</tspan><tspan x="139" y="410" fill="#263b40">█</tspan><tspan x="149" y="410" fill="#4c656e">█</tspan><tspan x="159" y="410" fill="#4d6871">█</tspan><tspan x="168" y="410" fill="#2f3d41">█</tspan><tspan x="178" y="410" fill="#566e78">█</tspan><tspan x="187" y="410" fill="#57717a">█</tspan><tspan x="197" y="410" fill="#2f3d42">█</tspan><tspan x="207" y="410" fill="#4c6771">█</tspan><tspan x="216" y="410" fill="#4a646c">█</tspan><tspan x="226" y="410" fill="#263b41">█</tspan><tspan x="245" y="410" fill="#30474f">█</tspan><tspan x="255" y="410" fill="#465d64">█</tspan><tspan x="274" y="410" fill="#20292b">█</tspan><tspan x="283" y="410" fill="#242d2e">█</tspan><tspan x="303" y="410" fill="#14282e">█</tspan>
<tspan x="72" y="430" fill="#121a1d">█</tspan><tspan x="82" y="430" fill="#262f32">█</tspan><tspan x="91" y="430" fill="#1b2425">█</tspan><tspan x="111" y="430" fill="#09151a">█</tspan><tspan x="130" y="430" fill="#0a181d">█</tspan><tspan x="139" y="430" fill="#364e55">█</tspan><tspan x="149" y="430" fill="#415b64">█</tspan><tspan x="159" y="430" fill="#405862">█</tspan><tspan x="168" y="430" fill="#6d8994">█</tspan><tspan x="178" y="430" fill="#7c9ba5">█</tspan><tspan x="187" y="430" fill="#7c9ba7">█</tspan><tspan x="197" y="430" fill="#698793">█</tspan><tspan x="207" y="430" fill="#415963">█</tspan><tspan x="216" y="430" fill="#425c66">█</tspan><tspan x="226" y="430" fill="#354d56">█</tspan><tspan x="235" y="430" fill="#0a181e">█</tspan><tspan x="255" y="430" fill="#0a171c">█</tspan><tspan x="264" y="430" fill="#0c161a">█</tspan><tspan x="274" y="430" fill="#1c2426">█</tspan><tspan x="283" y="430" fill="#252f32">█</tspan><tspan x="293" y="430" fill="#121b1e">█</tspan>
<tspan x="130" y="450" fill="#213036">█</tspan><tspan x="139" y="450" fill="#4a646f">█</tspan><tspan x="149" y="450" fill="#3c5661">█</tspan><tspan x="159" y="450" fill="#56717d">█</tspan><tspan x="168" y="450" fill="#6b8591">█</tspan><tspan x="178" y="450" fill="#8aa7b2">█</tspan><tspan x="187" y="450" fill="#8aa8b2">█</tspan><tspan x="197" y="450" fill="#6b8490">█</tspan><tspan x="207" y="450" fill="#58737e">█</tspan><tspan x="216" y="450" fill="#3b545f">█</tspan><tspan x="226" y="450" fill="#49636d">█</tspan><tspan x="235" y="450" fill="#223338">█</tspan>
<tspan x="139" y="470" fill="#3b484d">█</tspan><tspan x="149" y="470" fill="#475f69">█</tspan><tspan x="159" y="470" fill="#2b3a3f">█</tspan><tspan x="168" y="470" fill="#2e3b41">█</tspan><tspan x="178" y="470" fill="#354348">█</tspan><tspan x="187" y="470" fill="#354349">█</tspan><tspan x="197" y="470" fill="#2d3b40">█</tspan><tspan x="207" y="470" fill="#2a373c">█</tspan><tspan x="216" y="470" fill="#435c65">█</tspan><tspan x="226" y="470" fill="#3c4a4f">█</tspan>
<tspan x="168" y="490" fill="#2b373b">█</tspan><tspan x="178" y="490" fill="#1f2b30">█</tspan><tspan x="187" y="490" fill="#1f2a2f">█</tspan><tspan x="197" y="490" fill="#273438">█</tspan>

</text>
<text x="390" y="30" fill="#0a0a1a" filter="url(#lightGlow)">
<tspan x="390" y="30" fill="#94a3b8">nikita@dronov -————————————————————————————————————————————————————————-</tspan><tspan x="390" y="50"><tspan fill="#94a3b8">. </tspan><tspan fill="#008c9e">OS</tspan><tspan fill="#94a3b8">: </tspan><tspan fill="#94a3b8">..............................</tspan><tspan fill="#d6006e"> Linux, macOS, Windows</tspan></tspan><tspan x="390" y="70"><tspan fill="#94a3b8">. </tspan><tspan fill="#008c9e">Uptime</tspan><tspan fill="#94a3b8">: </tspan><tspan fill="#94a3b8">..................................</tspan><tspan fill="#d6006e"> 3 years in IT</tspan></tspan><tspan x="390" y="90"><tspan fill="#94a3b8">. </tspan><tspan fill="#008c9e">Host</tspan><tspan fill="#94a3b8">: </tspan><tspan fill="#94a3b8">.................................</tspan><tspan fill="#d6006e"> Ingosstrakh Bank</tspan></tspan><tspan x="390" y="110"><tspan fill="#94a3b8">. </tspan><tspan fill="#008c9e">Kernel</tspan><tspan fill="#94a3b8">: </tspan><tspan fill="#94a3b8">.............</tspan><tspan fill="#d6006e"> Lead Expert, Test Automation Group</tspan></tspan><tspan x="390" y="130"><tspan fill="#94a3b8">. </tspan><tspan fill="#008c9e">IDE</tspan><tspan fill="#94a3b8">: </tspan><tspan fill="#94a3b8">...................................</tspan><tspan fill="#d6006e"> PyCharm, VSCode</tspan></tspan><tspan x="390" y="150" fill="#94a3b8">. </tspan><tspan x="390" y="170"><tspan fill="#94a3b8">. </tspan><tspan fill="#008c9e">Languages.Programming</tspan><tspan fill="#94a3b8">: </tspan><tspan fill="#94a3b8">..........</tspan><tspan fill="#d6006e"> Python, SQL, HTML, CSS</tspan></tspan><tspan x="390" y="190"><tspan fill="#94a3b8">. </tspan><tspan fill="#008c9e">Languages.Computer</tspan><tspan fill="#94a3b8">: </tspan><tspan fill="#94a3b8">........</tspan><tspan fill="#d6006e"> JSON, YAML, Shell, Markdown</tspan></tspan><tspan x="390" y="210"><tspan fill="#94a3b8">. </tspan><tspan fill="#008c9e">Languages.Real</tspan><tspan fill="#94a3b8">: </tspan><tspan fill="#94a3b8">...........</tspan><tspan fill="#d6006e"> RU native / EN B1 / ES A1-A2</tspan></tspan><tspan x="390" y="230" fill="#94a3b8">. </tspan><tspan x="390" y="250"><tspan fill="#94a3b8">. </tspan><tspan fill="#008c9e">Hobbies.Software</tspan><tspan fill="#94a3b8">: </tspan><tspan fill="#94a3b8">...</tspan><tspan fill="#d6006e"> Test Automation, Microservices, Open Source</tspan></tspan><tspan x="390" y="270"><tspan fill="#94a3b8">. </tspan><tspan fill="#008c9e">Hobbies.Hardware</tspan><tspan fill="#94a3b8">: </tspan><tspan fill="#94a3b8">....................................</tspan><tspan fill="#d6006e"> —</tspan></tspan><tspan x="390" y="310" fill="#94a3b8">- Contact &amp; Links ——————————————————————————————————————————-</tspan><tspan x="390" y="330"><tspan fill="#94a3b8">. </tspan><tspan fill="#008c9e">Email.Personal</tspan><tspan fill="#94a3b8">: </tspan><tspan fill="#94a3b8">..............</tspan><tspan fill="#d6006e"> nikita.dronov.a@gmail.com</tspan></tspan><tspan x="390" y="350"><tspan fill="#94a3b8">. </tspan><tspan fill="#008c9e">Telegram</tspan><tspan fill="#94a3b8">: </tspan><tspan fill="#94a3b8">.....................................</tspan><tspan fill="#d6006e"> @drnvvna</tspan></tspan><tspan x="390" y="370"><tspan fill="#94a3b8">. </tspan><tspan fill="#008c9e">GitHub</tspan><tspan fill="#94a3b8">: </tspan><tspan fill="#94a3b8">.......................................</tspan><tspan fill="#d6006e"> DronovNA</tspan></tspan><tspan x="390" y="390"><tspan fill="#94a3b8">. </tspan><tspan fill="#008c9e">LinkedIn</tspan><tspan fill="#94a3b8">: </tspan><tspan fill="#94a3b8">.....</tspan><tspan fill="#d6006e"> linkedin.com/in/nikita-dronov-automation</tspan></tspan><tspan x="390" y="410"><tspan fill="#94a3b8">. </tspan><tspan fill="#008c9e">Product</tspan><tspan fill="#94a3b8">: </tspan><tspan fill="#94a3b8">.........................</tspan><tspan fill="#d6006e"> app.pairlingua.online</tspan></tspan><tspan x="390" y="450" fill="#94a3b8">- GitHub Stats ————————————————————————————————————————————————-</tspan><tspan x="390" y="470"><tspan fill="#94a3b8">. Repos: </tspan><tspan fill="#d6006e">8</tspan><tspan fill="#94a3b8"> {</tspan><tspan fill="#008c9e">Contributed</tspan><tspan fill="#94a3b8">: </tspan><tspan fill="#d6006e">8</tspan><tspan fill="#94a3b8">} | Stars: </tspan><tspan fill="#d6006e">0</tspan></tspan><tspan x="390" y="490"><tspan fill="#94a3b8">. Commits: </tspan><tspan fill="#d6006e">86</tspan><tspan fill="#94a3b8"> | Followers: </tspan><tspan fill="#d6006e">3</tspan></tspan><tspan x="390" y="510"><tspan fill="#94a3b8">. Lines of Code on GitHub: </tspan><tspan fill="#d6006e">5,912</tspan><tspan fill="#94a3b8"> ( </tspan><tspan fill="#047857">6,660++</tspan><tspan fill="#94a3b8">, </tspan><tspan fill="#be123c">748--</tspan><tspan fill="#94a3b8"> )</tspan></tspan>
</text>
</svg>