<?xml version='1.0' encoding='UTF-8'?>
<svg xmlns="http://www.w3.org/2000/svg" font-family="ConsolasFallback,Consolas,monospace" width="985px" height="530px" font-size="16px">
<defs>
<font-face>
<font-face-src>
<font-face-uri src="local('Consolas')"/>
</font-face-src>
</font-face>
<radialGradient id="lightBg" cx="50%" cy="30%" r="90%">
<stop offset="0%" stop-color="#e0f7ff"/>
<stop offset="100%" stop-color="#f0faff"/>
</radialGradient>
<filter id="lightGlow" x="-20%" y="-20%" width="140%" height="140%">
<feGaussianBlur stdDeviation="1.5" result="blur"/>
<feMerge>
<feMergeNode in="blur"/>
<feMergeNode in="SourceGraphic"/>
</feMerge>
</filter>
</defs>
<rect width="985px" height="530px" fill="url(#lightBg)" rx="15"/>
<text x="15" y="30" font-family="ConsolasFallback,Consolas,monospace" font-size="16px" filter="url(#lightGlow)">
<tspan x="15" y="30" fill="#f35d95">█</tspan><tspan x="24" y="30" fill="#f35c95">█</tspan><tspan x="34" y="30" fill="#f35c95">█</tspan><tspan x="43" y="30" fill="#f35b93">█</tspan><tspan x="53" y="30" fill="#f4528d">█</tspan><tspan x="63" y="30" fill="#f64283">█</tspan><tspan x="72" y="30" fill="#f54f8b">█</tspan><tspan x="82" y="30" fill="#f2649a">█</tspan><tspan x="91" y="30" fill="#f26399">█</tspan><tspan x="101" y="30" fill="#f26299">█</tspan><tspan x="111" y="30" fill="#f26097">█</tspan><tspan x="120" y="30" fill="#f35d95">█</tspan><tspan x="130" y="30" fill="#f4558f">█</tspan><tspan x="139" y="30" fill="#f64685">█</tspan><tspan x="149" y="30" fill="#f73b7d">█</tspan><tspan x="159" y="30" fill="#f73b7d">█</tspan><tspan x="168" y="30" fill="#f64283">█</tspan><tspan x="178" y="30" fill="#f64484">█</tspan><tspan x="187" y="30" fill="#f64685">█</tspan><tspan x="197" y="30" fill="#f54987">█</tspan><tspan x="207" y="30" fill="#f54b89">█</tspan><tspan x="216" y="30" fill="#f64383">█</tspan><tspan x="226" y="30" fill="#f73e80">█</tspan><tspan x="235" y="30" fill="#f73e80">█</tspan><tspan x="245" y="30" fill="#f64786">█</tspan><tspan x="255" y="30" fill="#f4548f">█</tspan><tspan x="264" y="30" fill="#f45791">█</tspan><tspan x="274" y="30" fill="#f4548f">█</tspan><tspan x="283" y="30" fill="#f4528d">█</tspan><tspan x="293" y="30" fill="#f4508c">█</tspan><tspan x="303" y="30" fill="#f4508c">█</tspan><tspan x="312" y="30" fill="#f54987">█</tspan><tspan x="322" y="30" fill="#f64685">█</tspan><tspan x="331" y="30" fill="#f64585">█</tspan><tspan x="341" y="30" fill="#f54d8a">█</tspan><tspan x="351" y="30" fill="#f4538e">█</tspan>
<tspan x="15" y="50" fill="#f64182">█</tspan><tspan x="24" y="50" fill="#f73d7f">█</tspan><tspan x="34" y="50" fill="#f83579">█</tspan><tspan x="43" y="50" fill="#f92d74">█</tspan><tspan x="53" y="50" fill="#fa256f">█</tspan><tspan x="63" y="50" fill="#fc1261">█</tspan><tspan x="72" y="50" fill="#f83378">█</tspan><tspan x="82" y="50" fill="#f73c7e">█</tspan><tspan x="91" y="50" fill="#f73e80">█</tspan><tspan x="101" y="50" fill="#f64585">█</tspan><tspan x="111" y="50" fill="#f45690">█</tspan><tspan x="120" y="50" fill="#f35c95">█</tspan><tspan x="130" y="50" fill="#f35c95">█</tspan><tspan x="139" y="50" fill="#f35992">█</tspan><tspan x="149" y="50" fill="#f35891">█</tspan><tspan x="159" y="50" fill="#f35992">█</tspan><tspan x="168" y="50" fill="#f35992">█</tspan><tspan x="178" y="50" fill="#f2649a">█</tspan><tspan x="187" y="50" fill="#f1689d">█</tspan><tspan x="197" y="50" fill="#f2659b">█</tspan><tspan x="207" y="50" fill="#f26097">█</tspan><tspan x="216" y="50" fill="#f45690">█</tspan><tspan x="226" y="50" fill="#f45690">█</tspan><tspan x="235" y="50" fill="#f35d95">█</tspan><tspan x="245" y="50" fill="#f2649a">█</tspan><tspan x="255" y="50" fill="#f26399">█</tspan><tspan x="264" y="50" fill="#f2649a">█</tspan><tspan x="274" y="50" fill="#f35a93">█</tspan><tspan x="283" y="50" fill="#f35891">█</tspan><tspan x="293" y="50" fill="#f35d95">█</tspan><tspan x="303" y="50" fill="#f35e96">█</tspan><tspan x="312" y="50" fill="#f35992">█</tspan><tspan x="322" y="50" fill="#f4508c">█</tspan><tspan x="331" y="50" fill="#f54d8a">█</tspan><tspan x="341" y="50" fill="#f45791">█</tspan><tspan x="351" y="50" fill="#f26097">█</tspan>
<tspan x="15" y="70" fill="#f64786">█</tspan><tspan x="24" y="70" fill="#f73a7d">█</tspan><tspan x="34" y="70" fill="#fa226d">█</tspan><tspan x="43" y="70" fill="#fc1362">█</tspan><tspan x="53" y="70" fill="#fd0d5e">█</tspan><tspan x="63" y="70" fill="#fd0b5d">█</tspan><tspan x="72" y="70" fill="#fc1664">█</tspan><tspan x="82" y="70" fill="#fc1362">█</tspan><tspan x="91" y="70" fill="#fd0e5f">█</tspan><tspan x="101" y="70" fill="#fb1966">█</tspan><tspan x="111" y="70" fill="#f92f75">█</tspan><tspan x="120" y="70" fill="#fb1e6a">█</tspan><tspan x="130" y="70" fill="#f83378">█</tspan><tspan x="139" y="70" fill="#f16b9f">█</tspan><tspan x="149" y="70" fill="#eaa2c5">█</tspan><tspan x="159" y="70" fill="#e7bcd7">█</tspan><tspan x="168" y="70" fill="#e5cde2">█</tspan><tspan x="178" y="70" fill="#e3d8ea">█</tspan><tspan x="187" y="70" fill="#e3d8e9">█</tspan><tspan x="197" y="70" fill="#e3d8e9">█</tspan><tspan x="207" y="70" fill="#e3d8e9">█</tspan><tspan x="216" y="70" fill="#e6c3db">█</tspan><tspan x="226" y="70" fill="#eaa4c6">█</tspan><tspan x="235" y="70" fill="#f077a7">█</tspan><tspan x="245" y="70" fill="#f4558f">█</tspan><tspan x="255" y="70" fill="#f26198">█</tspan><tspan x="264" y="70" fill="#f26399">█</tspan><tspan x="274" y="70" fill="#f35c94">█</tspan><tspan x="283" y="70" fill="#f35891">█</tspan><tspan x="293" y="70" fill="#f4558f">█</tspan><tspan x="303" y="70" fill="#f45791">█</tspan><tspan x="312" y="70" fill="#f35a93">█</tspan><tspan x="322" y="70" fill="#f4528d">█</tspan><tspan x="331" y="70" fill="#f4548f">█</tspan><tspan x="341" y="70" fill="#f35b93">█</tspan><tspan x="351" y="70" fill="#f35c94">█</tspan>
<tspan x="15" y="90" fill="#f64585">█</tspan><tspan x="24" y="90" fill="#f64383">█</tspan><tspan x="34" y="90" fill="#f64585">█</tspan><tspan x="43" y="90" fill="#f64685">█</tspan><tspan x="53" y="90" fill="#f64585">█</tspan><tspan x="63" y="90" fill="#f64383">█</tspan><tspan x="72" y="90" fill="#f64081">█</tspan><tspan x="82" y="90" fill="#f73e80">█</tspan><tspan x="91" y="90" fill="#f7397c">█</tspan><tspan x="101" y="90" fill="#f73b7d">█</tspan><tspan x="111" y="90" fill="#f73b7d">█</tspan><tspan x="120" y="90" fill="#f16da0">█</tspan><tspan x="130" y="90" fill="#f2669b">█</tspan><tspan x="139" y="90" fill="#f26097">█</tspan><tspan x="149" y="90" fill="#f26299">█</tspan><tspan x="159" y="90" fill="#f35e96">█</tspan><tspan x="168" y="90" fill="#f26198">█</tspan><tspan x="178" y="90" fill="#f2669b">█</tspan><tspan x="187" y="90" fill="#ee80ad">█</tspan><tspan x="197" y="90" fill="#ee85b1">█</tspan><tspan x="207" y="90" fill="#ef78a7">█</tspan><tspan x="216" y="90" fill="#ef7eac">█</tspan><tspan x="226" y="90" fill="#ed8bb5">█</tspan><tspan x="235" y="90" fill="#eb99be">█</tspan><tspan x="245" y="90" fill="#f074a5">█</tspan><tspan x="255" y="90" fill="#f73b7d">█</tspan><tspan x="264" y="90" fill="#f63f81">█</tspan><tspan x="274" y="90" fill="#f63f81">█</tspan><tspan x="283" y="90" fill="#f64383">█</tspan><tspan x="293" y="90" fill="#f54c89">█</tspan><tspan x="303" y="90" fill="#f4518d">█</tspan><tspan x="312" y="90" fill="#f4518d">█</tspan><tspan x="322" y="90" fill="#f4508c">█</tspan><tspan x="331" y="90" fill="#f54a88">█</tspan><tspan x="341" y="90" fill="#f64585">█</tspan><tspan x="351" y="90" fill="#f64283">█</tspan>
<tspan x="15" y="110" fill="#f64786">█</tspan><tspan x="24" y="110" fill="#f64585">█</tspan><tspan x="34" y="110" fill="#f64182">█</tspan><tspan x="43" y="110" fill="#f64081">█</tspan><tspan x="53" y="110" fill="#f64182">█</tspan><tspan x="63" y="110" fill="#f64383">█</tspan><tspan x="72" y="110" fill="#f64685">█</tspan><tspan x="82" y="110" fill="#f64786">█</tspan><tspan x="91" y="110" fill="#f54887">█</tspan><tspan x="101" y="110" fill="#f73a7d">█</tspan><tspan x="111" y="110" fill="#ec97bd">█</tspan><tspan x="120" y="110" fill="#eaa4c6">█</tspan><tspan x="130" y="110" fill="#f54c89">█</tspan><tspan x="139" y="110" fill="#f64786">█</tspan><tspan x="149" y="110" fill="#f4518d">█</tspan><tspan x="159" y="110" fill="#f4508c">█</tspan><tspan x="168" y="110" fill="#f4508c">█</tspan><tspan x="178" y="110" fill="#f54d8a">█</tspan><tspan x="187" y="110" fill="#f64484">█</tspan><tspan x="197" y="110" fill="#f73e80">█</tspan><tspan x="207" y="110" fill="#f7387b">█</tspan><tspan x="216" y="110" fill="#f83076">█</tspan><tspan x="226" y="110" fill="#fa2770">█</tspan><tspan x="235" y="110" fill="#f92971">█</tspan><tspan x="245" y="110" fill="#f73c7e">█</tspan><tspan x="255" y="110" fill="#f2659b">█</tspan><tspan x="264" y="110" fill="#f54c89">█</tspan><tspan x="274" y="110" fill="#f64081">█</tspan><tspan x="283" y="110" fill="#f54e8b">█</tspan><tspan x="293" y="110" fill="#f4558f">█</tspan><tspan x="303" y="110" fill="#f4538e">█</tspan><tspan x="312" y="110" fill="#f4528d">█</tspan><tspan x="322" y="110" fill="#f4548f">█</tspan><tspan x="331" y="110" fill="#f35a93">█</tspan><tspan x="341" y="110" fill="#f35c94">█</tspan><tspan x="351" y="110" fill="#f4528d">█</tspan>
<tspan x="15" y="130" fill="#f54987">█</tspan><tspan x="24" y="130" fill="#f64685">█</tspan><tspan x="34" y="130" fill="#f64585">█</tspan><tspan x="43" y="130" fill="#f64585">█</tspan><tspan x="53" y="130" fill="#f64585">█</tspan><tspan x="63" y="130" fill="#f64585">█</tspan><tspan x="72" y="130" fill="#f64585">█</tspan><tspan x="82" y="130" fill="#f64484">█</tspan><tspan x="91" y="130" fill="#f7387b">█</tspan><tspan x="101" y="130" fill="#f4508c">█</tspan><tspan x="111" y="130" fill="#e5c8df">█</tspan><tspan x="120" y="130" fill="#ee84b0">█</tspan><tspan x="130" y="130" fill="#f26198">█</tspan><tspan x="139" y="130" fill="#f2669b">█</tspan><tspan x="149" y="130" fill="#f16b9f">█</tspan><tspan x="159" y="130" fill="#f26399">█</tspan><tspan x="168" y="130" fill="#f45791">█</tspan><tspan x="178" y="130" fill="#f26299">█</tspan><tspan x="187" y="130" fill="#f1689d">█</tspan><tspan x="197" y="130" fill="#f35b93">█</tspan><tspan x="207" y="130" fill="#f4518d">█</tspan><tspan x="216" y="130" fill="#f54b89">█</tspan><tspan x="226" y="130" fill="#f64685">█</tspan><tspan x="235" y="130" fill="#f64484">█</tspan><tspan x="245" y="130" fill="#f83579">█</tspan><tspan x="255" y="130" fill="#f35d95">█</tspan><tspan x="264" y="130" fill="#ef7aa9">█</tspan><tspan x="274" y="130" fill="#f64283">█</tspan><tspan x="283" y="130" fill="#f4518d">█</tspan><tspan x="293" y="130" fill="#f4508c">█</tspan><tspan x="303" y="130" fill="#f4518d">█</tspan><tspan x="312" y="130" fill="#f4518d">█</tspan><tspan x="322" y="130" fill="#f4538e">█</tspan><tspan x="331" y="130" fill="#f45690">█</tspan><tspan x="341" y="130" fill="#f45690">█</tspan><tspan x="351" y="130" fill="#f35891">█</tspan>
<tspan x="15" y="150" fill="#f4548f">█</tspan><tspan x="24" y="150" fill="#f4528d">█</tspan><tspan x="34" y="150" fill="#f4528d">█</tspan><tspan x="43" y="150" fill="#f4518d">█</tspan><tspan x="53" y="150" fill="#f4518d">█</tspan><tspan x="63" y="150" fill="#f4508c">█</tspan><tspan x="72" y="150" fill="#f54d8a">█</tspan><tspan x="82" y="150" fill="#f54c89">█</tspan><tspan x="91" y="150" fill="#f83579">█</tspan><tspan x="101" y="150" fill="#ee81ae">█</tspan><tspan x="111" y="150" fill="#e8afcd">█</tspan><tspan x="120" y="150" fill="#ef7aa9">█</tspan><tspan x="130" y="150" fill="#e9aaca">█</tspan><tspan x="139" y="150" fill="#e7b8d3">█</tspan><tspan x="149" y="150" fill="#e6c1da">█</tspan><tspan x="159" y="150" fill="#e5c9df">█</tspan><tspan x="168" y="150" fill="#e8b6d2">█</tspan><tspan x="178" y="150" fill="#ed8fb7">█</tspan><tspan x="187" y="150" fill="#ef7dab">█</tspan><tspan x="197" y="150" fill="#ec92b9">█</tspan><tspan x="207" y="150" fill="#eb9abf">█</tspan><tspan x="216" y="150" fill="#ed8db6">█</tspan><tspan x="226" y="150" fill="#f16da0">█</tspan><tspan x="235" y="150" fill="#f4548f">█</tspan><tspan x="245" y="150" fill="#f64081">█</tspan><tspan x="255" y="150" fill="#ee82af">█</tspan><tspan x="264" y="150" fill="#f077a7">█</tspan><tspan x="274" y="150" fill="#f64383">█</tspan><tspan x="283" y="150" fill="#f35992">█</tspan><tspan x="293" y="150" fill="#f35891">█</tspan><tspan x="303" y="150" fill="#f35891">█</tspan><tspan x="312" y="150" fill="#f35a93">█</tspan><tspan x="322" y="150" fill="#f35b93">█</tspan><tspan x="331" y="150" fill="#f35b93">█</tspan><tspan x="341" y="150" fill="#f35c94">█</tspan><tspan x="351" y="150" fill="#f35c94">█</tspan>
<tspan x="15" y="170" fill="#f16a9e">█</tspan><tspan x="24" y="170" fill="#f16a9e">█</tspan><tspan x="34" y="170" fill="#f1679c">█</tspan><tspan x="43" y="170" fill="#f1699d">█</tspan><tspan x="53" y="170" fill="#f1679c">█</tspan><tspan x="63" y="170" fill="#f35b93">█</tspan><tspan x="72" y="170" fill="#f4558f">█</tspan><tspan x="82" y="170" fill="#f64786">█</tspan><tspan x="91" y="170" fill="#f076a6">█</tspan><tspan x="101" y="170" fill="#e9abcb">█</tspan><tspan x="111" y="170" fill="#f070a2">█</tspan><tspan x="120" y="170" fill="#ef7cab">█</tspan><tspan x="130" y="170" fill="#e6bfd9">█</tspan><tspan x="139" y="170" fill="#e3dced">█</tspan><tspan x="149" y="170" fill="#e2e0ef">█</tspan><tspan x="159" y="170" fill="#e2e2f1">█</tspan><tspan x="168" y="170" fill="#e1ebf7">█</tspan><tspan x="178" y="170" fill="#e9adcc">█</tspan><tspan x="187" y="170" fill="#f4558f">█</tspan><tspan x="197" y="170" fill="#e4d0e4">█</tspan><tspan x="207" y="170" fill="#e0f7ff">█</tspan><tspan x="216" y="170" fill="#e0f7ff">█</tspan><tspan x="226" y="170" fill="#e1eef9">█</tspan><tspan x="235" y="170" fill="#e3dbec">█</tspan><tspan x="245" y="170" fill="#ef7eac">█</tspan><tspan x="255" y="170" fill="#f2669b">█</tspan><tspan x="264" y="170" fill="#f45690">█</tspan><tspan x="274" y="170" fill="#f54e8b">█</tspan><tspan x="283" y="170" fill="#f35e96">█</tspan><tspan x="293" y="170" fill="#f35e96">█</tspan><tspan x="303" y="170" fill="#f26097">█</tspan><tspan x="312" y="170" fill="#f26299">█</tspan><tspan x="322" y="170" fill="#f2649a">█</tspan><tspan x="331" y="170" fill="#f2659b">█</tspan><tspan x="341" y="170" fill="#f2659b">█</tspan><tspan x="351" y="170" fill="#f2659b">█</tspan>
<tspan x="15" y="190" fill="#f2649a">█</tspan><tspan x="24" y="190" fill="#f2659b">█</tspan><tspan x="34" y="190" fill="#f1699d">█</tspan><tspan x="43" y="190" fill="#f4528d">█</tspan><tspan x="53" y="190" fill="#f8367a">█</tspan><tspan x="63" y="190" fill="#f73c7e">█</tspan><tspan x="72" y="190" fill="#f64383">█</tspan><tspan x="82" y="190" fill="#f54887">█</tspan><tspan x="91" y="190" fill="#f2659b">█</tspan><tspan x="101" y="190" fill="#eb9dc1">█</tspan><tspan x="111" y="190" fill="#f26399">█</tspan><tspan x="120" y="190" fill="#f16fa1">█</tspan><tspan x="130" y="190" fill="#f35891">█</tspan><tspan x="139" y="190" fill="#f4538e">█</tspan><tspan x="149" y="190" fill="#f25f97">█</tspan><tspan x="159" y="190" fill="#f16fa1">█</tspan><tspan x="168" y="190" fill="#ef7aa9">█</tspan><tspan x="178" y="190" fill="#f54d8a">█</tspan><tspan x="187" y="190" fill="#fc1261">█</tspan><tspan x="197" y="190" fill="#f54d8a">█</tspan><tspan x="207" y="190" fill="#f16fa1">█</tspan><tspan x="216" y="190" fill="#f075a5">█</tspan><tspan x="226" y="190" fill="#f16b9f">█</tspan><tspan x="235" y="190" fill="#f35c94">█</tspan><tspan x="245" y="190" fill="#f54b89">█</tspan><tspan x="255" y="190" fill="#f4508c">█</tspan><tspan x="264" y="190" fill="#ee83af">█</tspan><tspan x="274" y="190" fill="#f35e96">█</tspan><tspan x="283" y="190" fill="#f26399">█</tspan><tspan x="293" y="190" fill="#f2659b">█</tspan><tspan x="303" y="190" fill="#f1679c">█</tspan><tspan x="312" y="190" fill="#f1699d">█</tspan><tspan x="322" y="190" fill="#f16a9e">█</tspan><tspan x="331" y="190" fill="#f16a9e">█</tspan><tspan x="341" y="190" fill="#f1699d">█</tspan><tspan x="351" y="190" fill="#f1689d">█</tspan>
<tspan x="15" y="210" fill="#f54a88">█</tspan><tspan x="24" y="210" fill="#f54f8b">█</tspan><tspan x="34" y="210" fill="#f92971">█</tspan><tspan x="43" y="210" fill="#fe0458">█</tspan><tspan x="53" y="210" fill="#f73a7d">█</tspan><tspan x="63" y="210" fill="#f54c89">█</tspan><tspan x="72" y="210" fill="#f4548f">█</tspan><tspan x="82" y="210" fill="#f45690">█</tspan><tspan x="91" y="210" fill="#f35e96">█</tspan><tspan x="101" y="210" fill="#f071a3">█</tspan><tspan x="111" y="210" fill="#ee81ae">█</tspan><tspan x="120" y="210" fill="#eaa3c5">█</tspan><tspan x="130" y="210" fill="#ec97bd">█</tspan><tspan x="139" y="210" fill="#ef79a8">█</tspan><tspan x="149" y="210" fill="#f071a3">█</tspan><tspan x="159" y="210" fill="#ed8fb7">█</tspan><tspan x="168" y="210" fill="#e7bbd6">█</tspan><tspan x="178" y="210" fill="#e6c2db">█</tspan><tspan x="187" y="210" fill="#eaa6c7">█</tspan><tspan x="197" y="210" fill="#ef7ba9">█</tspan><tspan x="207" y="210" fill="#ef79a8">█</tspan><tspan x="216" y="210" fill="#f16b9f">█</tspan><tspan x="226" y="210" fill="#f64685">█</tspan><tspan x="235" y="210" fill="#f4528d">█</tspan><tspan x="245" y="210" fill="#f54c89">█</tspan><tspan x="255" y="210" fill="#f45791">█</tspan><tspan x="264" y="210" fill="#f54b89">█</tspan><tspan x="274" y="210" fill="#f54887">█</tspan><tspan x="283" y="210" fill="#f1699d">█</tspan><tspan x="293" y="210" fill="#f1699d">█</tspan><tspan x="303" y="210" fill="#f16c9f">█</tspan><tspan x="312" y="210" fill="#f1689d">█</tspan><tspan x="322" y="210" fill="#f2669b">█</tspan><tspan x="331" y="210" fill="#f1679c">█</tspan><tspan x="341" y="210" fill="#f16b9f">█</tspan><tspan x="351" y="210" fill="#f16da0">█</tspan>
<tspan x="15" y="230" fill="#f73d7f">█</tspan><tspan x="24" y="230" fill="#f64383">█</tspan><tspan x="34" y="230" fill="#fa206b">█</tspan><tspan x="43" y="230" fill="#fe0659">█</tspan><tspan x="53" y="230" fill="#f8377b">█</tspan><tspan x="63" y="230" fill="#f64283">█</tspan><tspan x="72" y="230" fill="#f45791">█</tspan><tspan x="82" y="230" fill="#f35891">█</tspan><tspan x="91" y="230" fill="#f54c89">█</tspan><tspan x="101" y="230" fill="#f73d7f">█</tspan><tspan x="111" y="230" fill="#ed87b2">█</tspan><tspan x="120" y="230" fill="#e9abcb">█</tspan><tspan x="130" y="230" fill="#eaa0c3">█</tspan><tspan x="139" y="230" fill="#e7b9d5">█</tspan><tspan x="149" y="230" fill="#e6c0d9">█</tspan><tspan x="159" y="230" fill="#e9aaca">█</tspan><tspan x="168" y="230" fill="#e7bbd6">█</tspan><tspan x="178" y="230" fill="#e5c7de">█</tspan><tspan x="187" y="230" fill="#e6c0d9">█</tspan><tspan x="197" y="230" fill="#ec96bc">█</tspan><tspan x="207" y="230" fill="#ed8bb5">█</tspan><tspan x="216" y="230" fill="#e9a7c8">█</tspan><tspan x="226" y="230" fill="#ed8eb7">█</tspan><tspan x="235" y="230" fill="#ee80ad">█</tspan><tspan x="245" y="230" fill="#f070a2">█</tspan><tspan x="255" y="230" fill="#f16a9e">█</tspan><tspan x="264" y="230" fill="#f35891">█</tspan><tspan x="274" y="230" fill="#fa206b">█</tspan><tspan x="283" y="230" fill="#f92a72">█</tspan><tspan x="293" y="230" fill="#f4548f">█</tspan><tspan x="303" y="230" fill="#f4508c">█</tspan><tspan x="312" y="230" fill="#f26299">█</tspan><tspan x="322" y="230" fill="#ee82af">█</tspan><tspan x="331" y="230" fill="#ed89b3">█</tspan><tspan x="341" y="230" fill="#f16c9f">█</tspan><tspan x="351" y="230" fill="#f26097">█</tspan>
<tspan x="15" y="250" fill="#eb9abf">█</tspan><tspan x="24" y="250" fill="#ec91b9">█</tspan><tspan x="34" y="250" fill="#f92f75">█</tspan><tspan x="43" y="250" fill="#ff0055">█</tspan><tspan x="53" y="250" fill="#fb1a67">█</tspan><tspan x="63" y="250" fill="#f8377b">█</tspan><tspan x="72" y="250" fill="#fa246e">█</tspan><tspan x="82" y="250" fill="#fc1765">█</tspan><tspan x="91" y="250" fill="#fc1664">█</tspan><tspan x="101" y="250" fill="#fb1b67">█</tspan><tspan x="111" y="250" fill="#f16a9e">█</tspan><tspan x="120" y="250" fill="#eaa5c7">█</tspan><tspan x="130" y="250" fill="#e8b0ce">█</tspan><tspan x="139" y="250" fill="#e9aecd">█</tspan><tspan x="149" y="250" fill="#e9aaca">█</tspan><tspan x="159" y="250" fill="#e6c0d9">█</tspan><tspan x="168" y="250" fill="#e5c9df">█</tspan><tspan x="178" y="250" fill="#e6c0d9">█</tspan><tspan x="187" y="250" fill="#e8b1cf">█</tspan><tspan x="197" y="250" fill="#eb9abf">█</tspan><tspan x="207" y="250" fill="#e9a8c9">█</tspan><tspan x="216" y="250" fill="#e9adcc">█</tspan><tspan x="226" y="250" fill="#ed8cb5">█</tspan><tspan x="235" y="250" fill="#f35a93">█</tspan><tspan x="245" y="250" fill="#fa266f">█</tspan><tspan x="255" y="250" fill="#f2659b">█</tspan><tspan x="264" y="250" fill="#f075a5">█</tspan><tspan x="274" y="250" fill="#f35c95">█</tspan><tspan x="283" y="250" fill="#fc1563">█</tspan><tspan x="293" y="250" fill="#fa1f6b">█</tspan><tspan x="303" y="250" fill="#ed8eb7">█</tspan><tspan x="312" y="250" fill="#e8b0ce">█</tspan><tspan x="322" y="250" fill="#e7b9d5">█</tspan><tspan x="331" y="250" fill="#e8b5d1">█</tspan><tspan x="341" y="250" fill="#e8b0ce">█</tspan><tspan x="351" y="250" fill="#eaa6c7">█</tspan>
<tspan x="15" y="270" fill="#e7b9d4">█</tspan><tspan x="24" y="270" fill="#f64685">█</tspan><tspan x="34" y="270" fill="#ff0055">█</tspan><tspan x="43" y="270" fill="#fc1060">█</tspan><tspan x="53" y="270" fill="#fe0156">█</tspan><tspan x="63" y="270" fill="#fd095b">█</tspan><tspan x="72" y="270" fill="#f8367a">█</tspan><tspan x="82" y="270" fill="#f64283">█</tspan><tspan x="91" y="270" fill="#f54c89">█</tspan><tspan x="101" y="270" fill="#eb9cc1">█</tspan><tspan x="111" y="270" fill="#f074a5">█</tspan><tspan x="120" y="270" fill="#ee7fad">█</tspan><tspan x="130" y="270" fill="#eaa3c5">█</tspan><tspan x="139" y="270" fill="#ea9fc3">█</tspan><tspan x="149" y="270" fill="#eb99be">█</tspan><tspan x="159" y="270" fill="#ec94bb">█</tspan><tspan x="168" y="270" fill="#ec92b9">█</tspan><tspan x="178" y="270" fill="#ed8cb5">█</tspan><tspan x="187" y="270" fill="#ef7eac">█</tspan><tspan x="197" y="270" fill="#f076a6">█</tspan><tspan x="207" y="270" fill="#f16da0">█</tspan><tspan x="216" y="270" fill="#ee7fad">█</tspan><tspan x="226" y="270" fill="#ee7fad">█</tspan><tspan x="235" y="270" fill="#ee83af">█</tspan><tspan x="245" y="270" fill="#fb1e6a">█</tspan><tspan x="255" y="270" fill="#fe0559">█</tspan><tspan x="264" y="270" fill="#f73e80">█</tspan><tspan x="274" y="270" fill="#f2669b">█</tspan><tspan x="283" y="270" fill="#f54d8a">█</tspan><tspan x="293" y="270" fill="#fe0156">█</tspan><tspan x="303" y="270" fill="#ee85b1">█</tspan><tspan x="312" y="270" fill="#e6c2db">█</tspan><tspan x="322" y="270" fill="#e8b0ce">█</tspan><tspan x="331" y="270" fill="#e8b4d1">█</tspan><tspan x="341" y="270" fill="#e7bdd7">█</tspan><tspan x="351" y="270" fill="#e6c0d9">█</tspan>
<tspan x="15" y="290" fill="#f26399">█</tspan><tspan x="24" y="290" fill="#fc1362">█</tspan><tspan x="34" y="290" fill="#ff0055">█</tspan><tspan x="43" y="290" fill="#ff0055">█</tspan><tspan x="53" y="290" fill="#fc1261">█</tspan><tspan x="63" y="290" fill="#fd0e5f">█</tspan><tspan x="72" y="290" fill="#fc1563">█</tspan><tspan x="82" y="290" fill="#fe0458">█</tspan><tspan x="91" y="290" fill="#fc1060">█</tspan><tspan x="101" y="290" fill="#e8b1cf">█</tspan><tspan x="111" y="290" fill="#f1679c">█</tspan><tspan x="120" y="290" fill="#ef79a8">█</tspan><tspan x="130" y="290" fill="#ec94bb">█</tspan><tspan x="139" y="290" fill="#e9accb">█</tspan><tspan x="149" y="290" fill="#e5c8df">█</tspan><tspan x="159" y="290" fill="#e4d6e8">█</tspan><tspan x="168" y="290" fill="#e4d0e4">█</tspan><tspan x="178" y="290" fill="#e6c4dc">█</tspan><tspan x="187" y="290" fill="#e8b3d0">█</tspan><tspan x="197" y="290" fill="#eb9abf">█</tspan><tspan x="207" y="290" fill="#ef7eac">█</tspan><tspan x="216" y="290" fill="#f54987">█</tspan><tspan x="226" y="290" fill="#ef7aa9">█</tspan><tspan x="235" y="290" fill="#f16da0">█</tspan><tspan x="245" y="290" fill="#f63f81">█</tspan><tspan x="255" y="290" fill="#fa2770">█</tspan><tspan x="264" y="290" fill="#ff0055">█</tspan><tspan x="274" y="290" fill="#fa226d">█</tspan><tspan x="283" y="290" fill="#f92a72">█</tspan><tspan x="293" y="290" fill="#fe0156">█</tspan><tspan x="303" y="290" fill="#fc1463">█</tspan><tspan x="312" y="290" fill="#e9a9c9">█</tspan><tspan x="322" y="290" fill="#e7bcd7">█</tspan><tspan x="331" y="290" fill="#e7bbd6">█</tspan><tspan x="341" y="290" fill="#e7bed8">█</tspan><tspan x="351" y="290" fill="#e6bfd9">█</tspan>
<tspan x="15" y="310" fill="#ed88b3">█</tspan><tspan x="24" y="310" fill="#f4548f">█</tspan><tspan x="34" y="310" fill="#f2659b">█</tspan><tspan x="43" y="310" fill="#f64786">█</tspan><tspan x="53" y="310" fill="#fc1362">█</tspan><tspan x="63" y="310" fill="#fc1060">█</tspan><tspan x="72" y="310" fill="#fd0b5d">█</tspan><tspan x="82" y="310" fill="#fe0055">█</tspan><tspan x="91" y="310" fill="#ff0055">█</tspan><tspan x="101" y="310" fill="#f26399">█</tspan><tspan x="111" y="310" fill="#f077a7">█</tspan><tspan x="120" y="310" fill="#ef7dab">█</tspan><tspan x="130" y="310" fill="#ed8ab4">█</tspan><tspan x="139" y="310" fill="#ec94bb">█</tspan><tspan x="149" y="310" fill="#e9a7c8">█</tspan><tspan x="159" y="310" fill="#e6c4dc">█</tspan><tspan x="168" y="310" fill="#e4d0e4">█</tspan><tspan x="178" y="310" fill="#e7bed8">█</tspan><tspan x="187" y="310" fill="#ed8db6">█</tspan><tspan x="197" y="310" fill="#f26097">█</tspan><tspan x="207" y="310" fill="#f4508c">█</tspan><tspan x="216" y="310" fill="#f16da0">█</tspan><tspan x="226" y="310" fill="#e7bdd7">█</tspan><tspan x="235" y="310" fill="#fc1765">█</tspan><tspan x="245" y="310" fill="#ff0055">█</tspan><tspan x="255" y="310" fill="#fd0e5f">█</tspan><tspan x="264" y="310" fill="#fe0055">█</tspan><tspan x="274" y="310" fill="#ff0055">█</tspan><tspan x="283" y="310" fill="#ff0055">█</tspan><tspan x="293" y="310" fill="#ff0055">█</tspan><tspan x="303" y="310" fill="#fe0357">█</tspan><tspan x="312" y="310" fill="#ec94bb">█</tspan><tspan x="322" y="310" fill="#e7bdd7">█</tspan><tspan x="331" y="310" fill="#e8b7d3">█</tspan><tspan x="341" y="310" fill="#e7b9d5">█</tspan><tspan x="351" y="310" fill="#e7bad5">█</tspan>
<tspan x="15" y="330" fill="#ef79a8">█</tspan><tspan x="24" y="330" fill="#ec96bc">█</tspan><tspan x="34" y="330" fill="#e5c7de">█</tspan><tspan x="43" y="330" fill="#e0f6fe">█</tspan><tspan x="53" y="330" fill="#e3dbec">█</tspan><tspan x="63" y="330" fill="#e9accb">█</tspan><tspan x="72" y="330" fill="#ec94bb">█</tspan><tspan x="82" y="330" fill="#f16b9f">█</tspan><tspan x="91" y="330" fill="#f73a7d">█</tspan><tspan x="101" y="330" fill="#fb1a67">█</tspan><tspan x="111" y="330" fill="#fa2770">█</tspan><tspan x="120" y="330" fill="#f35992">█</tspan><tspan x="130" y="330" fill="#ed8cb5">█</tspan><tspan x="139" y="330" fill="#eb9abf">█</tspan><tspan x="149" y="330" fill="#ec90b8">█</tspan><tspan x="159" y="330" fill="#ec92b9">█</tspan><tspan x="168" y="330" fill="#ec96bc">█</tspan><tspan x="178" y="330" fill="#ef7eac">█</tspan><tspan x="187" y="330" fill="#f16a9e">█</tspan><tspan x="197" y="330" fill="#f16ea1">█</tspan><tspan x="207" y="330" fill="#f2659b">█</tspan><tspan x="216" y="330" fill="#f64484">█</tspan><tspan x="226" y="330" fill="#fb1966">█</tspan><tspan x="235" y="330" fill="#ff0055">█</tspan><tspan x="245" y="330" fill="#ff0055">█</tspan><tspan x="255" y="330" fill="#ff0055">█</tspan><tspan x="264" y="330" fill="#fe0559">█</tspan><tspan x="274" y="330" fill="#fc1161">█</tspan><tspan x="283" y="330" fill="#f92b73">█</tspan><tspan x="293" y="330" fill="#f35891">█</tspan><tspan x="303" y="330" fill="#ef78a7">█</tspan><tspan x="312" y="330" fill="#ed8db6">█</tspan><tspan x="322" y="330" fill="#e8b6d2">█</tspan><tspan x="331" y="330" fill="#e6c2db">█</tspan><tspan x="341" y="330" fill="#e7bed8">█</tspan><tspan x="351" y="330" fill="#e7b8d3">█</tspan>
<tspan x="15" y="350" fill="#e8b4d1">█</tspan><tspan x="24" y="350" fill="#e3dded">█</tspan><tspan x="34" y="350" fill="#e7b9d4">█</tspan><tspan x="43" y="350" fill="#e6c0d9">█</tspan><tspan x="53" y="350" fill="#e0f7ff">█</tspan><tspan x="63" y="350" fill="#e0f7ff">█</tspan><tspan x="72" y="350" fill="#e0f0fa">█</tspan><tspan x="82" y="350" fill="#e5cae0">█</tspan><tspan x="91" y="350" fill="#ef7cab">█</tspan><tspan x="101" y="350" fill="#f54a88">█</tspan><tspan x="111" y="350" fill="#f92d74">█</tspan><tspan x="120" y="350" fill="#fc1765">█</tspan><tspan x="130" y="350" fill="#fa2770">█</tspan><tspan x="139" y="350" fill="#f26097">█</tspan><tspan x="149" y="350" fill="#ec92b9">█</tspan><tspan x="159" y="350" fill="#ec94bb">█</tspan><tspan x="168" y="350" fill="#f077a7">█</tspan><tspan x="178" y="350" fill="#f35c95">█</tspan><tspan x="187" y="350" fill="#f4518d">█</tspan><tspan x="197" y="350" fill="#f64786">█</tspan><tspan x="207" y="350" fill="#fa246e">█</tspan><tspan x="216" y="350" fill="#fa216c">█</tspan><tspan x="226" y="350" fill="#f64081">█</tspan><tspan x="235" y="350" fill="#f2669b">█</tspan><tspan x="245" y="350" fill="#ef7dab">█</tspan><tspan x="255" y="350" fill="#ed8bb5">█</tspan><tspan x="264" y="350" fill="#ea9fc3">█</tspan><tspan x="274" y="350" fill="#e9aecd">█</tspan><tspan x="283" y="350" fill="#e9accb">█</tspan><tspan x="293" y="350" fill="#eb9bc0">█</tspan><tspan x="303" y="350" fill="#e8b7d3">█</tspan><tspan x="312" y="350" fill="#ec94bb">█</tspan><tspan x="322" y="350" fill="#f16c9f">█</tspan><tspan x="331" y="350" fill="#ee80ad">█</tspan><tspan x="341" y="350" fill="#eaa1c4">█</tspan><tspan x="351" y="350" fill="#e7bbd6">█</tspan>
<tspan x="15" y="370" fill="#e6c2db">█</tspan><tspan x="24" y="370" fill="#e4d0e4">█</tspan><tspan x="34" y="370" fill="#e9accb">█</tspan><tspan x="43" y="370" fill="#eb99be">█</tspan><tspan x="53" y="370" fill="#e4d3e6">█</tspan><tspan x="63" y="370" fill="#e2e5f3">█</tspan><tspan x="72" y="370" fill="#e3d8ea">█</tspan><tspan x="82" y="370" fill="#e2e0ef">█</tspan><tspan x="91" y="370" fill="#e2e3f1">█</tspan><tspan x="101" y="370" fill="#e9adcc">█</tspan><tspan x="111" y="370" fill="#f25f97">█</tspan><tspan x="120" y="370" fill="#f83076">█</tspan><tspan x="130" y="370" fill="#fd085b">█</tspan><tspan x="139" y="370" fill="#ff0055">█</tspan><tspan x="149" y="370" fill="#f92971">█</tspan><tspan x="159" y="370" fill="#f26198">█</tspan><tspan x="168" y="370" fill="#f35a93">█</tspan><tspan x="178" y="370" fill="#f26198">█</tspan><tspan x="187" y="370" fill="#f16b9f">█</tspan><tspan x="197" y="370" fill="#eb9abf">█</tspan><tspan x="207" y="370" fill="#e5cde2">█</tspan><tspan x="216" y="370" fill="#e2e4f2">█</tspan><tspan x="226" y="370" fill="#e0f2fb">█</tspan><tspan x="235" y="370" fill="#e0f1fb">█</tspan><tspan x="245" y="370" fill="#e3deee">█</tspan><tspan x="255" y="370" fill="#e5cce1">█</tspan><tspan x="264" y="370" fill="#e7bbd6">█</tspan><tspan x="274" y="370" fill="#e7bbd6">█</tspan><tspan x="283" y="370" fill="#e5cee3">█</tspan><tspan x="293" y="370" fill="#ec96bc">█</tspan><tspan x="303" y="370" fill="#e8b2cf">█</tspan><tspan x="312" y="370" fill="#e6c5dd">█</tspan><tspan x="322" y="370" fill="#ed8fb7">█</tspan><tspan x="331" y="370" fill="#ef79a8">█</tspan><tspan x="341" y="370" fill="#f35e96">█</tspan><tspan x="351" y="370" fill="#f1689d">█</tspan>
<tspan x="15" y="390" fill="#e9adcc">█</tspan><tspan x="24" y="390" fill="#e7b9d4">█</tspan><tspan x="34" y="390" fill="#eb9cc1">█</tspan><tspan x="43" y="390" fill="#ec93ba">█</tspan><tspan x="53" y="390" fill="#e8b1cf">█</tspan><tspan x="63" y="390" fill="#e6c2db">█</tspan><tspan x="72" y="390" fill="#e6c4dc">█</tspan><tspan x="82" y="390" fill="#e5cee3">█</tspan><tspan x="91" y="390" fill="#e2e5f3">█</tspan><tspan x="101" y="390" fill="#e0f6fe">█</tspan><tspan x="111" y="390" fill="#e0f5fd">█</tspan><tspan x="120" y="390" fill="#e5c7de">█</tspan><tspan x="130" y="390" fill="#f076a6">█</tspan><tspan x="139" y="390" fill="#f92b73">█</tspan><tspan x="149" y="390" fill="#fc1060">█</tspan><tspan x="159" y="390" fill="#f54f8b">█</tspan><tspan x="168" y="390" fill="#f35c94">█</tspan><tspan x="178" y="390" fill="#f26399">█</tspan><tspan x="187" y="390" fill="#eaa4c6">█</tspan><tspan x="197" y="390" fill="#e1edf8">█</tspan><tspan x="207" y="390" fill="#e2e1f0">█</tspan><tspan x="216" y="390" fill="#e4d3e6">█</tspan><tspan x="226" y="390" fill="#e5cbe1">█</tspan><tspan x="235" y="390" fill="#e5cae0">█</tspan><tspan x="245" y="390" fill="#e4d1e5">█</tspan><tspan x="255" y="390" fill="#ed8db6">█</tspan><tspan x="264" y="390" fill="#ee86b1">█</tspan><tspan x="274" y="390" fill="#ec93ba">█</tspan><tspan x="283" y="390" fill="#e3dced">█</tspan><tspan x="293" y="390" fill="#e7bcd7">█</tspan><tspan x="303" y="390" fill="#e8b6d2">█</tspan><tspan x="312" y="390" fill="#e2e1f0">█</tspan><tspan x="322" y="390" fill="#e5cce1">█</tspan><tspan x="331" y="390" fill="#e9accb">█</tspan><tspan x="341" y="390" fill="#ec94bb">█</tspan><tspan x="351" y="390" fill="#f35a93">█</tspan>
<tspan x="15" y="410" fill="#e8b5d1">█</tspan><tspan x="24" y="410" fill="#e8b3d0">█</tspan><tspan x="34" y="410" fill="#ed8cb5">█</tspan><tspan x="43" y="410" fill="#ec96bc">█</tspan><tspan x="53" y="410" fill="#ea9fc3">█</tspan><tspan x="63" y="410" fill="#e9accb">█</tspan><tspan x="72" y="410" fill="#e7bed8">█</tspan><tspan x="82" y="410" fill="#e6c1da">█</tspan><tspan x="91" y="410" fill="#e7b9d5">█</tspan><tspan x="101" y="410" fill="#e7b9d4">█</tspan><tspan x="111" y="410" fill="#e5cae0">█</tspan><tspan x="120" y="410" fill="#e2e3f1">█</tspan><tspan x="130" y="410" fill="#e0f5fd">█</tspan><tspan x="139" y="410" fill="#e4d6e8">█</tspan><tspan x="149" y="410" fill="#f26399">█</tspan><tspan x="159" y="410" fill="#fd0a5c">█</tspan><tspan x="168" y="410" fill="#f92f75">█</tspan><tspan x="178" y="410" fill="#ec94bb">█</tspan><tspan x="187" y="410" fill="#e4d0e4">█</tspan><tspan x="197" y="410" fill="#e5c7de">█</tspan><tspan x="207" y="410" fill="#e7bad5">█</tspan><tspan x="216" y="410" fill="#e8b1cf">█</tspan><tspan x="226" y="410" fill="#eaa6c7">█</tspan><tspan x="235" y="410" fill="#eb9ec2">█</tspan><tspan x="245" y="410" fill="#e5c9df">█</tspan><tspan x="255" y="410" fill="#eb9abf">█</tspan><tspan x="264" y="410" fill="#ee81ae">█</tspan><tspan x="274" y="410" fill="#f16fa1">█</tspan><tspan x="283" y="410" fill="#e4cfe3">█</tspan><tspan x="293" y="410" fill="#e4d3e6">█</tspan><tspan x="303" y="410" fill="#e5cae0">█</tspan><tspan x="312" y="410" fill="#e2e5f3">█</tspan><tspan x="322" y="410" fill="#e1e9f5">█</tspan><tspan x="331" y="410" fill="#e4cfe3">█</tspan><tspan x="341" y="410" fill="#e6c3db">█</tspan><tspan x="351" y="410" fill="#eb9abf">█</tspan>
<tspan x="15" y="430" fill="#e7b9d4">█</tspan><tspan x="24" y="430" fill="#eaa3c5">█</tspan><tspan x="34" y="430" fill="#ed8cb5">█</tspan><tspan x="43" y="430" fill="#ec96bc">█</tspan><tspan x="53" y="430" fill="#ec96bc">█</tspan><tspan x="63" y="430" fill="#ea9fc3">█</tspan><tspan x="72" y="430" fill="#e7bbd6">█</tspan><tspan x="82" y="430" fill="#e7bad5">█</tspan><tspan x="91" y="430" fill="#e8b5d1">█</tspan><tspan x="101" y="430" fill="#e9abcb">█</tspan><tspan x="111" y="430" fill="#e9abcb">█</tspan><tspan x="120" y="430" fill="#e9aecd">█</tspan><tspan x="130" y="430" fill="#e8b5d1">█</tspan><tspan x="139" y="430" fill="#e4d3e6">█</tspan><tspan x="149" y="430" fill="#e6c1da">█</tspan><tspan x="159" y="430" fill="#f070a2">█</tspan><tspan x="168" y="430" fill="#e9aecd">█</tspan><tspan x="178" y="430" fill="#e6c1da">█</tspan><tspan x="187" y="430" fill="#e9accb">█</tspan><tspan x="197" y="430" fill="#eaa3c5">█</tspan><tspan x="207" y="430" fill="#eaa2c5">█</tspan><tspan x="216" y="430" fill="#eaa2c5">█</tspan><tspan x="226" y="430" fill="#eb9ec2">█</tspan><tspan x="235" y="430" fill="#eb99be">█</tspan><tspan x="245" y="430" fill="#e7bad5">█</tspan><tspan x="255" y="430" fill="#e8b0ce">█</tspan><tspan x="264" y="430" fill="#ed8eb7">█</tspan><tspan x="274" y="430" fill="#ef78a7">█</tspan><tspan x="283" y="430" fill="#eb99be">█</tspan><tspan x="293" y="430" fill="#e2e0ef">█</tspan><tspan x="303" y="430" fill="#e4d0e4">█</tspan><tspan x="312" y="430" fill="#e4d3e6">█</tspan><tspan x="322" y="430" fill="#e2e3f1">█</tspan><tspan x="331" y="430" fill="#e2e1f0">█</tspan><tspan x="341" y="430" fill="#e4d1e5">█</tspan><tspan x="351" y="430" fill="#e5c7de">█</tspan>
<tspan x="15" y="450" fill="#e3daeb">█</tspan><tspan x="24" y="450" fill="#eaa1c4">█</tspan><tspan x="34" y="450" fill="#ea9fc3">█</tspan><tspan x="43" y="450" fill="#ec96bc">█</tspan><tspan x="53" y="450" fill="#ec91b9">█</tspan><tspan x="63" y="450" fill="#ec95bb">█</tspan><tspan x="72" y="450" fill="#e7bad5">█</tspan><tspan x="82" y="450" fill="#e7b8d3">█</tspan><tspan x="91" y="450" fill="#e9aecd">█</tspan><tspan x="101" y="450" fill="#e9abcb">█</tspan><tspan x="111" y="450" fill="#e9abcb">█</tspan><tspan x="120" y="450" fill="#e9adcc">█</tspan><tspan x="130" y="450" fill="#e9adcc">█</tspan><tspan x="139" y="450" fill="#e8b5d1">█</tspan><tspan x="149" y="450" fill="#e8b4d1">█</tspan><tspan x="159" y="450" fill="#ee81ae">█</tspan><tspan x="168" y="450" fill="#e9a8c9">█</tspan><tspan x="178" y="450" fill="#e9a8c9">█</tspan><tspan x="187" y="450" fill="#eaa4c6">█</tspan><tspan x="197" y="450" fill="#ea9fc3">█</tspan><tspan x="207" y="450" fill="#eb9cc1">█</tspan><tspan x="216" y="450" fill="#eb9abf">█</tspan><tspan x="226" y="450" fill="#ec96bc">█</tspan><tspan x="235" y="450" fill="#ec93ba">█</tspan><tspan x="245" y="450" fill="#eaa4c6">█</tspan><tspan x="255" y="450" fill="#e7b8d3">█</tspan><tspan x="264" y="450" fill="#ed8eb7">█</tspan><tspan x="274" y="450" fill="#ec91b9">█</tspan><tspan x="283" y="450" fill="#f16b9f">█</tspan><tspan x="293" y="450" fill="#e9abcb">█</tspan><tspan x="303" y="450" fill="#e1ecf7">█</tspan><tspan x="312" y="450" fill="#e2e2f1">█</tspan><tspan x="322" y="450" fill="#e0f2fb">█</tspan><tspan x="331" y="450" fill="#e0f0fa">█</tspan><tspan x="341" y="450" fill="#e4d6e8">█</tspan><tspan x="351" y="450" fill="#e9accb">█</tspan>
<tspan x="15" y="470" fill="#eb9bc0">█</tspan><tspan x="24" y="470" fill="#e9a9c9">█</tspan><tspan x="34" y="470" fill="#e9adcc">█</tspan><tspan x="43" y="470" fill="#eb9abf">█</tspan><tspan x="53" y="470" fill="#ec92b9">█</tspan><tspan x="63" y="470" fill="#ec91b9">█</tspan><tspan x="72" y="470" fill="#e8b7d3">█</tspan><tspan x="82" y="470" fill="#e8b3d0">█</tspan><tspan x="91" y="470" fill="#e9accb">█</tspan><tspan x="101" y="470" fill="#e9accb">█</tspan><tspan x="111" y="470" fill="#e9accb">█</tspan><tspan x="120" y="470" fill="#e9aecd">█</tspan><tspan x="130" y="470" fill="#e8b2cf">█</tspan><tspan x="139" y="470" fill="#e8b3d0">█</tspan><tspan x="149" y="470" fill="#e7b9d4">█</tspan><tspan x="159" y="470" fill="#ec90b8">█</tspan><tspan x="168" y="470" fill="#e9a7c8">█</tspan><tspan x="178" y="470" fill="#e9aecd">█</tspan><tspan x="187" y="470" fill="#e9aaca">█</tspan><tspan x="197" y="470" fill="#eaa2c5">█</tspan><tspan x="207" y="470" fill="#eb9abf">█</tspan><tspan x="216" y="470" fill="#ec96bc">█</tspan><tspan x="226" y="470" fill="#ec91b9">█</tspan><tspan x="235" y="470" fill="#ed8fb7">█</tspan><tspan x="245" y="470" fill="#ed8ab4">█</tspan><tspan x="255" y="470" fill="#e8b0ce">█</tspan><tspan x="264" y="470" fill="#ec91b9">█</tspan><tspan x="274" y="470" fill="#ef78a7">█</tspan><tspan x="283" y="470" fill="#ee82af">█</tspan><tspan x="293" y="470" fill="#ef7cab">█</tspan><tspan x="303" y="470" fill="#e3dbec">█</tspan><tspan x="312" y="470" fill="#e2e1f0">█</tspan><tspan x="322" y="470" fill="#e1eaf6">█</tspan><tspan x="331" y="470" fill="#e0f0fa">█</tspan><tspan x="341" y="470" fill="#e2e1f0">█</tspan><tspan x="351" y="470" fill="#e8b4d1">█</tspan>
<tspan x="15" y="490" fill="#e9a7c8">█</tspan><tspan x="24" y="490" fill="#e7bcd7">█</tspan><tspan x="34" y="490" fill="#e8b3d0">█</tspan><tspan x="43" y="490" fill="#eaa2c5">█</tspan><tspan x="53" y="490" fill="#ec95bb">█</tspan><tspan x="63" y="490" fill="#ec92b9">█</tspan><tspan x="72" y="490" fill="#e8b2cf">█</tspan><tspan x="82" y="490" fill="#e9a8c9">█</tspan><tspan x="91" y="490" fill="#e9accb">█</tspan><tspan x="101" y="490" fill="#e9aaca">█</tspan><tspan x="111" y="490" fill="#e9adcc">█</tspan><tspan x="120" y="490" fill="#e8b2cf">█</tspan><tspan x="130" y="490" fill="#e8b5d1">█</tspan><tspan x="139" y="490" fill="#e8b4d1">█</tspan><tspan x="149" y="490" fill="#e7b9d4">█</tspan><tspan x="159" y="490" fill="#eb9abf">█</tspan><tspan x="168" y="490" fill="#eaa6c7">█</tspan><tspan x="178" y="490" fill="#e8b1cf">█</tspan><tspan x="187" y="490" fill="#e7b9d5">█</tspan><tspan x="197" y="490" fill="#e8b6d2">█</tspan><tspan x="207" y="490" fill="#e9abcb">█</tspan><tspan x="216" y="490" fill="#eaa1c4">█</tspan><tspan x="226" y="490" fill="#eb9abf">█</tspan><tspan x="235" y="490" fill="#ec97bd">█</tspan><tspan x="245" y="490" fill="#ec96bc">█</tspan><tspan x="255" y="490" fill="#eaa1c4">█</tspan><tspan x="264" y="490" fill="#eaa5c7">█</tspan><tspan x="274" y="490" fill="#ef7cab">█</tspan><tspan x="283" y="490" fill="#ea9fc3">█</tspan><tspan x="293" y="490" fill="#e9accb">█</tspan><tspan x="303" y="490" fill="#e5cce1">█</tspan><tspan x="312" y="490" fill="#e0f1fb">█</tspan><tspan x="322" y="490" fill="#e0f3fc">█</tspan><tspan x="331" y="490" fill="#e0f7ff">█</tspan><tspan x="341" y="490" fill="#e2dfef">█</tspan><tspan x="351" y="490" fill="#e7b8d3">█</tspan>
<tspan x="15" y="510" fill="#e8b3d0">█</tspan><tspan x="24" y="510" fill="#e6c0d9">█</tspan><tspan x="34" y="510" fill="#e7bbd6">█</tspan><tspan x="43" y="510" fill="#eaa6c7">█</tspan><tspan x="53" y="510" fill="#eb9abf">█</tspan><tspan x="63" y="510" fill="#ec91b9">█</tspan><tspan x="72" y="510" fill="#e8b2cf">█</tspan><tspan x="82" y="510" fill="#e9a8c9">█</tspan><tspan x="91" y="510" fill="#e9abcb">█</tspan><tspan x="101" y="510" fill="#e9aecd">█</tspan><tspan x="111" y="510" fill="#e8b2cf">█</tspan><tspan x="120" y="510" fill="#e8b1cf">█</tspan><tspan x="130" y="510" fill="#e8afcd">█</tspan><tspan x="139" y="510" fill="#e8b1cf">█</tspan><tspan x="149" y="510" fill="#e7bad5">█</tspan><tspan x="159" y="510" fill="#eaa4c6">█</tspan><tspan x="168" y="510" fill="#e9a8c9">█</tspan><tspan x="178" y="510" fill="#e8b0ce">█</tspan><tspan x="187" y="510" fill="#e7bbd6">█</tspan><tspan x="197" y="510" fill="#e6c0d9">█</tspan><tspan x="207" y="510" fill="#e7bad5">█</tspan><tspan x="216" y="510" fill="#e8b3d0">█</tspan><tspan x="226" y="510" fill="#e9aecd">█</tspan><tspan x="235" y="510" fill="#e9a8c9">█</tspan><tspan x="245" y="510" fill="#e9a7c8">█</tspan><tspan x="255" y="510" fill="#e8b0ce">█</tspan><tspan x="264" y="510" fill="#e6bfd9">█</tspan><tspan x="274" y="510" fill="#ef7cab">█</tspan><tspan x="283" y="510" fill="#f16da0">█</tspan><tspan x="293" y="510" fill="#f16c9f">█</tspan><tspan x="303" y="510" fill="#e5c9df">█</tspan><tspan x="312" y="510" fill="#e0f1fb">█</tspan><tspan x="322" y="510" fill="#e0f3fc">█</tspan><tspan x="331" y="510" fill="#e2e3f1">█</tspan><tspan x="341" y="510" fill="#e5cce1">█</tspan><tspan x="351" y="510" fill="#e6c6dd">█</tspan>
</text>
<text x="390" y="30" fill="#0a0a1a" filter="url(#lightGlow)">
<tspan x="390" y="30" fill="#94a3b8">nikita@dronov -————————————————————————————————————————————————————————-</tspan><tspan x="390" y="50"><tspan fill="#94a3b8">. </tspan><tspan fill="#008c9e">OS</tspan><tspan fill="#94a3b8">: </tspan><tspan fill="#94a3b8">..............................</tspan><tspan fill="#d6006e"> Linux, macOS, Windows</tspan></tspan><tspan x="390" y="70"><tspan fill="#94a3b8">. </tspan><tspan fill="#008c9e">Uptime</tspan><tspan fill="#94a3b8">: </tspan><tspan fill="#94a3b8">..................................</tspan><tspan fill="#d6006e"> 3 years in IT</tspan></tspan><tspan x="390" y="90"><tspan fill="#94a3b8">. </tspan><tspan fill="#008c9e">Host</tspan><tspan fill="#94a3b8">: </tspan><tspan fill="#94a3b8">.................................</tspan><tspan fill="#d6006e"> Ingosstrakh Bank</tspan></tspan><tspan x="390" y="110"><tspan fill="#94a3b8">. </tspan><tspan fill="#008c9e">Kernel</tspan><tspan fill="#94a3b8">: </tspan><tspan fill="#94a3b8">.............</tspan><tspan fill="#d6006e"> Lead Expert, Test Automation Group</tspan></tspan><tspan x="390" y="130"><tspan fill="#94a3b8">. </tspan><tspan fill="#008c9e">IDE</tspan><tspan fill="#94a3b8">: </tspan><tspan fill="#94a3b8">...................................</tspan><tspan fill="#d6006e"> PyCharm, VSCode</tspan></tspan><tspan x="390" y="150" fill="#94a3b8">. </tspan><tspan x="390" y="170"><tspan fill="#94a3b8">. </tspan><tspan fill="#008c9e">Languages.Programming</tspan><tspan fill="#94a3b8">: </tspan><tspan fill="#94a3b8">..........</tspan><tspan fill="#d6006e"> Python, SQL, HTML, CSS</tspan></tspan><tspan x="390" y="190"><tspan fill="#94a3b8">. </tspan><tspan fill="#008c9e">Languages.Computer</tspan><tspan fill="#94a3b8">: </tspan><tspan fill="#94a3b8">........</tspan><tspan fill="#d6006e"> JSON, YAML, Shell, Markdown</tspan></tspan><tspan x="390" y="210"><tspan fill="#94a3b8">. </tspan><tspan fill="#008c9e">Languages.Real</tspan><tspan fill="#94a3b8">: </tspan><tspan fill="#94a3b8">...........</tspan><tspan fill="#d6006e"> RU native / EN B1 / ES A1-A2</tspan></tspan><tspan x="390" y="230" fill="#94a3b8">. </tspan><tspan x="390" y="250"><tspan fill="#94a3b8">. </tspan><tspan fill="#008c9e">Hobbies.Software</tspan><tspan fill="#94a3b8">: </tspan><tspan fill="#94a3b8">...</tspan><tspan fill="#d6006e"> Test Automation, Microservices, Open Source</tspan></tspan><tspan x="390" y="270"><tspan fill="#94a3b8">. </tspan><tspan fill="#008c9e">Hobbies.Hardware</tspan><tspan fill="#94a3b8">: </tspan><tspan fill="#94a3b8">....................................</tspan><tspan fill="#d6006e"> —</tspan></tspan><tspan x="390" y="310" fill="#94a3b8">- Contact &amp; Links ——————————————————————————————————————————-</tspan><tspan x="390" y="330"><tspan fill="#94a3b8">. </tspan><tspan fill="#008c9e">Email.Personal</tspan><tspan fill="#94a3b8">: </tspan><tspan fill="#94a3b8">..............</tspan><tspan fill="#d6006e"> nikita.dronov.a@gmail.com</tspan></tspan><tspan x="390" y="350"><tspan fill="#94a3b8">. </tspan><tspan fill="#008c9e">Telegram</tspan><tspan fill="#94a3b8">: </tspan><tspan fill="#94a3b8">.....................................</tspan><tspan fill="#d6006e"> @drnvvna</tspan></tspan><tspan x="390" y="370"><tspan fill="#94a3b8">. </tspan><tspan fill="#008c9e">GitHub</tspan><tspan fill="#94a3b8">: </tspan><tspan fill="#94a3b8">.......................................</tspan><tspan fill="#d6006e"> DronovNA</tspan></tspan><tspan x="390" y="390"><tspan fill="#94a3b8">. </tspan><tspan fill="#008c9e">LinkedIn</tspan><tspan fill="#94a3b8">: </tspan><tspan fill="#94a3b8">.....</tspan><tspan fill="#d6006e"> linkedin.com/in/nikita-dronov-automation</tspan></tspan><tspan x="390" y="410"><tspan fill="#94a3b8">. </tspan><tspan fill="#008c9e">Product</tspan><tspan fill="#94a3b8">: </tspan><tspan fill="#94a3b8">.........................</tspan><tspan fill="#d6006e"> app.pairlingua.online</tspan></tspan><tspan x="390" y="450" fill="#94a3b8">- GitHub Stats ————————————————————————————————————————————————-</tspan><tspan x="390" y="470"><tspan fill="#94a3b8">. Repos: </tspan><tspan fill="#d6006e">8</tspan><tspan fill="#94a3b8"> {</tspan><tspan fill="#008c9e">Contributed</tspan><tspan fill="#94a3b8">: </tspan><tspan fill="#d6006e">8</tspan><tspan fill="#94a3b8">} | Stars: </tspan><tspan fill="#d6006e">0</tspan></tspan><tspan x="390" y="490"><tspan fill="#94a3b8">. Commits: </tspan><tspan fill="#d6006e">86</tspan><tspan fill="#94a3b8"> | Followers: </tspan><tspan fill="#d6006e">3</tspan></tspan><tspan x="390" y="510"><tspan fill="#94a3b8">. Lines of Code on GitHub: </tspan><tspan fill="#d6006e">5,912</tspan><tspan fill="#94a3b8"> ( </tspan><tspan fill="#047857">6,660++</tspan><tspan fill="#94a3b8">, </tspan><tspan fill="#be123c">748--</tspan><tspan fill="#94a3b8"> )</tspan></tspan>
</text>
</svg>